<svg width="251" height="32" viewBox="0 0 251 32" fill="none" xmlns="http://www.w3.org/2000/svg">
<g filter="url(#filter0_d)">
<path d="M11.5 22.875V19.75H8.375V16.625H5.25V13.5H2.125V10.375H5.25V7.25H8.375V4.125H11.5V1H17.75V4.125H14.625V7.25H11.5V10.375H8.375V13.5H11.5V16.625H14.625V19.75H17.75V22.875H11.5ZM24 22.875V7.25H27.125V4.125H30.25V1H39.625V4.125H42.75V7.25H45.875V22.875H39.625V16.625H30.25V22.875H24ZM30.25 13.5H39.625V7.25H36.5V4.125H33.375V7.25H30.25V13.5ZM52.125 22.875V19.75H49V1H55.25V7.25H67.75V10.375H70.875V19.75H67.75V22.875H52.125ZM55.25 19.75H64.625V10.375H55.25V19.75ZM77.125 22.875V19.75H74V10.375H77.125V7.25H92.75V10.375H95.875V19.75H92.75V22.875H77.125ZM80.25 19.75H89.625V10.375H80.25V19.75ZM102.125 22.875V19.75H99V7.25H105.25V19.75H114.625V7.25H120.875V22.875H102.125ZM133.375 22.875V10.375H127.125V7.25H133.375V1H139.625V7.25H145.875V10.375H139.625V22.875H133.375ZM174 22.875V1H180.25V4.125H183.375V7.25H186.5V4.125H189.625V1H195.875V22.875H189.625V10.375H186.5V16.625H183.375V10.375H180.25V22.875H174ZM202.125 22.875V19.75H199V10.375H202.125V7.25H217.75V10.375H220.875V16.625H205.25V19.75H217.75V22.875H202.125ZM205.25 13.5H214.625V10.375H205.25V13.5ZM227.125 22.875V19.75H230.25V16.625H233.375V13.5H236.5V10.375H233.375V7.25H230.25V4.125H227.125V1H233.375V4.125H236.5V7.25H239.625V10.375H242.75V13.5H239.625V16.625H236.5V19.75H233.375V22.875H227.125Z" fill="black"/>
<path d="M11.5 22.875H11L11.5 23.375V22.875ZM11.5 19.75H12L11.5 19.25V19.75ZM8.375 19.75H7.875L8.375 20.25V19.75ZM8.375 16.625H8.875L8.375 16.125V16.625ZM5.25 16.625H4.75L5.25 17.125V16.625ZM5.25 13.5H5.75L5.25 13V13.5ZM2.125 13.5H1.625L2.125 14V13.5ZM2.125 10.375V9.875L1.625 10.375H2.125ZM5.25 10.375V10.875L5.75 10.375H5.25ZM5.25 7.25V6.75L4.75 7.25H5.25ZM8.375 7.25V7.75L8.875 7.25H8.375ZM8.375 4.125V3.625L7.875 4.125H8.375ZM11.5 4.125V4.625L12 4.125H11.5ZM11.5 1V0.5L11 1H11.5ZM17.75 1H18.25L17.75 0.5V1ZM17.75 4.125V4.625L18.25 4.125H17.75ZM14.625 4.125V3.625L14.125 4.125H14.625ZM14.625 7.25V7.75L15.125 7.25H14.625ZM11.5 7.25V6.75L11 7.25H11.5ZM11.5 10.375V10.875L12 10.375H11.5ZM8.375 10.375V9.875L7.875 10.375H8.375ZM8.375 13.5H7.875L8.375 14V13.5ZM11.5 13.5H12L11.5 13V13.5ZM11.5 16.625H11L11.5 17.125V16.625ZM14.625 16.625H15.125L14.625 16.125V16.625ZM14.625 19.75H14.125L14.625 20.25V19.75ZM17.75 19.75H18.25L17.75 19.25V19.75ZM17.75 22.875V23.375L18.25 22.875H17.75ZM12 22.875V19.75H11V22.875H12ZM11.5 19.25H8.375V20.25H11.5V19.25ZM8.875 19.75V16.625H7.875V19.75H8.875ZM8.375 16.125H5.25V17.125H8.375V16.125ZM5.75 16.625V13.5H4.75V16.625H5.75ZM5.25 13H2.125V14H5.25V13ZM2.625 13.5V10.375H1.625V13.5H2.625ZM2.125 10.875H5.25V9.875H2.125V10.875ZM5.75 10.375V7.25H4.75V10.375H5.75ZM5.25 7.75H8.375V6.75H5.25V7.75ZM8.875 7.25V4.125H7.875V7.25H8.875ZM8.375 4.625H11.5V3.625H8.375V4.625ZM12 4.125V1H11V4.125H12ZM11.5 1.5H17.75V0.5H11.5V1.5ZM17.25 1V4.125H18.25V1H17.25ZM17.75 3.625H14.625V4.625H17.75V3.625ZM14.125 4.125V7.25H15.125V4.125H14.125ZM14.625 6.75H11.5V7.75H14.625V6.75ZM11 7.25V10.375H12V7.25H11ZM11.5 9.875H8.375V10.875H11.5V9.875ZM7.875 10.375V13.5H8.875V10.375H7.875ZM8.375 14H11.5V13H8.375V14ZM11 13.5V16.625H12V13.5H11ZM11.5 17.125H14.625V16.125H11.5V17.125ZM14.125 16.625V19.75H15.125V16.625H14.125ZM14.625 20.25H17.75V19.25H14.625V20.25ZM17.25 19.75V22.875H18.25V19.75H17.25ZM17.75 22.375H11.5V23.375H17.75V22.375ZM24 22.875H23.5L24 23.375V22.875ZM24 7.25V6.75L23.5 7.25H24ZM27.125 7.25V7.75L27.625 7.25H27.125ZM27.125 4.125V3.625L26.625 4.125H27.125ZM30.25 4.125V4.625L30.75 4.125H30.25ZM30.25 1V0.5L29.75 1H30.25ZM39.625 1H40.125L39.625 0.5V1ZM39.625 4.125H39.125L39.625 4.625V4.125ZM42.75 4.125H43.25L42.75 3.625V4.125ZM42.75 7.25H42.25L42.75 7.75V7.25ZM45.875 7.25H46.375L45.875 6.75V7.25ZM45.875 22.875V23.375L46.375 22.875H45.875ZM39.625 22.875H39.125L39.625 23.375V22.875ZM39.625 16.625H40.125L39.625 16.125V16.625ZM30.25 16.625V16.125L29.75 16.625H30.25ZM30.25 22.875V23.375L30.75 22.875H30.25ZM30.25 13.5H29.75L30.25 14V13.5ZM39.625 13.5V14L40.125 13.5H39.625ZM39.625 7.25H40.125L39.625 6.75V7.25ZM36.5 7.25H36L36.5 7.75V7.25ZM36.5 4.125H37L36.5 3.625V4.125ZM33.375 4.125V3.625L32.875 4.125H33.375ZM33.375 7.25V7.75L33.875 7.25H33.375ZM30.25 7.25V6.75L29.75 7.25H30.25ZM24.5 22.875V7.25H23.5V22.875H24.5ZM24 7.75H27.125V6.75H24V7.75ZM27.625 7.25V4.125H26.625V7.25H27.625ZM27.125 4.625H30.25V3.625H27.125V4.625ZM30.75 4.125V1H29.75V4.125H30.75ZM30.25 1.5H39.625V0.5H30.25V1.5ZM39.125 1V4.125H40.125V1H39.125ZM39.625 4.625H42.75V3.625H39.625V4.625ZM42.25 4.125V7.25H43.25V4.125H42.25ZM42.75 7.75H45.875V6.75H42.75V7.75ZM45.375 7.25V22.875H46.375V7.25H45.375ZM45.875 22.375H39.625V23.375H45.875V22.375ZM40.125 22.875V16.625H39.125V22.875H40.125ZM39.625 16.125H30.25V17.125H39.625V16.125ZM29.75 16.625V22.875H30.75V16.625H29.75ZM30.25 22.375H24V23.375H30.25V22.375ZM30.25 14H39.625V13H30.25V14ZM40.125 13.5V7.25H39.125V13.5H40.125ZM39.625 6.75H36.5V7.75H39.625V6.75ZM37 7.25V4.125H36V7.25H37ZM36.5 3.625H33.375V4.625H36.5V3.625ZM32.875 4.125V7.25H33.875V4.125H32.875ZM33.375 6.75H30.25V7.75H33.375V6.75ZM29.75 7.25V13.5H30.75V7.25H29.75ZM52.125 22.875H51.625L52.125 23.375V22.875ZM52.125 19.75H52.625L52.125 19.25V19.75ZM49 19.75H48.5L49 20.25V19.75ZM49 1V0.5L48.5 1H49ZM55.25 1H55.75L55.25 0.5V1ZM55.25 7.25H54.75L55.25 7.75V7.25ZM67.75 7.25H68.25L67.75 6.75V7.25ZM67.75 10.375H67.25L67.75 10.875V10.375ZM70.875 10.375H71.375L70.875 9.875V10.375ZM70.875 19.75V20.25L71.375 19.75H70.875ZM67.75 19.75V19.25L67.25 19.75H67.75ZM67.75 22.875V23.375L68.25 22.875H67.75ZM55.25 19.75H54.75L55.25 20.25V19.75ZM64.625 19.75V20.25L65.125 19.75H64.625ZM64.625 10.375H65.125L64.625 9.875V10.375ZM55.25 10.375V9.875L54.75 10.375H55.25ZM52.625 22.875V19.75H51.625V22.875H52.625ZM52.125 19.25H49V20.25H52.125V19.25ZM49.5 19.75V1H48.5V19.75H49.5ZM49 1.5H55.25V0.5H49V1.5ZM54.75 1V7.25H55.75V1H54.75ZM55.25 7.75H67.75V6.75H55.25V7.75ZM67.25 7.25V10.375H68.25V7.25H67.25ZM67.75 10.875H70.875V9.875H67.75V10.875ZM70.375 10.375V19.75H71.375V10.375H70.375ZM70.875 19.25H67.75V20.25H70.875V19.25ZM67.25 19.75V22.875H68.25V19.75H67.25ZM67.75 22.375H52.125V23.375H67.75V22.375ZM55.25 20.25H64.625V19.25H55.25V20.25ZM65.125 19.75V10.375H64.125V19.75H65.125ZM64.625 9.875H55.25V10.875H64.625V9.875ZM54.75 10.375V19.75H55.75V10.375H54.75ZM77.125 22.875H76.625L77.125 23.375V22.875ZM77.125 19.75H77.625L77.125 19.25V19.75ZM74 19.75H73.5L74 20.25V19.75ZM74 10.375V9.875L73.5 10.375H74ZM77.125 10.375V10.875L77.625 10.375H77.125ZM77.125 7.25V6.75L76.625 7.25H77.125ZM92.75 7.25H93.25L92.75 6.75V7.25ZM92.75 10.375H92.25L92.75 10.875V10.375ZM95.875 10.375H96.375L95.875 9.875V10.375ZM95.875 19.75V20.25L96.375 19.75H95.875ZM92.75 19.75V19.25L92.25 19.75H92.75ZM92.75 22.875V23.375L93.25 22.875H92.75ZM80.25 19.75H79.75L80.25 20.25V19.75ZM89.625 19.75V20.25L90.125 19.75H89.625ZM89.625 10.375H90.125L89.625 9.875V10.375ZM80.25 10.375V9.875L79.75 10.375H80.25ZM77.625 22.875V19.75H76.625V22.875H77.625ZM77.125 19.25H74V20.25H77.125V19.25ZM74.5 19.75V10.375H73.5V19.75H74.5ZM74 10.875H77.125V9.875H74V10.875ZM77.625 10.375V7.25H76.625V10.375H77.625ZM77.125 7.75H92.75V6.75H77.125V7.75ZM92.25 7.25V10.375H93.25V7.25H92.25ZM92.75 10.875H95.875V9.875H92.75V10.875ZM95.375 10.375V19.75H96.375V10.375H95.375ZM95.875 19.25H92.75V20.25H95.875V19.25ZM92.25 19.75V22.875H93.25V19.75H92.25ZM92.75 22.375H77.125V23.375H92.75V22.375ZM80.25 20.25H89.625V19.25H80.25V20.25ZM90.125 19.75V10.375H89.125V19.75H90.125ZM89.625 9.875H80.25V10.875H89.625V9.875ZM79.75 10.375V19.75H80.75V10.375H79.75ZM102.125 22.875H101.625L102.125 23.375V22.875ZM102.125 19.75H102.625L102.125 19.25V19.75ZM99 19.75H98.5L99 20.25V19.75ZM99 7.25V6.75L98.5 7.25H99ZM105.25 7.25H105.75L105.25 6.75V7.25ZM105.25 19.75H104.75L105.25 20.25V19.75ZM114.625 19.75V20.25L115.125 19.75H114.625ZM114.625 7.25V6.75L114.125 7.25H114.625ZM120.875 7.25H121.375L120.875 6.75V7.25ZM120.875 22.875V23.375L121.375 22.875H120.875ZM102.625 22.875V19.75H101.625V22.875H102.625ZM102.125 19.25H99V20.25H102.125V19.25ZM99.5 19.75V7.25H98.5V19.75H99.5ZM99 7.75H105.25V6.75H99V7.75ZM104.75 7.25V19.75H105.75V7.25H104.75ZM105.25 20.25H114.625V19.25H105.25V20.25ZM115.125 19.75V7.25H114.125V19.75H115.125ZM114.625 7.75H120.875V6.75H114.625V7.75ZM120.375 7.25V22.875H121.375V7.25H120.375ZM120.875 22.375H102.125V23.375H120.875V22.375ZM133.375 22.875H132.875L133.375 23.375V22.875ZM133.375 10.375H133.875L133.375 9.875V10.375ZM127.125 10.375H126.625L127.125 10.875V10.375ZM127.125 7.25V6.75L126.625 7.25H127.125ZM133.375 7.25V7.75L133.875 7.25H133.375ZM133.375 1V0.5L132.875 1H133.375ZM139.625 1H140.125L139.625 0.5V1ZM139.625 7.25H139.125L139.625 7.75V7.25ZM145.875 7.25H146.375L145.875 6.75V7.25ZM145.875 10.375V10.875L146.375 10.375H145.875ZM139.625 10.375V9.875L139.125 10.375H139.625ZM139.625 22.875V23.375L140.125 22.875H139.625ZM133.875 22.875V10.375H132.875V22.875H133.875ZM133.375 9.875H127.125V10.875H133.375V9.875ZM127.625 10.375V7.25H126.625V10.375H127.625ZM127.125 7.75H133.375V6.75H127.125V7.75ZM133.875 7.25V1H132.875V7.25H133.875ZM133.375 1.5H139.625V0.5H133.375V1.5ZM139.125 1V7.25H140.125V1H139.125ZM139.625 7.75H145.875V6.75H139.625V7.75ZM145.375 7.25V10.375H146.375V7.25H145.375ZM145.875 9.875H139.625V10.875H145.875V9.875ZM139.125 10.375V22.875H140.125V10.375H139.125ZM139.625 22.375H133.375V23.375H139.625V22.375ZM174 22.875H173.5L174 23.375V22.875ZM174 1V0.5L173.5 1H174ZM180.25 1H180.75L180.25 0.5V1ZM180.25 4.125H179.75L180.25 4.625V4.125ZM183.375 4.125H183.875L183.375 3.625V4.125ZM183.375 7.25H182.875L183.375 7.75V7.25ZM186.5 7.25V7.75L187 7.25H186.5ZM186.5 4.125V3.625L186 4.125H186.5ZM189.625 4.125V4.625L190.125 4.125H189.625ZM189.625 1V0.5L189.125 1H189.625ZM195.875 1H196.375L195.875 0.5V1ZM195.875 22.875V23.375L196.375 22.875H195.875ZM189.625 22.875H189.125L189.625 23.375V22.875ZM189.625 10.375H190.125L189.625 9.875V10.375ZM186.5 10.375V9.875L186 10.375H186.5ZM186.5 16.625V17.125L187 16.625H186.5ZM183.375 16.625H182.875L183.375 17.125V16.625ZM183.375 10.375H183.875L183.375 9.875V10.375ZM180.25 10.375V9.875L179.75 10.375H180.25ZM180.25 22.875V23.375L180.75 22.875H180.25ZM174.5 22.875V1H173.5V22.875H174.5ZM174 1.5H180.25V0.5H174V1.5ZM179.75 1V4.125H180.75V1H179.75ZM180.25 4.625H183.375V3.625H180.25V4.625ZM182.875 4.125V7.25H183.875V4.125H182.875ZM183.375 7.75H186.5V6.75H183.375V7.75ZM187 7.25V4.125H186V7.25H187ZM186.5 4.625H189.625V3.625H186.5V4.625ZM190.125 4.125V1H189.125V4.125H190.125ZM189.625 1.5H195.875V0.5H189.625V1.5ZM195.375 1V22.875H196.375V1H195.375ZM195.875 22.375H189.625V23.375H195.875V22.375ZM190.125 22.875V10.375H189.125V22.875H190.125ZM189.625 9.875H186.5V10.875H189.625V9.875ZM186 10.375V16.625H187V10.375H186ZM186.5 16.125H183.375V17.125H186.5V16.125ZM183.875 16.625V10.375H182.875V16.625H183.875ZM183.375 9.875H180.25V10.875H183.375V9.875ZM179.75 10.375V22.875H180.75V10.375H179.75ZM180.25 22.375H174V23.375H180.25V22.375ZM202.125 22.875H201.625L202.125 23.375V22.875ZM202.125 19.75H202.625L202.125 19.25V19.75ZM199 19.75H198.5L199 20.25V19.75ZM199 10.375V9.875L198.5 10.375H199ZM202.125 10.375V10.875L202.625 10.375H202.125ZM202.125 7.25V6.75L201.625 7.25H202.125ZM217.75 7.25H218.25L217.75 6.75V7.25ZM217.75 10.375H217.25L217.75 10.875V10.375ZM220.875 10.375H221.375L220.875 9.875V10.375ZM220.875 16.625V17.125L221.375 16.625H220.875ZM205.25 16.625V16.125L204.75 16.625H205.25ZM205.25 19.75H204.75L205.25 20.25V19.75ZM217.75 19.75H218.25L217.75 19.25V19.75ZM217.75 22.875V23.375L218.25 22.875H217.75ZM205.25 13.5H204.75L205.25 14V13.5ZM214.625 13.5V14L215.125 13.5H214.625ZM214.625 10.375H215.125L214.625 9.875V10.375ZM205.25 10.375V9.875L204.75 10.375H205.25ZM202.625 22.875V19.75H201.625V22.875H202.625ZM202.125 19.25H199V20.25H202.125V19.25ZM199.5 19.75V10.375H198.5V19.75H199.5ZM199 10.875H202.125V9.875H199V10.875ZM202.625 10.375V7.25H201.625V10.375H202.625ZM202.125 7.75H217.75V6.75H202.125V7.75ZM217.25 7.25V10.375H218.25V7.25H217.25ZM217.75 10.875H220.875V9.875H217.75V10.875ZM220.375 10.375V16.625H221.375V10.375H220.375ZM220.875 16.125H205.25V17.125H220.875V16.125ZM204.75 16.625V19.75H205.75V16.625H204.75ZM205.25 20.25H217.75V19.25H205.25V20.25ZM217.25 19.75V22.875H218.25V19.75H217.25ZM217.75 22.375H202.125V23.375H217.75V22.375ZM205.25 14H214.625V13H205.25V14ZM215.125 13.5V10.375H214.125V13.5H215.125ZM214.625 9.875H205.25V10.875H214.625V9.875ZM204.75 10.375V13.5H205.75V10.375H204.75ZM227.125 22.875H226.625L227.125 23.375V22.875ZM227.125 19.75V19.25L226.625 19.75H227.125ZM230.25 19.75V20.25L230.75 19.75H230.25ZM230.25 16.625V16.125L229.75 16.625H230.25ZM233.375 16.625V17.125L233.875 16.625H233.375ZM233.375 13.5V13L232.875 13.5H233.375ZM236.5 13.5V14L237 13.5H236.5ZM236.5 10.375H237L236.5 9.875V10.375ZM233.375 10.375H232.875L233.375 10.875V10.375ZM233.375 7.25H233.875L233.375 6.75V7.25ZM230.25 7.25H229.75L230.25 7.75V7.25ZM230.25 4.125H230.75L230.25 3.625V4.125ZM227.125 4.125H226.625L227.125 4.625V4.125ZM227.125 1V0.5L226.625 1H227.125ZM233.375 1H233.875L233.375 0.5V1ZM233.375 4.125H232.875L233.375 4.625V4.125ZM236.5 4.125H237L236.5 3.625V4.125ZM236.5 7.25H236L236.5 7.75V7.25ZM239.625 7.25H240.125L239.625 6.75V7.25ZM239.625 10.375H239.125L239.625 10.875V10.375ZM242.75 10.375H243.25L242.75 9.875V10.375ZM242.75 13.5V14L243.25 13.5H242.75ZM239.625 13.5V13L239.125 13.5H239.625ZM239.625 16.625V17.125L240.125 16.625H239.625ZM236.5 16.625V16.125L236 16.625H236.5ZM236.5 19.75V20.25L237 19.75H236.5ZM233.375 19.75V19.25L232.875 19.75H233.375ZM233.375 22.875V23.375L233.875 22.875H233.375ZM227.625 22.875V19.75H226.625V22.875H227.625ZM227.125 20.25H230.25V19.25H227.125V20.25ZM230.75 19.75V16.625H229.75V19.75H230.75ZM230.25 17.125H233.375V16.125H230.25V17.125ZM233.875 16.625V13.5H232.875V16.625H233.875ZM233.375 14H236.5V13H233.375V14ZM237 13.5V10.375H236V13.5H237ZM236.5 9.875H233.375V10.875H236.5V9.875ZM233.875 10.375V7.25H232.875V10.375H233.875ZM233.375 6.75H230.25V7.75H233.375V6.75ZM230.75 7.25V4.125H229.75V7.25H230.75ZM230.25 3.625H227.125V4.625H230.25V3.625ZM227.625 4.125V1H226.625V4.125H227.625ZM227.125 1.5H233.375V0.5H227.125V1.5ZM232.875 1V4.125H233.875V1H232.875ZM233.375 4.625H236.5V3.625H233.375V4.625ZM236 4.125V7.25H237V4.125H236ZM236.5 7.75H239.625V6.75H236.5V7.75ZM239.125 7.25V10.375H240.125V7.25H239.125ZM239.625 10.875H242.75V9.875H239.625V10.875ZM242.25 10.375V13.5H243.25V10.375H242.25ZM242.75 13H239.625V14H242.75V13ZM239.125 13.5V16.625H240.125V13.5H239.125ZM239.625 16.125H236.5V17.125H239.625V16.125ZM236 16.625V19.75H237V16.625H236ZM236.5 19.25H233.375V20.25H236.5V19.25ZM232.875 19.75V22.875H233.875V19.75H232.875ZM233.375 22.375H227.125V23.375H233.375V22.375Z" fill="#00E676"/>
</g>
<defs>
<filter id="filter0_d" x="0.625" y="0.5" width="249.625" height="30.875" filterUnits="userSpaceOnUse" color-interpolation-filters="sRGB">
<feFlood flood-opacity="0" result="BackgroundImageFix"/>
<feColorMatrix in="SourceAlpha" type="matrix" values="0 0 0 0 0 0 0 0 0 0 0 0 0 0 0 0 0 0 127 0"/>
<feOffset dx="3" dy="4"/>
<feGaussianBlur stdDeviation="2"/>
<feColorMatrix type="matrix" values="0 0 0 0 0 0 0 0 0 0 0 0 0 0 0 0 0 0 0.25 0"/>
<feBlend mode="normal" in2="BackgroundImageFix" result="effect1_dropShadow"/>
<feBlend mode="normal" in="SourceGraphic" in2="effect1_dropShadow" result="shape"/>
</filter>
</defs>
</svg>
