<svg width="151" height="32" viewBox="0 0 151 32" fill="none" xmlns="http://www.w3.org/2000/svg">
<g filter="url(#filter0_d)">
<path d="M11.5 22.875V19.75H8.375V16.625H5.25V13.5H2.125V10.375H5.25V7.25H8.375V4.125H11.5V1H17.75V4.125H14.625V7.25H11.5V10.375H8.375V13.5H11.5V16.625H14.625V19.75H17.75V22.875H11.5ZM24 22.875V1H42.75V4.125H45.875V10.375H42.75V13.5H45.875V19.75H42.75V22.875H24ZM30.25 10.375H39.625V4.125H30.25V10.375ZM30.25 19.75H39.625V13.5H30.25V19.75ZM52.125 22.875V19.75H49V16.625H52.125V13.5H64.625V10.375H52.125V7.25H67.75V10.375H70.875V22.875H52.125ZM55.25 19.75H64.625V16.625H55.25V19.75ZM77.125 22.875V19.75H74V10.375H77.125V7.25H95.875V10.375H80.25V19.75H95.875V22.875H77.125ZM99 22.875V1H105.25V13.5H111.5V10.375H114.625V7.25H120.875V10.375H117.75V13.5H114.625V16.625H117.75V19.75H120.875V22.875H114.625V19.75H111.5V16.625H105.25V22.875H99ZM127.125 22.875V19.75H130.25V16.625H133.375V13.5H136.5V10.375H133.375V7.25H130.25V4.125H127.125V1H133.375V4.125H136.5V7.25H139.625V10.375H142.75V13.5H139.625V16.625H136.5V19.75H133.375V22.875H127.125Z" fill="black"/>
<path d="M11.5 22.875H11L11.5 23.375V22.875ZM11.5 19.75H12L11.5 19.25V19.75ZM8.375 19.75H7.875L8.375 20.25V19.75ZM8.375 16.625H8.875L8.375 16.125V16.625ZM5.25 16.625H4.75L5.25 17.125V16.625ZM5.25 13.5H5.75L5.25 13V13.5ZM2.125 13.5H1.625L2.125 14V13.5ZM2.125 10.375V9.875L1.625 10.375H2.125ZM5.25 10.375V10.875L5.75 10.375H5.25ZM5.25 7.25V6.75L4.75 7.25H5.25ZM8.375 7.25V7.75L8.875 7.25H8.375ZM8.375 4.125V3.625L7.875 4.125H8.375ZM11.5 4.125V4.625L12 4.125H11.5ZM11.5 1V0.5L11 1H11.5ZM17.75 1H18.25L17.75 0.5V1ZM17.75 4.125V4.625L18.25 4.125H17.75ZM14.625 4.125V3.625L14.125 4.125H14.625ZM14.625 7.25V7.75L15.125 7.25H14.625ZM11.5 7.25V6.75L11 7.25H11.5ZM11.5 10.375V10.875L12 10.375H11.5ZM8.375 10.375V9.875L7.875 10.375H8.375ZM8.375 13.5H7.875L8.375 14V13.5ZM11.5 13.5H12L11.5 13V13.5ZM11.5 16.625H11L11.5 17.125V16.625ZM14.625 16.625H15.125L14.625 16.125V16.625ZM14.625 19.75H14.125L14.625 20.25V19.75ZM17.75 19.75H18.25L17.75 19.25V19.75ZM17.75 22.875V23.375L18.25 22.875H17.75ZM12 22.875V19.75H11V22.875H12ZM11.5 19.25H8.375V20.25H11.5V19.25ZM8.875 19.75V16.625H7.875V19.75H8.875ZM8.375 16.125H5.25V17.125H8.375V16.125ZM5.75 16.625V13.5H4.75V16.625H5.75ZM5.25 13H2.125V14H5.25V13ZM2.625 13.5V10.375H1.625V13.5H2.625ZM2.125 10.875H5.25V9.875H2.125V10.875ZM5.75 10.375V7.25H4.75V10.375H5.75ZM5.25 7.75H8.375V6.75H5.25V7.75ZM8.875 7.25V4.125H7.875V7.25H8.875ZM8.375 4.625H11.5V3.625H8.375V4.625ZM12 4.125V1H11V4.125H12ZM11.5 1.5H17.75V0.5H11.5V1.5ZM17.25 1V4.125H18.25V1H17.25ZM17.75 3.625H14.625V4.625H17.75V3.625ZM14.125 4.125V7.25H15.125V4.125H14.125ZM14.625 6.75H11.5V7.75H14.625V6.75ZM11 7.25V10.375H12V7.25H11ZM11.5 9.875H8.375V10.875H11.5V9.875ZM7.875 10.375V13.5H8.875V10.375H7.875ZM8.375 14H11.5V13H8.375V14ZM11 13.5V16.625H12V13.5H11ZM11.5 17.125H14.625V16.125H11.5V17.125ZM14.125 16.625V19.75H15.125V16.625H14.125ZM14.625 20.25H17.75V19.25H14.625V20.25ZM17.25 19.75V22.875H18.25V19.75H17.25ZM17.75 22.375H11.5V23.375H17.75V22.375ZM24 22.875H23.5L24 23.375V22.875ZM24 1V0.5L23.5 1H24ZM42.75 1H43.25L42.75 0.5V1ZM42.75 4.125H42.25L42.75 4.625V4.125ZM45.875 4.125H46.375L45.875 3.625V4.125ZM45.875 10.375V10.875L46.375 10.375H45.875ZM42.75 10.375V9.875L42.25 10.375H42.75ZM42.75 13.5H42.25L42.75 14V13.5ZM45.875 13.5H46.375L45.875 13V13.5ZM45.875 19.75V20.25L46.375 19.75H45.875ZM42.75 19.75V19.25L42.25 19.75H42.75ZM42.75 22.875V23.375L43.25 22.875H42.75ZM30.25 10.375H29.75L30.25 10.875V10.375ZM39.625 10.375V10.875L40.125 10.375H39.625ZM39.625 4.125H40.125L39.625 3.625V4.125ZM30.25 4.125V3.625L29.75 4.125H30.25ZM30.25 19.75H29.75L30.25 20.25V19.75ZM39.625 19.75V20.25L40.125 19.75H39.625ZM39.625 13.5H40.125L39.625 13V13.5ZM30.25 13.5V13L29.75 13.5H30.25ZM24.5 22.875V1H23.5V22.875H24.5ZM24 1.5H42.75V0.5H24V1.5ZM42.25 1V4.125H43.25V1H42.25ZM42.75 4.625H45.875V3.625H42.75V4.625ZM45.375 4.125V10.375H46.375V4.125H45.375ZM45.875 9.875H42.75V10.875H45.875V9.875ZM42.25 10.375V13.5H43.25V10.375H42.25ZM42.75 14H45.875V13H42.75V14ZM45.375 13.5V19.75H46.375V13.5H45.375ZM45.875 19.25H42.75V20.25H45.875V19.25ZM42.25 19.75V22.875H43.25V19.75H42.25ZM42.75 22.375H24V23.375H42.75V22.375ZM30.25 10.875H39.625V9.875H30.25V10.875ZM40.125 10.375V4.125H39.125V10.375H40.125ZM39.625 3.625H30.25V4.625H39.625V3.625ZM29.75 4.125V10.375H30.75V4.125H29.75ZM30.25 20.25H39.625V19.25H30.25V20.25ZM40.125 19.75V13.5H39.125V19.75H40.125ZM39.625 13H30.25V14H39.625V13ZM29.75 13.5V19.75H30.75V13.5H29.75ZM52.125 22.875H51.625L52.125 23.375V22.875ZM52.125 19.75H52.625L52.125 19.25V19.75ZM49 19.75H48.5L49 20.25V19.75ZM49 16.625V16.125L48.5 16.625H49ZM52.125 16.625V17.125L52.625 16.625H52.125ZM52.125 13.5V13L51.625 13.5H52.125ZM64.625 13.5V14L65.125 13.5H64.625ZM64.625 10.375H65.125L64.625 9.875V10.375ZM52.125 10.375H51.625L52.125 10.875V10.375ZM52.125 7.25V6.75L51.625 7.25H52.125ZM67.75 7.25H68.25L67.75 6.75V7.25ZM67.75 10.375H67.25L67.75 10.875V10.375ZM70.875 10.375H71.375L70.875 9.875V10.375ZM70.875 22.875V23.375L71.375 22.875H70.875ZM55.25 19.75H54.75L55.25 20.25V19.75ZM64.625 19.75V20.25L65.125 19.75H64.625ZM64.625 16.625H65.125L64.625 16.125V16.625ZM55.25 16.625V16.125L54.75 16.625H55.25ZM52.625 22.875V19.75H51.625V22.875H52.625ZM52.125 19.25H49V20.25H52.125V19.25ZM49.5 19.75V16.625H48.5V19.75H49.5ZM49 17.125H52.125V16.125H49V17.125ZM52.625 16.625V13.5H51.625V16.625H52.625ZM52.125 14H64.625V13H52.125V14ZM65.125 13.5V10.375H64.125V13.5H65.125ZM64.625 9.875H52.125V10.875H64.625V9.875ZM52.625 10.375V7.25H51.625V10.375H52.625ZM52.125 7.75H67.75V6.75H52.125V7.75ZM67.25 7.25V10.375H68.25V7.25H67.25ZM67.75 10.875H70.875V9.875H67.75V10.875ZM70.375 10.375V22.875H71.375V10.375H70.375ZM70.875 22.375H52.125V23.375H70.875V22.375ZM55.25 20.25H64.625V19.25H55.25V20.25ZM65.125 19.75V16.625H64.125V19.75H65.125ZM64.625 16.125H55.25V17.125H64.625V16.125ZM54.75 16.625V19.75H55.75V16.625H54.75ZM77.125 22.875H76.625L77.125 23.375V22.875ZM77.125 19.75H77.625L77.125 19.25V19.75ZM74 19.75H73.5L74 20.25V19.75ZM74 10.375V9.875L73.5 10.375H74ZM77.125 10.375V10.875L77.625 10.375H77.125ZM77.125 7.25V6.75L76.625 7.25H77.125ZM95.875 7.25H96.375L95.875 6.75V7.25ZM95.875 10.375V10.875L96.375 10.375H95.875ZM80.25 10.375V9.875L79.75 10.375H80.25ZM80.25 19.75H79.75L80.25 20.25V19.75ZM95.875 19.75H96.375L95.875 19.25V19.75ZM95.875 22.875V23.375L96.375 22.875H95.875ZM77.625 22.875V19.75H76.625V22.875H77.625ZM77.125 19.25H74V20.25H77.125V19.25ZM74.5 19.75V10.375H73.5V19.75H74.5ZM74 10.875H77.125V9.875H74V10.875ZM77.625 10.375V7.25H76.625V10.375H77.625ZM77.125 7.75H95.875V6.75H77.125V7.75ZM95.375 7.25V10.375H96.375V7.25H95.375ZM95.875 9.875H80.25V10.875H95.875V9.875ZM79.75 10.375V19.75H80.75V10.375H79.75ZM80.25 20.25H95.875V19.25H80.25V20.25ZM95.375 19.75V22.875H96.375V19.75H95.375ZM95.875 22.375H77.125V23.375H95.875V22.375ZM99 22.875H98.5L99 23.375V22.875ZM99 1V0.5L98.5 1H99ZM105.25 1H105.75L105.25 0.5V1ZM105.25 13.5H104.75L105.25 14V13.5ZM111.5 13.5V14L112 13.5H111.5ZM111.5 10.375V9.875L111 10.375H111.5ZM114.625 10.375V10.875L115.125 10.375H114.625ZM114.625 7.25V6.75L114.125 7.25H114.625ZM120.875 7.25H121.375L120.875 6.75V7.25ZM120.875 10.375V10.875L121.375 10.375H120.875ZM117.75 10.375V9.875L117.25 10.375H117.75ZM117.75 13.5V14L118.25 13.5H117.75ZM114.625 13.5V13L114.125 13.5H114.625ZM114.625 16.625H114.125L114.625 17.125V16.625ZM117.75 16.625H118.25L117.75 16.125V16.625ZM117.75 19.75H117.25L117.75 20.25V19.75ZM120.875 19.75H121.375L120.875 19.25V19.75ZM120.875 22.875V23.375L121.375 22.875H120.875ZM114.625 22.875H114.125L114.625 23.375V22.875ZM114.625 19.75H115.125L114.625 19.25V19.75ZM111.5 19.75H111L111.5 20.25V19.75ZM111.5 16.625H112L111.5 16.125V16.625ZM105.25 16.625V16.125L104.75 16.625H105.25ZM105.25 22.875V23.375L105.75 22.875H105.25ZM99.5 22.875V1H98.5V22.875H99.5ZM99 1.5H105.25V0.5H99V1.5ZM104.75 1V13.5H105.75V1H104.75ZM105.25 14H111.5V13H105.25V14ZM112 13.5V10.375H111V13.5H112ZM111.5 10.875H114.625V9.875H111.5V10.875ZM115.125 10.375V7.25H114.125V10.375H115.125ZM114.625 7.75H120.875V6.75H114.625V7.75ZM120.375 7.25V10.375H121.375V7.25H120.375ZM120.875 9.875H117.75V10.875H120.875V9.875ZM117.25 10.375V13.5H118.25V10.375H117.25ZM117.75 13H114.625V14H117.75V13ZM114.125 13.5V16.625H115.125V13.5H114.125ZM114.625 17.125H117.75V16.125H114.625V17.125ZM117.25 16.625V19.75H118.25V16.625H117.25ZM117.75 20.25H120.875V19.25H117.75V20.25ZM120.375 19.75V22.875H121.375V19.75H120.375ZM120.875 22.375H114.625V23.375H120.875V22.375ZM115.125 22.875V19.75H114.125V22.875H115.125ZM114.625 19.25H111.5V20.25H114.625V19.25ZM112 19.75V16.625H111V19.75H112ZM111.5 16.125H105.25V17.125H111.5V16.125ZM104.75 16.625V22.875H105.75V16.625H104.75ZM105.25 22.375H99V23.375H105.25V22.375ZM127.125 22.875H126.625L127.125 23.375V22.875ZM127.125 19.75V19.25L126.625 19.75H127.125ZM130.25 19.75V20.25L130.75 19.75H130.25ZM130.25 16.625V16.125L129.75 16.625H130.25ZM133.375 16.625V17.125L133.875 16.625H133.375ZM133.375 13.5V13L132.875 13.5H133.375ZM136.5 13.5V14L137 13.5H136.5ZM136.5 10.375H137L136.5 9.875V10.375ZM133.375 10.375H132.875L133.375 10.875V10.375ZM133.375 7.25H133.875L133.375 6.75V7.25ZM130.25 7.25H129.75L130.25 7.75V7.25ZM130.25 4.125H130.75L130.25 3.625V4.125ZM127.125 4.125H126.625L127.125 4.625V4.125ZM127.125 1V0.5L126.625 1H127.125ZM133.375 1H133.875L133.375 0.5V1ZM133.375 4.125H132.875L133.375 4.625V4.125ZM136.5 4.125H137L136.5 3.625V4.125ZM136.5 7.25H136L136.5 7.75V7.25ZM139.625 7.25H140.125L139.625 6.75V7.25ZM139.625 10.375H139.125L139.625 10.875V10.375ZM142.75 10.375H143.25L142.75 9.875V10.375ZM142.75 13.5V14L143.25 13.5H142.75ZM139.625 13.5V13L139.125 13.5H139.625ZM139.625 16.625V17.125L140.125 16.625H139.625ZM136.5 16.625V16.125L136 16.625H136.5ZM136.5 19.75V20.25L137 19.75H136.5ZM133.375 19.75V19.25L132.875 19.75H133.375ZM133.375 22.875V23.375L133.875 22.875H133.375ZM127.625 22.875V19.75H126.625V22.875H127.625ZM127.125 20.25H130.25V19.25H127.125V20.25ZM130.75 19.75V16.625H129.75V19.75H130.75ZM130.25 17.125H133.375V16.125H130.25V17.125ZM133.875 16.625V13.5H132.875V16.625H133.875ZM133.375 14H136.5V13H133.375V14ZM137 13.5V10.375H136V13.5H137ZM136.5 9.875H133.375V10.875H136.5V9.875ZM133.875 10.375V7.25H132.875V10.375H133.875ZM133.375 6.75H130.25V7.75H133.375V6.75ZM130.75 7.25V4.125H129.75V7.25H130.75ZM130.25 3.625H127.125V4.625H130.25V3.625ZM127.625 4.125V1H126.625V4.125H127.625ZM127.125 1.5H133.375V0.5H127.125V1.5ZM132.875 1V4.125H133.875V1H132.875ZM133.375 4.625H136.5V3.625H133.375V4.625ZM136 4.125V7.25H137V4.125H136ZM136.5 7.75H139.625V6.75H136.5V7.75ZM139.125 7.25V10.375H140.125V7.25H139.125ZM139.625 10.875H142.75V9.875H139.625V10.875ZM142.25 10.375V13.5H143.25V10.375H142.25ZM142.75 13H139.625V14H142.75V13ZM139.125 13.5V16.625H140.125V13.5H139.125ZM139.625 16.125H136.5V17.125H139.625V16.125ZM136 16.625V19.75H137V16.625H136ZM136.5 19.25H133.375V20.25H136.5V19.25ZM132.875 19.75V22.875H133.875V19.75H132.875ZM133.375 22.375H127.125V23.375H133.375V22.375Z" fill="#00E676"/>
</g>
<defs>
<filter id="filter0_d" x="0.625" y="0.5" width="149.625" height="30.875" filterUnits="userSpaceOnUse" color-interpolation-filters="sRGB">
<feFlood flood-opacity="0" result="BackgroundImageFix"/>
<feColorMatrix in="SourceAlpha" type="matrix" values="0 0 0 0 0 0 0 0 0 0 0 0 0 0 0 0 0 0 127 0"/>
<feOffset dx="3" dy="4"/>
<feGaussianBlur stdDeviation="2"/>
<feColorMatrix type="matrix" values="0 0 0 0 0 0 0 0 0 0 0 0 0 0 0 0 0 0 0.25 0"/>
<feBlend mode="normal" in2="BackgroundImageFix" result="effect1_dropShadow"/>
<feBlend mode="normal" in="SourceGraphic" in2="effect1_dropShadow" result="shape"/>
</filter>
</defs>
</svg>
