<svg width="176" height="32" viewBox="0 0 176 32" fill="none" xmlns="http://www.w3.org/2000/svg">
<g filter="url(#filter0_d)">
<path d="M11.5 22.875V19.75H8.375V16.625H5.25V13.5H2.125V10.375H5.25V7.25H8.375V4.125H11.5V1H17.75V4.125H14.625V7.25H11.5V10.375H8.375V13.5H11.5V16.625H14.625V19.75H17.75V22.875H11.5ZM24 22.875V1H45.875V4.125H30.25V10.375H42.75V13.5H30.25V22.875H24ZM58.375 10.375H61.5V13.5H58.375V22.875H52.125V7.25H58.375V10.375ZM70.875 7.25V10.375H61.5V7.25H70.875ZM77.125 22.875V19.75H74V10.375H77.125V7.25H92.75V10.375H95.875V19.75H92.75V22.875H77.125ZM80.25 19.75H89.625V10.375H80.25V19.75ZM99 22.875V7.25H117.75V10.375H120.875V22.875H114.625V10.375H105.25V22.875H99ZM133.375 22.875V10.375H127.125V7.25H133.375V1H139.625V7.25H145.875V10.375H139.625V22.875H133.375ZM152.125 22.875V19.75H155.25V16.625H158.375V13.5H161.5V10.375H158.375V7.25H155.25V4.125H152.125V1H158.375V4.125H161.5V7.25H164.625V10.375H167.75V13.5H164.625V16.625H161.5V19.75H158.375V22.875H152.125Z" fill="black"/>
<path d="M11.5 22.875H11L11.5 23.375V22.875ZM11.5 19.75H12L11.5 19.25V19.75ZM8.375 19.75H7.875L8.375 20.25V19.75ZM8.375 16.625H8.875L8.375 16.125V16.625ZM5.25 16.625H4.75L5.25 17.125V16.625ZM5.25 13.5H5.75L5.25 13V13.5ZM2.125 13.5H1.625L2.125 14V13.5ZM2.125 10.375V9.875L1.625 10.375H2.125ZM5.25 10.375V10.875L5.75 10.375H5.25ZM5.25 7.25V6.75L4.75 7.25H5.25ZM8.375 7.25V7.75L8.875 7.25H8.375ZM8.375 4.125V3.625L7.875 4.125H8.375ZM11.5 4.125V4.625L12 4.125H11.5ZM11.5 1V0.5L11 1H11.5ZM17.75 1H18.25L17.75 0.5V1ZM17.75 4.125V4.625L18.25 4.125H17.75ZM14.625 4.125V3.625L14.125 4.125H14.625ZM14.625 7.25V7.75L15.125 7.25H14.625ZM11.5 7.25V6.75L11 7.25H11.5ZM11.5 10.375V10.875L12 10.375H11.5ZM8.375 10.375V9.875L7.875 10.375H8.375ZM8.375 13.5H7.875L8.375 14V13.5ZM11.5 13.5H12L11.5 13V13.5ZM11.5 16.625H11L11.5 17.125V16.625ZM14.625 16.625H15.125L14.625 16.125V16.625ZM14.625 19.75H14.125L14.625 20.25V19.75ZM17.75 19.75H18.25L17.75 19.25V19.75ZM17.75 22.875V23.375L18.25 22.875H17.75ZM12 22.875V19.75H11V22.875H12ZM11.5 19.25H8.375V20.25H11.5V19.25ZM8.875 19.75V16.625H7.875V19.75H8.875ZM8.375 16.125H5.25V17.125H8.375V16.125ZM5.75 16.625V13.5H4.75V16.625H5.75ZM5.25 13H2.125V14H5.25V13ZM2.625 13.5V10.375H1.625V13.5H2.625ZM2.125 10.875H5.25V9.875H2.125V10.875ZM5.75 10.375V7.25H4.75V10.375H5.75ZM5.25 7.75H8.375V6.75H5.25V7.75ZM8.875 7.25V4.125H7.875V7.25H8.875ZM8.375 4.625H11.5V3.625H8.375V4.625ZM12 4.125V1H11V4.125H12ZM11.5 1.5H17.75V0.5H11.5V1.5ZM17.25 1V4.125H18.25V1H17.25ZM17.75 3.625H14.625V4.625H17.75V3.625ZM14.125 4.125V7.25H15.125V4.125H14.125ZM14.625 6.75H11.5V7.75H14.625V6.75ZM11 7.25V10.375H12V7.25H11ZM11.5 9.875H8.375V10.875H11.5V9.875ZM7.875 10.375V13.5H8.875V10.375H7.875ZM8.375 14H11.5V13H8.375V14ZM11 13.5V16.625H12V13.5H11ZM11.5 17.125H14.625V16.125H11.5V17.125ZM14.125 16.625V19.75H15.125V16.625H14.125ZM14.625 20.25H17.75V19.25H14.625V20.25ZM17.25 19.75V22.875H18.25V19.75H17.25ZM17.75 22.375H11.5V23.375H17.75V22.375ZM24 22.875H23.5L24 23.375V22.875ZM24 1V0.5L23.5 1H24ZM45.875 1H46.375L45.875 0.5V1ZM45.875 4.125V4.625L46.375 4.125H45.875ZM30.25 4.125V3.625L29.75 4.125H30.25ZM30.25 10.375H29.75L30.25 10.875V10.375ZM42.75 10.375H43.25L42.75 9.875V10.375ZM42.75 13.5V14L43.25 13.5H42.75ZM30.25 13.5V13L29.75 13.5H30.25ZM30.25 22.875V23.375L30.75 22.875H30.25ZM24.5 22.875V1H23.5V22.875H24.5ZM24 1.5H45.875V0.5H24V1.5ZM45.375 1V4.125H46.375V1H45.375ZM45.875 3.625H30.25V4.625H45.875V3.625ZM29.75 4.125V10.375H30.75V4.125H29.75ZM30.25 10.875H42.75V9.875H30.25V10.875ZM42.25 10.375V13.5H43.25V10.375H42.25ZM42.75 13H30.25V14H42.75V13ZM29.75 13.5V22.875H30.75V13.5H29.75ZM30.25 22.375H24V23.375H30.25V22.375ZM58.375 10.375H57.875L58.375 10.875V10.375ZM61.5 10.375H62L61.5 9.875V10.375ZM61.5 13.5V14L62 13.5H61.5ZM58.375 13.5V13L57.875 13.5H58.375ZM58.375 22.875V23.375L58.875 22.875H58.375ZM52.125 22.875H51.625L52.125 23.375V22.875ZM52.125 7.25V6.75L51.625 7.25H52.125ZM58.375 7.25H58.875L58.375 6.75V7.25ZM70.875 7.25H71.375L70.875 6.75V7.25ZM70.875 10.375V10.875L71.375 10.375H70.875ZM61.5 10.375H61L61.5 10.875V10.375ZM61.5 7.25V6.75L61 7.25H61.5ZM58.375 10.875H61.5V9.875H58.375V10.875ZM61 10.375V13.5H62V10.375H61ZM61.5 13H58.375V14H61.5V13ZM57.875 13.5V22.875H58.875V13.5H57.875ZM58.375 22.375H52.125V23.375H58.375V22.375ZM52.625 22.875V7.25H51.625V22.875H52.625ZM52.125 7.75H58.375V6.75H52.125V7.75ZM57.875 7.25V10.375H58.875V7.25H57.875ZM70.375 7.25V10.375H71.375V7.25H70.375ZM70.875 9.875H61.5V10.875H70.875V9.875ZM62 10.375V7.25H61V10.375H62ZM61.5 7.75H70.875V6.75H61.5V7.75ZM77.125 22.875H76.625L77.125 23.375V22.875ZM77.125 19.75H77.625L77.125 19.25V19.75ZM74 19.75H73.5L74 20.25V19.75ZM74 10.375V9.875L73.5 10.375H74ZM77.125 10.375V10.875L77.625 10.375H77.125ZM77.125 7.25V6.75L76.625 7.25H77.125ZM92.75 7.25H93.25L92.75 6.75V7.25ZM92.75 10.375H92.25L92.75 10.875V10.375ZM95.875 10.375H96.375L95.875 9.875V10.375ZM95.875 19.75V20.25L96.375 19.75H95.875ZM92.75 19.75V19.25L92.25 19.75H92.75ZM92.75 22.875V23.375L93.25 22.875H92.75ZM80.25 19.75H79.75L80.25 20.25V19.75ZM89.625 19.75V20.25L90.125 19.75H89.625ZM89.625 10.375H90.125L89.625 9.875V10.375ZM80.25 10.375V9.875L79.75 10.375H80.25ZM77.625 22.875V19.75H76.625V22.875H77.625ZM77.125 19.25H74V20.25H77.125V19.25ZM74.5 19.75V10.375H73.5V19.75H74.5ZM74 10.875H77.125V9.875H74V10.875ZM77.625 10.375V7.25H76.625V10.375H77.625ZM77.125 7.75H92.75V6.75H77.125V7.75ZM92.25 7.25V10.375H93.25V7.25H92.25ZM92.75 10.875H95.875V9.875H92.75V10.875ZM95.375 10.375V19.75H96.375V10.375H95.375ZM95.875 19.25H92.75V20.25H95.875V19.25ZM92.25 19.75V22.875H93.25V19.75H92.25ZM92.75 22.375H77.125V23.375H92.75V22.375ZM80.25 20.25H89.625V19.25H80.25V20.25ZM90.125 19.75V10.375H89.125V19.75H90.125ZM89.625 9.875H80.25V10.875H89.625V9.875ZM79.75 10.375V19.75H80.75V10.375H79.75ZM99 22.875H98.5L99 23.375V22.875ZM99 7.25V6.75L98.5 7.25H99ZM117.75 7.25H118.25L117.75 6.75V7.25ZM117.75 10.375H117.25L117.75 10.875V10.375ZM120.875 10.375H121.375L120.875 9.875V10.375ZM120.875 22.875V23.375L121.375 22.875H120.875ZM114.625 22.875H114.125L114.625 23.375V22.875ZM114.625 10.375H115.125L114.625 9.875V10.375ZM105.25 10.375V9.875L104.75 10.375H105.25ZM105.25 22.875V23.375L105.75 22.875H105.25ZM99.5 22.875V7.25H98.5V22.875H99.5ZM99 7.75H117.75V6.75H99V7.75ZM117.25 7.25V10.375H118.25V7.25H117.25ZM117.75 10.875H120.875V9.875H117.75V10.875ZM120.375 10.375V22.875H121.375V10.375H120.375ZM120.875 22.375H114.625V23.375H120.875V22.375ZM115.125 22.875V10.375H114.125V22.875H115.125ZM114.625 9.875H105.25V10.875H114.625V9.875ZM104.75 10.375V22.875H105.75V10.375H104.75ZM105.25 22.375H99V23.375H105.25V22.375ZM133.375 22.875H132.875L133.375 23.375V22.875ZM133.375 10.375H133.875L133.375 9.875V10.375ZM127.125 10.375H126.625L127.125 10.875V10.375ZM127.125 7.25V6.75L126.625 7.25H127.125ZM133.375 7.25V7.75L133.875 7.25H133.375ZM133.375 1V0.5L132.875 1H133.375ZM139.625 1H140.125L139.625 0.5V1ZM139.625 7.25H139.125L139.625 7.75V7.25ZM145.875 7.25H146.375L145.875 6.75V7.25ZM145.875 10.375V10.875L146.375 10.375H145.875ZM139.625 10.375V9.875L139.125 10.375H139.625ZM139.625 22.875V23.375L140.125 22.875H139.625ZM133.875 22.875V10.375H132.875V22.875H133.875ZM133.375 9.875H127.125V10.875H133.375V9.875ZM127.625 10.375V7.25H126.625V10.375H127.625ZM127.125 7.75H133.375V6.75H127.125V7.75ZM133.875 7.25V1H132.875V7.25H133.875ZM133.375 1.5H139.625V0.5H133.375V1.5ZM139.125 1V7.25H140.125V1H139.125ZM139.625 7.75H145.875V6.75H139.625V7.75ZM145.375 7.25V10.375H146.375V7.25H145.375ZM145.875 9.875H139.625V10.875H145.875V9.875ZM139.125 10.375V22.875H140.125V10.375H139.125ZM139.625 22.375H133.375V23.375H139.625V22.375ZM152.125 22.875H151.625L152.125 23.375V22.875ZM152.125 19.75V19.25L151.625 19.75H152.125ZM155.25 19.75V20.25L155.75 19.75H155.25ZM155.25 16.625V16.125L154.75 16.625H155.25ZM158.375 16.625V17.125L158.875 16.625H158.375ZM158.375 13.5V13L157.875 13.5H158.375ZM161.5 13.5V14L162 13.5H161.5ZM161.5 10.375H162L161.5 9.875V10.375ZM158.375 10.375H157.875L158.375 10.875V10.375ZM158.375 7.25H158.875L158.375 6.75V7.25ZM155.25 7.25H154.75L155.25 7.75V7.25ZM155.25 4.125H155.75L155.25 3.625V4.125ZM152.125 4.125H151.625L152.125 4.625V4.125ZM152.125 1V0.5L151.625 1H152.125ZM158.375 1H158.875L158.375 0.5V1ZM158.375 4.125H157.875L158.375 4.625V4.125ZM161.5 4.125H162L161.5 3.625V4.125ZM161.5 7.25H161L161.5 7.75V7.25ZM164.625 7.25H165.125L164.625 6.75V7.25ZM164.625 10.375H164.125L164.625 10.875V10.375ZM167.75 10.375H168.25L167.75 9.875V10.375ZM167.75 13.5V14L168.25 13.5H167.75ZM164.625 13.5V13L164.125 13.5H164.625ZM164.625 16.625V17.125L165.125 16.625H164.625ZM161.5 16.625V16.125L161 16.625H161.5ZM161.5 19.75V20.25L162 19.75H161.5ZM158.375 19.75V19.25L157.875 19.75H158.375ZM158.375 22.875V23.375L158.875 22.875H158.375ZM152.625 22.875V19.75H151.625V22.875H152.625ZM152.125 20.25H155.25V19.25H152.125V20.25ZM155.75 19.75V16.625H154.75V19.75H155.75ZM155.25 17.125H158.375V16.125H155.25V17.125ZM158.875 16.625V13.5H157.875V16.625H158.875ZM158.375 14H161.5V13H158.375V14ZM162 13.5V10.375H161V13.5H162ZM161.5 9.875H158.375V10.875H161.5V9.875ZM158.875 10.375V7.25H157.875V10.375H158.875ZM158.375 6.75H155.25V7.75H158.375V6.75ZM155.75 7.25V4.125H154.75V7.25H155.75ZM155.25 3.625H152.125V4.625H155.25V3.625ZM152.625 4.125V1H151.625V4.125H152.625ZM152.125 1.5H158.375V0.5H152.125V1.5ZM157.875 1V4.125H158.875V1H157.875ZM158.375 4.625H161.5V3.625H158.375V4.625ZM161 4.125V7.25H162V4.125H161ZM161.5 7.75H164.625V6.75H161.5V7.75ZM164.125 7.25V10.375H165.125V7.25H164.125ZM164.625 10.875H167.75V9.875H164.625V10.875ZM167.25 10.375V13.5H168.25V10.375H167.25ZM167.75 13H164.625V14H167.75V13ZM164.125 13.5V16.625H165.125V13.5H164.125ZM164.625 16.125H161.5V17.125H164.625V16.125ZM161 16.625V19.75H162V16.625H161ZM161.5 19.25H158.375V20.25H161.5V19.25ZM157.875 19.75V22.875H158.875V19.75H157.875ZM158.375 22.375H152.125V23.375H158.375V22.375Z" fill="#00E676"/>
</g>
<defs>
<filter id="filter0_d" x="0.625" y="0.5" width="174.625" height="30.875" filterUnits="userSpaceOnUse" color-interpolation-filters="sRGB">
<feFlood flood-opacity="0" result="BackgroundImageFix"/>
<feColorMatrix in="SourceAlpha" type="matrix" values="0 0 0 0 0 0 0 0 0 0 0 0 0 0 0 0 0 0 127 0"/>
<feOffset dx="3" dy="4"/>
<feGaussianBlur stdDeviation="2"/>
<feColorMatrix type="matrix" values="0 0 0 0 0 0 0 0 0 0 0 0 0 0 0 0 0 0 0.25 0"/>
<feBlend mode="normal" in2="BackgroundImageFix" result="effect1_dropShadow"/>
<feBlend mode="normal" in="SourceGraphic" in2="effect1_dropShadow" result="shape"/>
</filter>
</defs>
</svg>
