<svg width="391" height="39" viewBox="0 0 391 39" fill="none" xmlns="http://www.w3.org/2000/svg">
<g filter="url(#filter0_d)">
<path d="M14.375 29.9062V25.8125H10.2813V21.7187H6.1875V17.625H2.09375V13.5312H6.1875V9.4375H10.2813V5.34375H14.375V1.25H22.5625V5.34375H18.4688V9.4375H14.375V13.5312H10.2813V17.625H14.375V21.7187H18.4688V25.8125H22.5625V29.9062H14.375ZM30.75 29.9062V1.25H38.9375V13.5312H51.2188V1.25H59.4063V29.9062H51.2188V17.625H38.9375V29.9062H30.75ZM63.5 29.9062V9.4375H67.5938V5.34375H71.6875V1.25H83.9688V5.34375H88.0625V9.4375H92.1563V29.9062H83.9688V21.7187H71.6875V29.9062H63.5ZM71.6875 17.625H83.9688V9.4375H79.875V5.34375H75.7813V9.4375H71.6875V17.625ZM96.25 29.9062V1.25H120.813V5.34375H124.906V17.625H116.719V21.7187H120.813V25.8125H124.906V29.9062H112.625V25.8125H108.531V21.7187H104.438V29.9062H96.25ZM104.438 17.625H112.625V13.5312H116.719V5.34375H104.438V17.625ZM129 29.9062V1.25H149.469V5.34375H153.563V9.4375H157.656V21.7187H153.563V25.8125H149.469V29.9062H129ZM137.188 25.8125H145.375V21.7187H149.469V9.4375H145.375V5.34375H137.188V25.8125ZM198.594 29.9062V25.8125H194.5V21.7187H202.688V25.8125H214.969V17.625H198.594V13.5312H194.5V5.34375H198.594V1.25H219.063V5.34375H223.156V9.4375H214.969V5.34375H202.688V13.5312H219.063V17.625H223.156V25.8125H219.063V29.9062H198.594ZM227.25 29.9062V1.25H235.438V13.5312H239.531V9.4375H243.625V5.34375H247.719V1.25H255.906V5.34375H251.813V9.4375H247.719V13.5312H243.625V17.625H247.719V21.7187H251.813V25.8125H255.906V29.9062H243.625V25.8125H239.531V21.7187H235.438V29.9062H227.25ZM264.094 29.9062V25.8125H272.281V5.34375H264.094V1.25H288.656V5.34375H280.469V25.8125H288.656V29.9062H264.094ZM296.844 29.9062V1.25H305.031V25.8125H321.406V29.9062H296.844ZM329.594 29.9062V1.25H337.781V25.8125H354.156V29.9062H329.594ZM362.344 29.9062V25.8125H366.438V21.7187H370.531V17.625H374.625V13.5312H370.531V9.4375H366.438V5.34375H362.344V1.25H370.531V5.34375H374.625V9.4375H378.719V13.5312H382.813V17.625H378.719V21.7187H374.625V25.8125H370.531V29.9062H362.344Z" fill="black"/>
<path d="M14.375 29.9062H13.375L14.375 30.9062V29.9062ZM14.375 25.8125H15.375L14.375 24.8125V25.8125ZM10.2813 25.8125H9.28125L10.2813 26.8125V25.8125ZM10.2813 21.7187H11.2813L10.2813 20.7187V21.7187ZM6.1875 21.7187H5.1875L6.1875 22.7187V21.7187ZM6.1875 17.625H7.1875L6.1875 16.625V17.625ZM2.09375 17.625H1.09375L2.09375 18.625V17.625ZM2.09375 13.5312V12.5312L1.09375 13.5312H2.09375ZM6.1875 13.5312V14.5312L7.1875 13.5312H6.1875ZM6.1875 9.4375V8.4375L5.1875 9.4375H6.1875ZM10.2813 9.4375V10.4375L11.2813 9.4375H10.2813ZM10.2813 5.34375V4.34375L9.28125 5.34375H10.2813ZM14.375 5.34375V6.34375L15.375 5.34375H14.375ZM14.375 1.25V0.25L13.375 1.25H14.375ZM22.5625 1.25H23.5625L22.5625 0.25V1.25ZM22.5625 5.34375V6.34375L23.5625 5.34375H22.5625ZM18.4688 5.34375V4.34375L17.4688 5.34375H18.4688ZM18.4688 9.4375V10.4375L19.4688 9.4375H18.4688ZM14.375 9.4375V8.4375L13.375 9.4375H14.375ZM14.375 13.5312V14.5312L15.375 13.5312H14.375ZM10.2813 13.5312V12.5312L9.28125 13.5312H10.2813ZM10.2813 17.625H9.28125L10.2813 18.625V17.625ZM14.375 17.625H15.375L14.375 16.625V17.625ZM14.375 21.7187H13.375L14.375 22.7187V21.7187ZM18.4688 21.7187H19.4688L18.4688 20.7187V21.7187ZM18.4688 25.8125H17.4688L18.4688 26.8125V25.8125ZM22.5625 25.8125H23.5625L22.5625 24.8125V25.8125ZM22.5625 29.9062V30.9062L23.5625 29.9062H22.5625ZM15.375 29.9062V25.8125H13.375V29.9062H15.375ZM14.375 24.8125H10.2813V26.8125H14.375V24.8125ZM11.2813 25.8125V21.7187H9.28125V25.8125H11.2813ZM10.2813 20.7187H6.1875V22.7187H10.2813V20.7187ZM7.1875 21.7187V17.625H5.1875V21.7187H7.1875ZM6.1875 16.625H2.09375V18.625H6.1875V16.625ZM3.09375 17.625V13.5312H1.09375V17.625H3.09375ZM2.09375 14.5312H6.1875V12.5312H2.09375V14.5312ZM7.1875 13.5312V9.4375H5.1875V13.5312H7.1875ZM6.1875 10.4375H10.2813V8.4375H6.1875V10.4375ZM11.2813 9.4375V5.34375H9.28125V9.4375H11.2813ZM10.2813 6.34375H14.375V4.34375H10.2813V6.34375ZM15.375 5.34375V1.25H13.375V5.34375H15.375ZM14.375 2.25H22.5625V0.25H14.375V2.25ZM21.5625 1.25V5.34375H23.5625V1.25H21.5625ZM22.5625 4.34375H18.4688V6.34375H22.5625V4.34375ZM17.4688 5.34375V9.4375H19.4688V5.34375H17.4688ZM18.4688 8.4375H14.375V10.4375H18.4688V8.4375ZM13.375 9.4375V13.5312H15.375V9.4375H13.375ZM14.375 12.5312H10.2813V14.5312H14.375V12.5312ZM9.28125 13.5312V17.625H11.2813V13.5312H9.28125ZM10.2813 18.625H14.375V16.625H10.2813V18.625ZM13.375 17.625V21.7187H15.375V17.625H13.375ZM14.375 22.7187H18.4688V20.7187H14.375V22.7187ZM17.4688 21.7187V25.8125H19.4688V21.7187H17.4688ZM18.4688 26.8125H22.5625V24.8125H18.4688V26.8125ZM21.5625 25.8125V29.9062H23.5625V25.8125H21.5625ZM22.5625 28.9062H14.375V30.9062H22.5625V28.9062ZM30.75 29.9062H29.75L30.75 30.9062V29.9062ZM30.75 1.25V0.25L29.75 1.25H30.75ZM38.9375 1.25H39.9375L38.9375 0.25V1.25ZM38.9375 13.5312H37.9375L38.9375 14.5312V13.5312ZM51.2188 13.5312V14.5312L52.2188 13.5312H51.2188ZM51.2188 1.25V0.25L50.2188 1.25H51.2188ZM59.4063 1.25H60.4063L59.4063 0.25V1.25ZM59.4063 29.9062V30.9062L60.4063 29.9062H59.4063ZM51.2188 29.9062H50.2188L51.2188 30.9062V29.9062ZM51.2188 17.625H52.2188L51.2188 16.625V17.625ZM38.9375 17.625V16.625L37.9375 17.625H38.9375ZM38.9375 29.9062V30.9062L39.9375 29.9062H38.9375ZM31.75 29.9062V1.25H29.75V29.9062H31.75ZM30.75 2.25H38.9375V0.25H30.75V2.25ZM37.9375 1.25V13.5312H39.9375V1.25H37.9375ZM38.9375 14.5312H51.2188V12.5312H38.9375V14.5312ZM52.2188 13.5312V1.25H50.2188V13.5312H52.2188ZM51.2188 2.25H59.4063V0.25H51.2188V2.25ZM58.4063 1.25V29.9062H60.4063V1.25H58.4063ZM59.4063 28.9062H51.2188V30.9062H59.4063V28.9062ZM52.2188 29.9062V17.625H50.2188V29.9062H52.2188ZM51.2188 16.625H38.9375V18.625H51.2188V16.625ZM37.9375 17.625V29.9062H39.9375V17.625H37.9375ZM38.9375 28.9062H30.75V30.9062H38.9375V28.9062ZM63.5 29.9062H62.5L63.5 30.9062V29.9062ZM63.5 9.4375V8.4375L62.5 9.4375H63.5ZM67.5938 9.4375V10.4375L68.5938 9.4375H67.5938ZM67.5938 5.34375V4.34375L66.5938 5.34375H67.5938ZM71.6875 5.34375V6.34375L72.6875 5.34375H71.6875ZM71.6875 1.25V0.25L70.6875 1.25H71.6875ZM83.9688 1.25H84.9688L83.9688 0.25V1.25ZM83.9688 5.34375H82.9688L83.9688 6.34375V5.34375ZM88.0625 5.34375H89.0625L88.0625 4.34375V5.34375ZM88.0625 9.4375H87.0625L88.0625 10.4375V9.4375ZM92.1562 9.4375H93.1562L92.1562 8.4375V9.4375ZM92.1562 29.9062V30.9062L93.1562 29.9062H92.1562ZM83.9688 29.9062H82.9688L83.9688 30.9062V29.9062ZM83.9688 21.7187H84.9688L83.9688 20.7187V21.7187ZM71.6875 21.7187V20.7187L70.6875 21.7187H71.6875ZM71.6875 29.9062V30.9062L72.6875 29.9062H71.6875ZM71.6875 17.625H70.6875L71.6875 18.625V17.625ZM83.9688 17.625V18.625L84.9688 17.625H83.9688ZM83.9688 9.4375H84.9688L83.9688 8.4375V9.4375ZM79.875 9.4375H78.875L79.875 10.4375V9.4375ZM79.875 5.34375H80.875L79.875 4.34375V5.34375ZM75.7812 5.34375V4.34375L74.7812 5.34375H75.7812ZM75.7812 9.4375V10.4375L76.7812 9.4375H75.7812ZM71.6875 9.4375V8.4375L70.6875 9.4375H71.6875ZM64.5 29.9062V9.4375H62.5V29.9062H64.5ZM63.5 10.4375H67.5938V8.4375H63.5V10.4375ZM68.5938 9.4375V5.34375H66.5938V9.4375H68.5938ZM67.5938 6.34375H71.6875V4.34375H67.5938V6.34375ZM72.6875 5.34375V1.25H70.6875V5.34375H72.6875ZM71.6875 2.25H83.9688V0.25H71.6875V2.25ZM82.9688 1.25V5.34375H84.9688V1.25H82.9688ZM83.9688 6.34375H88.0625V4.34375H83.9688V6.34375ZM87.0625 5.34375V9.4375H89.0625V5.34375H87.0625ZM88.0625 10.4375H92.1562V8.4375H88.0625V10.4375ZM91.1562 9.4375V29.9062H93.1562V9.4375H91.1562ZM92.1562 28.9062H83.9688V30.9062H92.1562V28.9062ZM84.9688 29.9062V21.7187H82.9688V29.9062H84.9688ZM83.9688 20.7187H71.6875V22.7187H83.9688V20.7187ZM70.6875 21.7187V29.9062H72.6875V21.7187H70.6875ZM71.6875 28.9062H63.5V30.9062H71.6875V28.9062ZM71.6875 18.625H83.9688V16.625H71.6875V18.625ZM84.9688 17.625V9.4375H82.9688V17.625H84.9688ZM83.9688 8.4375H79.875V10.4375H83.9688V8.4375ZM80.875 9.4375V5.34375H78.875V9.4375H80.875ZM79.875 4.34375H75.7812V6.34375H79.875V4.34375ZM74.7812 5.34375V9.4375H76.7812V5.34375H74.7812ZM75.7812 8.4375H71.6875V10.4375H75.7812V8.4375ZM70.6875 9.4375V17.625H72.6875V9.4375H70.6875ZM96.25 29.9062H95.25L96.25 30.9062V29.9062ZM96.25 1.25V0.25L95.25 1.25H96.25ZM120.812 1.25H121.812L120.812 0.25V1.25ZM120.812 5.34375H119.812L120.812 6.34375V5.34375ZM124.906 5.34375H125.906L124.906 4.34375V5.34375ZM124.906 17.625V18.625L125.906 17.625H124.906ZM116.719 17.625V16.625L115.719 17.625H116.719ZM116.719 21.7187H115.719L116.719 22.7187V21.7187ZM120.812 21.7187H121.812L120.812 20.7187V21.7187ZM120.812 25.8125H119.812L120.812 26.8125V25.8125ZM124.906 25.8125H125.906L124.906 24.8125V25.8125ZM124.906 29.9062V30.9062L125.906 29.9062H124.906ZM112.625 29.9062H111.625L112.625 30.9062V29.9062ZM112.625 25.8125H113.625L112.625 24.8125V25.8125ZM108.531 25.8125H107.531L108.531 26.8125V25.8125ZM108.531 21.7187H109.531L108.531 20.7187V21.7187ZM104.438 21.7187V20.7187L103.438 21.7187H104.438ZM104.438 29.9062V30.9062L105.438 29.9062H104.438ZM104.438 17.625H103.438L104.438 18.625V17.625ZM112.625 17.625V18.625L113.625 17.625H112.625ZM112.625 13.5312V12.5312L111.625 13.5312H112.625ZM116.719 13.5312V14.5312L117.719 13.5312H116.719ZM116.719 5.34375H117.719L116.719 4.34375V5.34375ZM104.438 5.34375V4.34375L103.438 5.34375H104.438ZM97.25 29.9062V1.25H95.25V29.9062H97.25ZM96.25 2.25H120.812V0.25H96.25V2.25ZM119.812 1.25V5.34375H121.812V1.25H119.812ZM120.812 6.34375H124.906V4.34375H120.812V6.34375ZM123.906 5.34375V17.625H125.906V5.34375H123.906ZM124.906 16.625H116.719V18.625H124.906V16.625ZM115.719 17.625V21.7187H117.719V17.625H115.719ZM116.719 22.7187H120.812V20.7187H116.719V22.7187ZM119.812 21.7187V25.8125H121.812V21.7187H119.812ZM120.812 26.8125H124.906V24.8125H120.812V26.8125ZM123.906 25.8125V29.9062H125.906V25.8125H123.906ZM124.906 28.9062H112.625V30.9062H124.906V28.9062ZM113.625 29.9062V25.8125H111.625V29.9062H113.625ZM112.625 24.8125H108.531V26.8125H112.625V24.8125ZM109.531 25.8125V21.7187H107.531V25.8125H109.531ZM108.531 20.7187H104.438V22.7187H108.531V20.7187ZM103.438 21.7187V29.9062H105.438V21.7187H103.438ZM104.438 28.9062H96.25V30.9062H104.438V28.9062ZM104.438 18.625H112.625V16.625H104.438V18.625ZM113.625 17.625V13.5312H111.625V17.625H113.625ZM112.625 14.5312H116.719V12.5312H112.625V14.5312ZM117.719 13.5312V5.34375H115.719V13.5312H117.719ZM116.719 4.34375H104.438V6.34375H116.719V4.34375ZM103.438 5.34375V17.625H105.438V5.34375H103.438ZM129 29.9062H128L129 30.9062V29.9062ZM129 1.25V0.25L128 1.25H129ZM149.469 1.25H150.469L149.469 0.25V1.25ZM149.469 5.34375H148.469L149.469 6.34375V5.34375ZM153.562 5.34375H154.562L153.562 4.34375V5.34375ZM153.562 9.4375H152.562L153.562 10.4375V9.4375ZM157.656 9.4375H158.656L157.656 8.4375V9.4375ZM157.656 21.7187V22.7187L158.656 21.7187H157.656ZM153.562 21.7187V20.7187L152.562 21.7187H153.562ZM153.562 25.8125V26.8125L154.562 25.8125H153.562ZM149.469 25.8125V24.8125L148.469 25.8125H149.469ZM149.469 29.9062V30.9062L150.469 29.9062H149.469ZM137.188 25.8125H136.188L137.188 26.8125V25.8125ZM145.375 25.8125V26.8125L146.375 25.8125H145.375ZM145.375 21.7187V20.7187L144.375 21.7187H145.375ZM149.469 21.7187V22.7187L150.469 21.7187H149.469ZM149.469 9.4375H150.469L149.469 8.4375V9.4375ZM145.375 9.4375H144.375L145.375 10.4375V9.4375ZM145.375 5.34375H146.375L145.375 4.34375V5.34375ZM137.188 5.34375V4.34375L136.188 5.34375H137.188ZM130 29.9062V1.25H128V29.9062H130ZM129 2.25H149.469V0.25H129V2.25ZM148.469 1.25V5.34375H150.469V1.25H148.469ZM149.469 6.34375H153.562V4.34375H149.469V6.34375ZM152.562 5.34375V9.4375H154.562V5.34375H152.562ZM153.562 10.4375H157.656V8.4375H153.562V10.4375ZM156.656 9.4375V21.7187H158.656V9.4375H156.656ZM157.656 20.7187H153.562V22.7187H157.656V20.7187ZM152.562 21.7187V25.8125H154.562V21.7187H152.562ZM153.562 24.8125H149.469V26.8125H153.562V24.8125ZM148.469 25.8125V29.9062H150.469V25.8125H148.469ZM149.469 28.9062H129V30.9062H149.469V28.9062ZM137.188 26.8125H145.375V24.8125H137.188V26.8125ZM146.375 25.8125V21.7187H144.375V25.8125H146.375ZM145.375 22.7187H149.469V20.7187H145.375V22.7187ZM150.469 21.7187V9.4375H148.469V21.7187H150.469ZM149.469 8.4375H145.375V10.4375H149.469V8.4375ZM146.375 9.4375V5.34375H144.375V9.4375H146.375ZM145.375 4.34375H137.188V6.34375H145.375V4.34375ZM136.188 5.34375V25.8125H138.188V5.34375H136.188ZM198.594 29.9062H197.594L198.594 30.9062V29.9062ZM198.594 25.8125H199.594L198.594 24.8125V25.8125ZM194.5 25.8125H193.5L194.5 26.8125V25.8125ZM194.5 21.7187V20.7187L193.5 21.7187H194.5ZM202.688 21.7187H203.688L202.688 20.7187V21.7187ZM202.688 25.8125H201.688L202.688 26.8125V25.8125ZM214.969 25.8125V26.8125L215.969 25.8125H214.969ZM214.969 17.625H215.969L214.969 16.625V17.625ZM198.594 17.625H197.594L198.594 18.625V17.625ZM198.594 13.5312H199.594L198.594 12.5312V13.5312ZM194.5 13.5312H193.5L194.5 14.5312V13.5312ZM194.5 5.34375V4.34375L193.5 5.34375H194.5ZM198.594 5.34375V6.34375L199.594 5.34375H198.594ZM198.594 1.25V0.25L197.594 1.25H198.594ZM219.062 1.25H220.062L219.062 0.25V1.25ZM219.062 5.34375H218.062L219.062 6.34375V5.34375ZM223.156 5.34375H224.156L223.156 4.34375V5.34375ZM223.156 9.4375V10.4375L224.156 9.4375H223.156ZM214.969 9.4375H213.969L214.969 10.4375V9.4375ZM214.969 5.34375H215.969L214.969 4.34375V5.34375ZM202.688 5.34375V4.34375L201.688 5.34375H202.688ZM202.688 13.5312H201.688L202.688 14.5312V13.5312ZM219.062 13.5312H220.062L219.062 12.5312V13.5312ZM219.062 17.625H218.062L219.062 18.625V17.625ZM223.156 17.625H224.156L223.156 16.625V17.625ZM223.156 25.8125V26.8125L224.156 25.8125H223.156ZM219.062 25.8125V24.8125L218.062 25.8125H219.062ZM219.062 29.9062V30.9062L220.062 29.9062H219.062ZM199.594 29.9062V25.8125H197.594V29.9062H199.594ZM198.594 24.8125H194.5V26.8125H198.594V24.8125ZM195.5 25.8125V21.7187H193.5V25.8125H195.5ZM194.5 22.7187H202.688V20.7187H194.5V22.7187ZM201.688 21.7187V25.8125H203.688V21.7187H201.688ZM202.688 26.8125H214.969V24.8125H202.688V26.8125ZM215.969 25.8125V17.625H213.969V25.8125H215.969ZM214.969 16.625H198.594V18.625H214.969V16.625ZM199.594 17.625V13.5312H197.594V17.625H199.594ZM198.594 12.5312H194.5V14.5312H198.594V12.5312ZM195.5 13.5312V5.34375H193.5V13.5312H195.5ZM194.5 6.34375H198.594V4.34375H194.5V6.34375ZM199.594 5.34375V1.25H197.594V5.34375H199.594ZM198.594 2.25H219.062V0.25H198.594V2.25ZM218.062 1.25V5.34375H220.062V1.25H218.062ZM219.062 6.34375H223.156V4.34375H219.062V6.34375ZM222.156 5.34375V9.4375H224.156V5.34375H222.156ZM223.156 8.4375H214.969V10.4375H223.156V8.4375ZM215.969 9.4375V5.34375H213.969V9.4375H215.969ZM214.969 4.34375H202.688V6.34375H214.969V4.34375ZM201.688 5.34375V13.5312H203.688V5.34375H201.688ZM202.688 14.5312H219.062V12.5312H202.688V14.5312ZM218.062 13.5312V17.625H220.062V13.5312H218.062ZM219.062 18.625H223.156V16.625H219.062V18.625ZM222.156 17.625V25.8125H224.156V17.625H222.156ZM223.156 24.8125H219.062V26.8125H223.156V24.8125ZM218.062 25.8125V29.9062H220.062V25.8125H218.062ZM219.062 28.9062H198.594V30.9062H219.062V28.9062ZM227.25 29.9062H226.25L227.25 30.9062V29.9062ZM227.25 1.25V0.25L226.25 1.25H227.25ZM235.438 1.25H236.438L235.438 0.25V1.25ZM235.438 13.5312H234.438L235.438 14.5312V13.5312ZM239.531 13.5312V14.5312L240.531 13.5312H239.531ZM239.531 9.4375V8.4375L238.531 9.4375H239.531ZM243.625 9.4375V10.4375L244.625 9.4375H243.625ZM243.625 5.34375V4.34375L242.625 5.34375H243.625ZM247.719 5.34375V6.34375L248.719 5.34375H247.719ZM247.719 1.25V0.25L246.719 1.25H247.719ZM255.906 1.25H256.906L255.906 0.25V1.25ZM255.906 5.34375V6.34375L256.906 5.34375H255.906ZM251.812 5.34375V4.34375L250.812 5.34375H251.812ZM251.812 9.4375V10.4375L252.812 9.4375H251.812ZM247.719 9.4375V8.4375L246.719 9.4375H247.719ZM247.719 13.5312V14.5312L248.719 13.5312H247.719ZM243.625 13.5312V12.5312L242.625 13.5312H243.625ZM243.625 17.625H242.625L243.625 18.625V17.625ZM247.719 17.625H248.719L247.719 16.625V17.625ZM247.719 21.7187H246.719L247.719 22.7187V21.7187ZM251.812 21.7187H252.812L251.812 20.7187V21.7187ZM251.812 25.8125H250.812L251.812 26.8125V25.8125ZM255.906 25.8125H256.906L255.906 24.8125V25.8125ZM255.906 29.9062V30.9062L256.906 29.9062H255.906ZM243.625 29.9062H242.625L243.625 30.9062V29.9062ZM243.625 25.8125H244.625L243.625 24.8125V25.8125ZM239.531 25.8125H238.531L239.531 26.8125V25.8125ZM239.531 21.7187H240.531L239.531 20.7187V21.7187ZM235.438 21.7187V20.7187L234.438 21.7187H235.438ZM235.438 29.9062V30.9062L236.438 29.9062H235.438ZM228.25 29.9062V1.25H226.25V29.9062H228.25ZM227.25 2.25H235.438V0.25H227.25V2.25ZM234.438 1.25V13.5312H236.438V1.25H234.438ZM235.438 14.5312H239.531V12.5312H235.438V14.5312ZM240.531 13.5312V9.4375H238.531V13.5312H240.531ZM239.531 10.4375H243.625V8.4375H239.531V10.4375ZM244.625 9.4375V5.34375H242.625V9.4375H244.625ZM243.625 6.34375H247.719V4.34375H243.625V6.34375ZM248.719 5.34375V1.25H246.719V5.34375H248.719ZM247.719 2.25H255.906V0.25H247.719V2.25ZM254.906 1.25V5.34375H256.906V1.25H254.906ZM255.906 4.34375H251.812V6.34375H255.906V4.34375ZM250.812 5.34375V9.4375H252.812V5.34375H250.812ZM251.812 8.4375H247.719V10.4375H251.812V8.4375ZM246.719 9.4375V13.5312H248.719V9.4375H246.719ZM247.719 12.5312H243.625V14.5312H247.719V12.5312ZM242.625 13.5312V17.625H244.625V13.5312H242.625ZM243.625 18.625H247.719V16.625H243.625V18.625ZM246.719 17.625V21.7187H248.719V17.625H246.719ZM247.719 22.7187H251.812V20.7187H247.719V22.7187ZM250.812 21.7187V25.8125H252.812V21.7187H250.812ZM251.812 26.8125H255.906V24.8125H251.812V26.8125ZM254.906 25.8125V29.9062H256.906V25.8125H254.906ZM255.906 28.9062H243.625V30.9062H255.906V28.9062ZM244.625 29.9062V25.8125H242.625V29.9062H244.625ZM243.625 24.8125H239.531V26.8125H243.625V24.8125ZM240.531 25.8125V21.7187H238.531V25.8125H240.531ZM239.531 20.7187H235.438V22.7187H239.531V20.7187ZM234.438 21.7187V29.9062H236.438V21.7187H234.438ZM235.438 28.9062H227.25V30.9062H235.438V28.9062ZM264.094 29.9062H263.094L264.094 30.9062V29.9062ZM264.094 25.8125V24.8125L263.094 25.8125H264.094ZM272.281 25.8125V26.8125L273.281 25.8125H272.281ZM272.281 5.34375H273.281L272.281 4.34375V5.34375ZM264.094 5.34375H263.094L264.094 6.34375V5.34375ZM264.094 1.25V0.25L263.094 1.25H264.094ZM288.656 1.25H289.656L288.656 0.25V1.25ZM288.656 5.34375V6.34375L289.656 5.34375H288.656ZM280.469 5.34375V4.34375L279.469 5.34375H280.469ZM280.469 25.8125H279.469L280.469 26.8125V25.8125ZM288.656 25.8125H289.656L288.656 24.8125V25.8125ZM288.656 29.9062V30.9062L289.656 29.9062H288.656ZM265.094 29.9062V25.8125H263.094V29.9062H265.094ZM264.094 26.8125H272.281V24.8125H264.094V26.8125ZM273.281 25.8125V5.34375H271.281V25.8125H273.281ZM272.281 4.34375H264.094V6.34375H272.281V4.34375ZM265.094 5.34375V1.25H263.094V5.34375H265.094ZM264.094 2.25H288.656V0.25H264.094V2.25ZM287.656 1.25V5.34375H289.656V1.25H287.656ZM288.656 4.34375H280.469V6.34375H288.656V4.34375ZM279.469 5.34375V25.8125H281.469V5.34375H279.469ZM280.469 26.8125H288.656V24.8125H280.469V26.8125ZM287.656 25.8125V29.9062H289.656V25.8125H287.656ZM288.656 28.9062H264.094V30.9062H288.656V28.9062ZM296.844 29.9062H295.844L296.844 30.9062V29.9062ZM296.844 1.25V0.25L295.844 1.25H296.844ZM305.031 1.25H306.031L305.031 0.25V1.25ZM305.031 25.8125H304.031L305.031 26.8125V25.8125ZM321.406 25.8125H322.406L321.406 24.8125V25.8125ZM321.406 29.9062V30.9062L322.406 29.9062H321.406ZM297.844 29.9062V1.25H295.844V29.9062H297.844ZM296.844 2.25H305.031V0.25H296.844V2.25ZM304.031 1.25V25.8125H306.031V1.25H304.031ZM305.031 26.8125H321.406V24.8125H305.031V26.8125ZM320.406 25.8125V29.9062H322.406V25.8125H320.406ZM321.406 28.9062H296.844V30.9062H321.406V28.9062ZM329.594 29.9062H328.594L329.594 30.9062V29.9062ZM329.594 1.25V0.25L328.594 1.25H329.594ZM337.781 1.25H338.781L337.781 0.25V1.25ZM337.781 25.8125H336.781L337.781 26.8125V25.8125ZM354.156 25.8125H355.156L354.156 24.8125V25.8125ZM354.156 29.9062V30.9062L355.156 29.9062H354.156ZM330.594 29.9062V1.25H328.594V29.9062H330.594ZM329.594 2.25H337.781V0.25H329.594V2.25ZM336.781 1.25V25.8125H338.781V1.25H336.781ZM337.781 26.8125H354.156V24.8125H337.781V26.8125ZM353.156 25.8125V29.9062H355.156V25.8125H353.156ZM354.156 28.9062H329.594V30.9062H354.156V28.9062ZM362.344 29.9062H361.344L362.344 30.9062V29.9062ZM362.344 25.8125V24.8125L361.344 25.8125H362.344ZM366.438 25.8125V26.8125L367.438 25.8125H366.438ZM366.438 21.7187V20.7187L365.438 21.7187H366.438ZM370.531 21.7187V22.7187L371.531 21.7187H370.531ZM370.531 17.625V16.625L369.531 17.625H370.531ZM374.625 17.625V18.625L375.625 17.625H374.625ZM374.625 13.5312H375.625L374.625 12.5312V13.5312ZM370.531 13.5312H369.531L370.531 14.5312V13.5312ZM370.531 9.4375H371.531L370.531 8.4375V9.4375ZM366.438 9.4375H365.438L366.438 10.4375V9.4375ZM366.438 5.34375H367.438L366.438 4.34375V5.34375ZM362.344 5.34375H361.344L362.344 6.34375V5.34375ZM362.344 1.25V0.25L361.344 1.25H362.344ZM370.531 1.25H371.531L370.531 0.25V1.25ZM370.531 5.34375H369.531L370.531 6.34375V5.34375ZM374.625 5.34375H375.625L374.625 4.34375V5.34375ZM374.625 9.4375H373.625L374.625 10.4375V9.4375ZM378.719 9.4375H379.719L378.719 8.4375V9.4375ZM378.719 13.5312H377.719L378.719 14.5312V13.5312ZM382.812 13.5312H383.812L382.812 12.5312V13.5312ZM382.812 17.625V18.625L383.812 17.625H382.812ZM378.719 17.625V16.625L377.719 17.625H378.719ZM378.719 21.7187V22.7187L379.719 21.7187H378.719ZM374.625 21.7187V20.7187L373.625 21.7187H374.625ZM374.625 25.8125V26.8125L375.625 25.8125H374.625ZM370.531 25.8125V24.8125L369.531 25.8125H370.531ZM370.531 29.9062V30.9062L371.531 29.9062H370.531ZM363.344 29.9062V25.8125H361.344V29.9062H363.344ZM362.344 26.8125H366.438V24.8125H362.344V26.8125ZM367.438 25.8125V21.7187H365.438V25.8125H367.438ZM366.438 22.7187H370.531V20.7187H366.438V22.7187ZM371.531 21.7187V17.625H369.531V21.7187H371.531ZM370.531 18.625H374.625V16.625H370.531V18.625ZM375.625 17.625V13.5312H373.625V17.625H375.625ZM374.625 12.5312H370.531V14.5312H374.625V12.5312ZM371.531 13.5312V9.4375H369.531V13.5312H371.531ZM370.531 8.4375H366.438V10.4375H370.531V8.4375ZM367.438 9.4375V5.34375H365.438V9.4375H367.438ZM366.438 4.34375H362.344V6.34375H366.438V4.34375ZM363.344 5.34375V1.25H361.344V5.34375H363.344ZM362.344 2.25H370.531V0.25H362.344V2.25ZM369.531 1.25V5.34375H371.531V1.25H369.531ZM370.531 6.34375H374.625V4.34375H370.531V6.34375ZM373.625 5.34375V9.4375H375.625V5.34375H373.625ZM374.625 10.4375H378.719V8.4375H374.625V10.4375ZM377.719 9.4375V13.5312H379.719V9.4375H377.719ZM378.719 14.5312H382.812V12.5312H378.719V14.5312ZM381.812 13.5312V17.625H383.812V13.5312H381.812ZM382.812 16.625H378.719V18.625H382.812V16.625ZM377.719 17.625V21.7187H379.719V17.625H377.719ZM378.719 20.7187H374.625V22.7187H378.719V20.7187ZM373.625 21.7187V25.8125H375.625V21.7187H373.625ZM374.625 24.8125H370.531V26.8125H374.625V24.8125ZM369.531 25.8125V29.9062H371.531V25.8125H369.531ZM370.531 28.9062H362.344V30.9062H370.531V28.9062Z" fill="#FDF5D8"/>
</g>
<defs>
<filter id="filter0_d" x="0.09375" y="0.25" width="390.719" height="38.6562" filterUnits="userSpaceOnUse" color-interpolation-filters="sRGB">
<feFlood flood-opacity="0" result="BackgroundImageFix"/>
<feColorMatrix in="SourceAlpha" type="matrix" values="0 0 0 0 0 0 0 0 0 0 0 0 0 0 0 0 0 0 127 0"/>
<feOffset dx="3" dy="4"/>
<feGaussianBlur stdDeviation="2"/>
<feColorMatrix type="matrix" values="0 0 0 0 0 0 0 0 0 0 0 0 0 0 0 0 0 0 0.25 0"/>
<feBlend mode="normal" in2="BackgroundImageFix" result="effect1_dropShadow"/>
<feBlend mode="normal" in="SourceGraphic" in2="effect1_dropShadow" result="shape"/>
</filter>
</defs>
</svg>
