<svg width="326" height="32" viewBox="0 0 326 32" fill="none" xmlns="http://www.w3.org/2000/svg">
<g filter="url(#filter0_d)">
<path d="M11.5 22.875V19.75H8.375V16.625H5.25V13.5H2.125V10.375H5.25V7.25H8.375V4.125H11.5V1H17.75V4.125H14.625V7.25H11.5V10.375H8.375V13.5H11.5V16.625H14.625V19.75H17.75V22.875H11.5ZM24 22.875V1H42.75V4.125H45.875V13.5H42.75V16.625H30.25V22.875H24ZM30.25 13.5H39.625V4.125H30.25V13.5ZM49 22.875V1H67.75V4.125H70.875V13.5H64.625V16.625H67.75V19.75H70.875V22.875H61.5V19.75H58.375V16.625H55.25V22.875H49ZM55.25 13.5H61.5V10.375H64.625V4.125H55.25V13.5ZM74 22.875V1H95.875V4.125H80.25V10.375H92.75V13.5H80.25V19.75H95.875V22.875H74ZM102.125 22.875V19.75H99V16.625H105.25V19.75H114.625V13.5H102.125V10.375H99V4.125H102.125V1H117.75V4.125H120.875V7.25H114.625V4.125H105.25V10.375H117.75V13.5H120.875V19.75H117.75V22.875H102.125ZM127.125 22.875V19.75H124V16.625H130.25V19.75H139.625V13.5H127.125V10.375H124V4.125H127.125V1H142.75V4.125H145.875V7.25H139.625V4.125H130.25V10.375H142.75V13.5H145.875V19.75H142.75V22.875H127.125ZM177.125 22.875V19.75H174V16.625H180.25V19.75H189.625V13.5H177.125V10.375H174V4.125H177.125V1H192.75V4.125H195.875V7.25H189.625V4.125H180.25V10.375H192.75V13.5H195.875V19.75H192.75V22.875H177.125ZM208.375 22.875V4.125H202.125V1H220.875V4.125H214.625V22.875H208.375ZM224 22.875V7.25H227.125V4.125H230.25V1H239.625V4.125H242.75V7.25H245.875V22.875H239.625V16.625H230.25V22.875H224ZM230.25 13.5H239.625V7.25H236.5V4.125H233.375V7.25H230.25V13.5ZM249 22.875V1H267.75V4.125H270.875V13.5H264.625V16.625H267.75V19.75H270.875V22.875H261.5V19.75H258.375V16.625H255.25V22.875H249ZM255.25 13.5H261.5V10.375H264.625V4.125H255.25V13.5ZM283.375 22.875V4.125H277.125V1H295.875V4.125H289.625V22.875H283.375ZM302.125 22.875V19.75H305.25V16.625H308.375V13.5H311.5V10.375H308.375V7.25H305.25V4.125H302.125V1H308.375V4.125H311.5V7.25H314.625V10.375H317.75V13.5H314.625V16.625H311.5V19.75H308.375V22.875H302.125Z" fill="black"/>
<path d="M11.5 22.875H11L11.5 23.375V22.875ZM11.5 19.75H12L11.5 19.25V19.75ZM8.375 19.75H7.875L8.375 20.25V19.75ZM8.375 16.625H8.875L8.375 16.125V16.625ZM5.25 16.625H4.75L5.25 17.125V16.625ZM5.25 13.5H5.75L5.25 13V13.5ZM2.125 13.5H1.625L2.125 14V13.5ZM2.125 10.375V9.875L1.625 10.375H2.125ZM5.25 10.375V10.875L5.75 10.375H5.25ZM5.25 7.25V6.75L4.75 7.25H5.25ZM8.375 7.25V7.75L8.875 7.25H8.375ZM8.375 4.125V3.625L7.875 4.125H8.375ZM11.5 4.125V4.625L12 4.125H11.5ZM11.5 1V0.5L11 1H11.5ZM17.75 1H18.25L17.75 0.5V1ZM17.75 4.125V4.625L18.25 4.125H17.75ZM14.625 4.125V3.625L14.125 4.125H14.625ZM14.625 7.25V7.75L15.125 7.25H14.625ZM11.5 7.25V6.75L11 7.25H11.5ZM11.5 10.375V10.875L12 10.375H11.5ZM8.375 10.375V9.875L7.875 10.375H8.375ZM8.375 13.5H7.875L8.375 14V13.5ZM11.5 13.5H12L11.5 13V13.5ZM11.5 16.625H11L11.5 17.125V16.625ZM14.625 16.625H15.125L14.625 16.125V16.625ZM14.625 19.75H14.125L14.625 20.25V19.75ZM17.75 19.75H18.25L17.75 19.25V19.75ZM17.75 22.875V23.375L18.25 22.875H17.75ZM12 22.875V19.75H11V22.875H12ZM11.5 19.25H8.375V20.25H11.5V19.25ZM8.875 19.75V16.625H7.875V19.75H8.875ZM8.375 16.125H5.25V17.125H8.375V16.125ZM5.75 16.625V13.5H4.75V16.625H5.75ZM5.25 13H2.125V14H5.25V13ZM2.625 13.5V10.375H1.625V13.5H2.625ZM2.125 10.875H5.25V9.875H2.125V10.875ZM5.75 10.375V7.25H4.75V10.375H5.75ZM5.25 7.75H8.375V6.75H5.25V7.75ZM8.875 7.25V4.125H7.875V7.25H8.875ZM8.375 4.625H11.5V3.625H8.375V4.625ZM12 4.125V1H11V4.125H12ZM11.5 1.5H17.75V0.5H11.5V1.5ZM17.25 1V4.125H18.25V1H17.25ZM17.75 3.625H14.625V4.625H17.75V3.625ZM14.125 4.125V7.25H15.125V4.125H14.125ZM14.625 6.75H11.5V7.75H14.625V6.75ZM11 7.25V10.375H12V7.25H11ZM11.5 9.875H8.375V10.875H11.5V9.875ZM7.875 10.375V13.5H8.875V10.375H7.875ZM8.375 14H11.5V13H8.375V14ZM11 13.5V16.625H12V13.5H11ZM11.5 17.125H14.625V16.125H11.5V17.125ZM14.125 16.625V19.75H15.125V16.625H14.125ZM14.625 20.25H17.75V19.25H14.625V20.25ZM17.25 19.75V22.875H18.25V19.75H17.25ZM17.75 22.375H11.5V23.375H17.75V22.375ZM24 22.875H23.5L24 23.375V22.875ZM24 1V0.5L23.5 1H24ZM42.75 1H43.25L42.75 0.5V1ZM42.75 4.125H42.25L42.75 4.625V4.125ZM45.875 4.125H46.375L45.875 3.625V4.125ZM45.875 13.5V14L46.375 13.5H45.875ZM42.75 13.5V13L42.25 13.5H42.75ZM42.75 16.625V17.125L43.25 16.625H42.75ZM30.25 16.625V16.125L29.75 16.625H30.25ZM30.25 22.875V23.375L30.75 22.875H30.25ZM30.25 13.5H29.75L30.25 14V13.5ZM39.625 13.5V14L40.125 13.5H39.625ZM39.625 4.125H40.125L39.625 3.625V4.125ZM30.25 4.125V3.625L29.75 4.125H30.25ZM24.5 22.875V1H23.5V22.875H24.5ZM24 1.5H42.75V0.5H24V1.5ZM42.25 1V4.125H43.25V1H42.25ZM42.75 4.625H45.875V3.625H42.75V4.625ZM45.375 4.125V13.5H46.375V4.125H45.375ZM45.875 13H42.75V14H45.875V13ZM42.25 13.5V16.625H43.25V13.5H42.25ZM42.75 16.125H30.25V17.125H42.75V16.125ZM29.75 16.625V22.875H30.75V16.625H29.75ZM30.25 22.375H24V23.375H30.25V22.375ZM30.25 14H39.625V13H30.25V14ZM40.125 13.5V4.125H39.125V13.5H40.125ZM39.625 3.625H30.25V4.625H39.625V3.625ZM29.75 4.125V13.5H30.75V4.125H29.75ZM49 22.875H48.5L49 23.375V22.875ZM49 1V0.5L48.5 1H49ZM67.75 1H68.25L67.75 0.5V1ZM67.75 4.125H67.25L67.75 4.625V4.125ZM70.875 4.125H71.375L70.875 3.625V4.125ZM70.875 13.5V14L71.375 13.5H70.875ZM64.625 13.5V13L64.125 13.5H64.625ZM64.625 16.625H64.125L64.625 17.125V16.625ZM67.75 16.625H68.25L67.75 16.125V16.625ZM67.75 19.75H67.25L67.75 20.25V19.75ZM70.875 19.75H71.375L70.875 19.25V19.75ZM70.875 22.875V23.375L71.375 22.875H70.875ZM61.5 22.875H61L61.5 23.375V22.875ZM61.5 19.75H62L61.5 19.25V19.75ZM58.375 19.75H57.875L58.375 20.25V19.75ZM58.375 16.625H58.875L58.375 16.125V16.625ZM55.25 16.625V16.125L54.75 16.625H55.25ZM55.25 22.875V23.375L55.75 22.875H55.25ZM55.25 13.5H54.75L55.25 14V13.5ZM61.5 13.5V14L62 13.5H61.5ZM61.5 10.375V9.875L61 10.375H61.5ZM64.625 10.375V10.875L65.125 10.375H64.625ZM64.625 4.125H65.125L64.625 3.625V4.125ZM55.25 4.125V3.625L54.75 4.125H55.25ZM49.5 22.875V1H48.5V22.875H49.5ZM49 1.5H67.75V0.5H49V1.5ZM67.25 1V4.125H68.25V1H67.25ZM67.75 4.625H70.875V3.625H67.75V4.625ZM70.375 4.125V13.5H71.375V4.125H70.375ZM70.875 13H64.625V14H70.875V13ZM64.125 13.5V16.625H65.125V13.5H64.125ZM64.625 17.125H67.75V16.125H64.625V17.125ZM67.25 16.625V19.75H68.25V16.625H67.25ZM67.75 20.25H70.875V19.25H67.75V20.25ZM70.375 19.75V22.875H71.375V19.75H70.375ZM70.875 22.375H61.5V23.375H70.875V22.375ZM62 22.875V19.75H61V22.875H62ZM61.5 19.25H58.375V20.25H61.5V19.25ZM58.875 19.75V16.625H57.875V19.75H58.875ZM58.375 16.125H55.25V17.125H58.375V16.125ZM54.75 16.625V22.875H55.75V16.625H54.75ZM55.25 22.375H49V23.375H55.25V22.375ZM55.25 14H61.5V13H55.25V14ZM62 13.5V10.375H61V13.5H62ZM61.5 10.875H64.625V9.875H61.5V10.875ZM65.125 10.375V4.125H64.125V10.375H65.125ZM64.625 3.625H55.25V4.625H64.625V3.625ZM54.75 4.125V13.5H55.75V4.125H54.75ZM74 22.875H73.5L74 23.375V22.875ZM74 1V0.5L73.5 1H74ZM95.875 1H96.375L95.875 0.5V1ZM95.875 4.125V4.625L96.375 4.125H95.875ZM80.25 4.125V3.625L79.75 4.125H80.25ZM80.25 10.375H79.75L80.25 10.875V10.375ZM92.75 10.375H93.25L92.75 9.875V10.375ZM92.75 13.5V14L93.25 13.5H92.75ZM80.25 13.5V13L79.75 13.5H80.25ZM80.25 19.75H79.75L80.25 20.25V19.75ZM95.875 19.75H96.375L95.875 19.25V19.75ZM95.875 22.875V23.375L96.375 22.875H95.875ZM74.5 22.875V1H73.5V22.875H74.5ZM74 1.5H95.875V0.5H74V1.5ZM95.375 1V4.125H96.375V1H95.375ZM95.875 3.625H80.25V4.625H95.875V3.625ZM79.75 4.125V10.375H80.75V4.125H79.75ZM80.25 10.875H92.75V9.875H80.25V10.875ZM92.25 10.375V13.5H93.25V10.375H92.25ZM92.75 13H80.25V14H92.75V13ZM79.75 13.5V19.75H80.75V13.5H79.75ZM80.25 20.25H95.875V19.25H80.25V20.25ZM95.375 19.75V22.875H96.375V19.75H95.375ZM95.875 22.375H74V23.375H95.875V22.375ZM102.125 22.875H101.625L102.125 23.375V22.875ZM102.125 19.75H102.625L102.125 19.25V19.75ZM99 19.75H98.5L99 20.25V19.75ZM99 16.625V16.125L98.5 16.625H99ZM105.25 16.625H105.75L105.25 16.125V16.625ZM105.25 19.75H104.75L105.25 20.25V19.75ZM114.625 19.75V20.25L115.125 19.75H114.625ZM114.625 13.5H115.125L114.625 13V13.5ZM102.125 13.5H101.625L102.125 14V13.5ZM102.125 10.375H102.625L102.125 9.875V10.375ZM99 10.375H98.5L99 10.875V10.375ZM99 4.125V3.625L98.5 4.125H99ZM102.125 4.125V4.625L102.625 4.125H102.125ZM102.125 1V0.5L101.625 1H102.125ZM117.75 1H118.25L117.75 0.5V1ZM117.75 4.125H117.25L117.75 4.625V4.125ZM120.875 4.125H121.375L120.875 3.625V4.125ZM120.875 7.25V7.75L121.375 7.25H120.875ZM114.625 7.25H114.125L114.625 7.75V7.25ZM114.625 4.125H115.125L114.625 3.625V4.125ZM105.25 4.125V3.625L104.75 4.125H105.25ZM105.25 10.375H104.75L105.25 10.875V10.375ZM117.75 10.375H118.25L117.75 9.875V10.375ZM117.75 13.5H117.25L117.75 14V13.5ZM120.875 13.5H121.375L120.875 13V13.5ZM120.875 19.75V20.25L121.375 19.75H120.875ZM117.75 19.75V19.25L117.25 19.75H117.75ZM117.75 22.875V23.375L118.25 22.875H117.75ZM102.625 22.875V19.75H101.625V22.875H102.625ZM102.125 19.25H99V20.25H102.125V19.25ZM99.5 19.75V16.625H98.5V19.75H99.5ZM99 17.125H105.25V16.125H99V17.125ZM104.75 16.625V19.75H105.75V16.625H104.75ZM105.25 20.25H114.625V19.25H105.25V20.25ZM115.125 19.75V13.5H114.125V19.75H115.125ZM114.625 13H102.125V14H114.625V13ZM102.625 13.5V10.375H101.625V13.5H102.625ZM102.125 9.875H99V10.875H102.125V9.875ZM99.5 10.375V4.125H98.5V10.375H99.5ZM99 4.625H102.125V3.625H99V4.625ZM102.625 4.125V1H101.625V4.125H102.625ZM102.125 1.5H117.75V0.5H102.125V1.5ZM117.25 1V4.125H118.25V1H117.25ZM117.75 4.625H120.875V3.625H117.75V4.625ZM120.375 4.125V7.25H121.375V4.125H120.375ZM120.875 6.75H114.625V7.75H120.875V6.75ZM115.125 7.25V4.125H114.125V7.25H115.125ZM114.625 3.625H105.25V4.625H114.625V3.625ZM104.75 4.125V10.375H105.75V4.125H104.75ZM105.25 10.875H117.75V9.875H105.25V10.875ZM117.25 10.375V13.5H118.25V10.375H117.25ZM117.75 14H120.875V13H117.75V14ZM120.375 13.5V19.75H121.375V13.5H120.375ZM120.875 19.25H117.75V20.25H120.875V19.25ZM117.25 19.75V22.875H118.25V19.75H117.25ZM117.75 22.375H102.125V23.375H117.75V22.375ZM127.125 22.875H126.625L127.125 23.375V22.875ZM127.125 19.75H127.625L127.125 19.25V19.75ZM124 19.75H123.5L124 20.25V19.75ZM124 16.625V16.125L123.5 16.625H124ZM130.25 16.625H130.75L130.25 16.125V16.625ZM130.25 19.75H129.75L130.25 20.25V19.75ZM139.625 19.75V20.25L140.125 19.75H139.625ZM139.625 13.5H140.125L139.625 13V13.5ZM127.125 13.5H126.625L127.125 14V13.5ZM127.125 10.375H127.625L127.125 9.875V10.375ZM124 10.375H123.5L124 10.875V10.375ZM124 4.125V3.625L123.5 4.125H124ZM127.125 4.125V4.625L127.625 4.125H127.125ZM127.125 1V0.5L126.625 1H127.125ZM142.75 1H143.25L142.75 0.5V1ZM142.75 4.125H142.25L142.75 4.625V4.125ZM145.875 4.125H146.375L145.875 3.625V4.125ZM145.875 7.25V7.75L146.375 7.25H145.875ZM139.625 7.25H139.125L139.625 7.75V7.25ZM139.625 4.125H140.125L139.625 3.625V4.125ZM130.25 4.125V3.625L129.75 4.125H130.25ZM130.25 10.375H129.75L130.25 10.875V10.375ZM142.75 10.375H143.25L142.75 9.875V10.375ZM142.75 13.5H142.25L142.75 14V13.5ZM145.875 13.5H146.375L145.875 13V13.5ZM145.875 19.75V20.25L146.375 19.75H145.875ZM142.75 19.75V19.25L142.25 19.75H142.75ZM142.75 22.875V23.375L143.25 22.875H142.75ZM127.625 22.875V19.75H126.625V22.875H127.625ZM127.125 19.25H124V20.25H127.125V19.25ZM124.5 19.75V16.625H123.5V19.75H124.5ZM124 17.125H130.25V16.125H124V17.125ZM129.75 16.625V19.75H130.75V16.625H129.75ZM130.25 20.25H139.625V19.25H130.25V20.25ZM140.125 19.75V13.5H139.125V19.75H140.125ZM139.625 13H127.125V14H139.625V13ZM127.625 13.5V10.375H126.625V13.5H127.625ZM127.125 9.875H124V10.875H127.125V9.875ZM124.5 10.375V4.125H123.5V10.375H124.5ZM124 4.625H127.125V3.625H124V4.625ZM127.625 4.125V1H126.625V4.125H127.625ZM127.125 1.5H142.75V0.5H127.125V1.5ZM142.25 1V4.125H143.25V1H142.25ZM142.75 4.625H145.875V3.625H142.75V4.625ZM145.375 4.125V7.25H146.375V4.125H145.375ZM145.875 6.75H139.625V7.75H145.875V6.75ZM140.125 7.25V4.125H139.125V7.25H140.125ZM139.625 3.625H130.25V4.625H139.625V3.625ZM129.75 4.125V10.375H130.75V4.125H129.75ZM130.25 10.875H142.75V9.875H130.25V10.875ZM142.25 10.375V13.5H143.25V10.375H142.25ZM142.75 14H145.875V13H142.75V14ZM145.375 13.5V19.75H146.375V13.5H145.375ZM145.875 19.25H142.75V20.25H145.875V19.25ZM142.25 19.75V22.875H143.25V19.75H142.25ZM142.75 22.375H127.125V23.375H142.75V22.375ZM177.125 22.875H176.625L177.125 23.375V22.875ZM177.125 19.75H177.625L177.125 19.25V19.75ZM174 19.75H173.5L174 20.25V19.75ZM174 16.625V16.125L173.5 16.625H174ZM180.25 16.625H180.75L180.25 16.125V16.625ZM180.25 19.75H179.75L180.25 20.25V19.75ZM189.625 19.75V20.25L190.125 19.75H189.625ZM189.625 13.5H190.125L189.625 13V13.5ZM177.125 13.5H176.625L177.125 14V13.5ZM177.125 10.375H177.625L177.125 9.875V10.375ZM174 10.375H173.5L174 10.875V10.375ZM174 4.125V3.625L173.5 4.125H174ZM177.125 4.125V4.625L177.625 4.125H177.125ZM177.125 1V0.5L176.625 1H177.125ZM192.75 1H193.25L192.75 0.5V1ZM192.75 4.125H192.25L192.75 4.625V4.125ZM195.875 4.125H196.375L195.875 3.625V4.125ZM195.875 7.25V7.75L196.375 7.25H195.875ZM189.625 7.25H189.125L189.625 7.75V7.25ZM189.625 4.125H190.125L189.625 3.625V4.125ZM180.25 4.125V3.625L179.75 4.125H180.25ZM180.25 10.375H179.75L180.25 10.875V10.375ZM192.75 10.375H193.25L192.75 9.875V10.375ZM192.75 13.5H192.25L192.75 14V13.5ZM195.875 13.5H196.375L195.875 13V13.5ZM195.875 19.75V20.25L196.375 19.75H195.875ZM192.75 19.75V19.25L192.25 19.75H192.75ZM192.75 22.875V23.375L193.25 22.875H192.75ZM177.625 22.875V19.75H176.625V22.875H177.625ZM177.125 19.25H174V20.25H177.125V19.25ZM174.5 19.75V16.625H173.5V19.75H174.5ZM174 17.125H180.25V16.125H174V17.125ZM179.75 16.625V19.75H180.75V16.625H179.75ZM180.25 20.25H189.625V19.25H180.25V20.25ZM190.125 19.75V13.5H189.125V19.75H190.125ZM189.625 13H177.125V14H189.625V13ZM177.625 13.5V10.375H176.625V13.5H177.625ZM177.125 9.875H174V10.875H177.125V9.875ZM174.5 10.375V4.125H173.5V10.375H174.5ZM174 4.625H177.125V3.625H174V4.625ZM177.625 4.125V1H176.625V4.125H177.625ZM177.125 1.5H192.75V0.5H177.125V1.5ZM192.25 1V4.125H193.25V1H192.25ZM192.75 4.625H195.875V3.625H192.75V4.625ZM195.375 4.125V7.25H196.375V4.125H195.375ZM195.875 6.75H189.625V7.75H195.875V6.75ZM190.125 7.25V4.125H189.125V7.25H190.125ZM189.625 3.625H180.25V4.625H189.625V3.625ZM179.75 4.125V10.375H180.75V4.125H179.75ZM180.25 10.875H192.75V9.875H180.25V10.875ZM192.25 10.375V13.5H193.25V10.375H192.25ZM192.75 14H195.875V13H192.75V14ZM195.375 13.5V19.75H196.375V13.5H195.375ZM195.875 19.25H192.75V20.25H195.875V19.25ZM192.25 19.75V22.875H193.25V19.75H192.25ZM192.75 22.375H177.125V23.375H192.75V22.375ZM208.375 22.875H207.875L208.375 23.375V22.875ZM208.375 4.125H208.875L208.375 3.625V4.125ZM202.125 4.125H201.625L202.125 4.625V4.125ZM202.125 1V0.5L201.625 1H202.125ZM220.875 1H221.375L220.875 0.5V1ZM220.875 4.125V4.625L221.375 4.125H220.875ZM214.625 4.125V3.625L214.125 4.125H214.625ZM214.625 22.875V23.375L215.125 22.875H214.625ZM208.875 22.875V4.125H207.875V22.875H208.875ZM208.375 3.625H202.125V4.625H208.375V3.625ZM202.625 4.125V1H201.625V4.125H202.625ZM202.125 1.5H220.875V0.5H202.125V1.5ZM220.375 1V4.125H221.375V1H220.375ZM220.875 3.625H214.625V4.625H220.875V3.625ZM214.125 4.125V22.875H215.125V4.125H214.125ZM214.625 22.375H208.375V23.375H214.625V22.375ZM224 22.875H223.5L224 23.375V22.875ZM224 7.25V6.75L223.5 7.25H224ZM227.125 7.25V7.75L227.625 7.25H227.125ZM227.125 4.125V3.625L226.625 4.125H227.125ZM230.25 4.125V4.625L230.75 4.125H230.25ZM230.25 1V0.5L229.75 1H230.25ZM239.625 1H240.125L239.625 0.5V1ZM239.625 4.125H239.125L239.625 4.625V4.125ZM242.75 4.125H243.25L242.75 3.625V4.125ZM242.75 7.25H242.25L242.75 7.75V7.25ZM245.875 7.25H246.375L245.875 6.75V7.25ZM245.875 22.875V23.375L246.375 22.875H245.875ZM239.625 22.875H239.125L239.625 23.375V22.875ZM239.625 16.625H240.125L239.625 16.125V16.625ZM230.25 16.625V16.125L229.75 16.625H230.25ZM230.25 22.875V23.375L230.75 22.875H230.25ZM230.25 13.5H229.75L230.25 14V13.5ZM239.625 13.5V14L240.125 13.5H239.625ZM239.625 7.25H240.125L239.625 6.75V7.25ZM236.5 7.25H236L236.5 7.75V7.25ZM236.5 4.125H237L236.5 3.625V4.125ZM233.375 4.125V3.625L232.875 4.125H233.375ZM233.375 7.25V7.75L233.875 7.25H233.375ZM230.25 7.25V6.75L229.75 7.25H230.25ZM224.5 22.875V7.25H223.5V22.875H224.5ZM224 7.75H227.125V6.75H224V7.75ZM227.625 7.25V4.125H226.625V7.25H227.625ZM227.125 4.625H230.25V3.625H227.125V4.625ZM230.75 4.125V1H229.75V4.125H230.75ZM230.25 1.5H239.625V0.5H230.25V1.5ZM239.125 1V4.125H240.125V1H239.125ZM239.625 4.625H242.75V3.625H239.625V4.625ZM242.25 4.125V7.25H243.25V4.125H242.25ZM242.75 7.75H245.875V6.75H242.75V7.75ZM245.375 7.25V22.875H246.375V7.25H245.375ZM245.875 22.375H239.625V23.375H245.875V22.375ZM240.125 22.875V16.625H239.125V22.875H240.125ZM239.625 16.125H230.25V17.125H239.625V16.125ZM229.75 16.625V22.875H230.75V16.625H229.75ZM230.25 22.375H224V23.375H230.25V22.375ZM230.25 14H239.625V13H230.25V14ZM240.125 13.5V7.25H239.125V13.5H240.125ZM239.625 6.75H236.5V7.75H239.625V6.75ZM237 7.25V4.125H236V7.25H237ZM236.5 3.625H233.375V4.625H236.5V3.625ZM232.875 4.125V7.25H233.875V4.125H232.875ZM233.375 6.75H230.25V7.75H233.375V6.75ZM229.75 7.25V13.5H230.75V7.25H229.75ZM249 22.875H248.5L249 23.375V22.875ZM249 1V0.5L248.5 1H249ZM267.75 1H268.25L267.75 0.5V1ZM267.75 4.125H267.25L267.75 4.625V4.125ZM270.875 4.125H271.375L270.875 3.625V4.125ZM270.875 13.5V14L271.375 13.5H270.875ZM264.625 13.5V13L264.125 13.5H264.625ZM264.625 16.625H264.125L264.625 17.125V16.625ZM267.75 16.625H268.25L267.75 16.125V16.625ZM267.75 19.75H267.25L267.75 20.25V19.75ZM270.875 19.75H271.375L270.875 19.25V19.75ZM270.875 22.875V23.375L271.375 22.875H270.875ZM261.5 22.875H261L261.5 23.375V22.875ZM261.5 19.75H262L261.5 19.25V19.75ZM258.375 19.75H257.875L258.375 20.25V19.75ZM258.375 16.625H258.875L258.375 16.125V16.625ZM255.25 16.625V16.125L254.75 16.625H255.25ZM255.25 22.875V23.375L255.75 22.875H255.25ZM255.25 13.5H254.75L255.25 14V13.5ZM261.5 13.5V14L262 13.5H261.5ZM261.5 10.375V9.875L261 10.375H261.5ZM264.625 10.375V10.875L265.125 10.375H264.625ZM264.625 4.125H265.125L264.625 3.625V4.125ZM255.25 4.125V3.625L254.75 4.125H255.25ZM249.5 22.875V1H248.5V22.875H249.5ZM249 1.5H267.75V0.5H249V1.5ZM267.25 1V4.125H268.25V1H267.25ZM267.75 4.625H270.875V3.625H267.75V4.625ZM270.375 4.125V13.5H271.375V4.125H270.375ZM270.875 13H264.625V14H270.875V13ZM264.125 13.5V16.625H265.125V13.5H264.125ZM264.625 17.125H267.75V16.125H264.625V17.125ZM267.25 16.625V19.75H268.25V16.625H267.25ZM267.75 20.25H270.875V19.25H267.75V20.25ZM270.375 19.75V22.875H271.375V19.75H270.375ZM270.875 22.375H261.5V23.375H270.875V22.375ZM262 22.875V19.75H261V22.875H262ZM261.5 19.25H258.375V20.25H261.5V19.25ZM258.875 19.75V16.625H257.875V19.75H258.875ZM258.375 16.125H255.25V17.125H258.375V16.125ZM254.75 16.625V22.875H255.75V16.625H254.75ZM255.25 22.375H249V23.375H255.25V22.375ZM255.25 14H261.5V13H255.25V14ZM262 13.5V10.375H261V13.5H262ZM261.5 10.875H264.625V9.875H261.5V10.875ZM265.125 10.375V4.125H264.125V10.375H265.125ZM264.625 3.625H255.25V4.625H264.625V3.625ZM254.75 4.125V13.5H255.75V4.125H254.75ZM283.375 22.875H282.875L283.375 23.375V22.875ZM283.375 4.125H283.875L283.375 3.625V4.125ZM277.125 4.125H276.625L277.125 4.625V4.125ZM277.125 1V0.5L276.625 1H277.125ZM295.875 1H296.375L295.875 0.5V1ZM295.875 4.125V4.625L296.375 4.125H295.875ZM289.625 4.125V3.625L289.125 4.125H289.625ZM289.625 22.875V23.375L290.125 22.875H289.625ZM283.875 22.875V4.125H282.875V22.875H283.875ZM283.375 3.625H277.125V4.625H283.375V3.625ZM277.625 4.125V1H276.625V4.125H277.625ZM277.125 1.5H295.875V0.5H277.125V1.5ZM295.375 1V4.125H296.375V1H295.375ZM295.875 3.625H289.625V4.625H295.875V3.625ZM289.125 4.125V22.875H290.125V4.125H289.125ZM289.625 22.375H283.375V23.375H289.625V22.375ZM302.125 22.875H301.625L302.125 23.375V22.875ZM302.125 19.75V19.25L301.625 19.75H302.125ZM305.25 19.75V20.25L305.75 19.75H305.25ZM305.25 16.625V16.125L304.75 16.625H305.25ZM308.375 16.625V17.125L308.875 16.625H308.375ZM308.375 13.5V13L307.875 13.5H308.375ZM311.5 13.5V14L312 13.5H311.5ZM311.5 10.375H312L311.5 9.875V10.375ZM308.375 10.375H307.875L308.375 10.875V10.375ZM308.375 7.25H308.875L308.375 6.75V7.25ZM305.25 7.25H304.75L305.25 7.75V7.25ZM305.25 4.125H305.75L305.25 3.625V4.125ZM302.125 4.125H301.625L302.125 4.625V4.125ZM302.125 1V0.5L301.625 1H302.125ZM308.375 1H308.875L308.375 0.5V1ZM308.375 4.125H307.875L308.375 4.625V4.125ZM311.5 4.125H312L311.5 3.625V4.125ZM311.5 7.25H311L311.5 7.75V7.25ZM314.625 7.25H315.125L314.625 6.75V7.25ZM314.625 10.375H314.125L314.625 10.875V10.375ZM317.75 10.375H318.25L317.75 9.875V10.375ZM317.75 13.5V14L318.25 13.5H317.75ZM314.625 13.5V13L314.125 13.5H314.625ZM314.625 16.625V17.125L315.125 16.625H314.625ZM311.5 16.625V16.125L311 16.625H311.5ZM311.5 19.75V20.25L312 19.75H311.5ZM308.375 19.75V19.25L307.875 19.75H308.375ZM308.375 22.875V23.375L308.875 22.875H308.375ZM302.625 22.875V19.75H301.625V22.875H302.625ZM302.125 20.25H305.25V19.25H302.125V20.25ZM305.75 19.75V16.625H304.75V19.75H305.75ZM305.25 17.125H308.375V16.125H305.25V17.125ZM308.875 16.625V13.5H307.875V16.625H308.875ZM308.375 14H311.5V13H308.375V14ZM312 13.5V10.375H311V13.5H312ZM311.5 9.875H308.375V10.875H311.5V9.875ZM308.875 10.375V7.25H307.875V10.375H308.875ZM308.375 6.75H305.25V7.75H308.375V6.75ZM305.75 7.25V4.125H304.75V7.25H305.75ZM305.25 3.625H302.125V4.625H305.25V3.625ZM302.625 4.125V1H301.625V4.125H302.625ZM302.125 1.5H308.375V0.5H302.125V1.5ZM307.875 1V4.125H308.875V1H307.875ZM308.375 4.625H311.5V3.625H308.375V4.625ZM311 4.125V7.25H312V4.125H311ZM311.5 7.75H314.625V6.75H311.5V7.75ZM314.125 7.25V10.375H315.125V7.25H314.125ZM314.625 10.875H317.75V9.875H314.625V10.875ZM317.25 10.375V13.5H318.25V10.375H317.25ZM317.75 13H314.625V14H317.75V13ZM314.125 13.5V16.625H315.125V13.5H314.125ZM314.625 16.125H311.5V17.125H314.625V16.125ZM311 16.625V19.75H312V16.625H311ZM311.5 19.25H308.375V20.25H311.5V19.25ZM307.875 19.75V22.875H308.875V19.75H307.875ZM308.375 22.375H302.125V23.375H308.375V22.375Z" fill="#00E676"/>
</g>
<defs>
<filter id="filter0_d" x="0.625" y="0.5" width="324.625" height="30.875" filterUnits="userSpaceOnUse" color-interpolation-filters="sRGB">
<feFlood flood-opacity="0" result="BackgroundImageFix"/>
<feColorMatrix in="SourceAlpha" type="matrix" values="0 0 0 0 0 0 0 0 0 0 0 0 0 0 0 0 0 0 127 0"/>
<feOffset dx="3" dy="4"/>
<feGaussianBlur stdDeviation="2"/>
<feColorMatrix type="matrix" values="0 0 0 0 0 0 0 0 0 0 0 0 0 0 0 0 0 0 0.25 0"/>
<feBlend mode="normal" in2="BackgroundImageFix" result="effect1_dropShadow"/>
<feBlend mode="normal" in="SourceGraphic" in2="effect1_dropShadow" result="shape"/>
</filter>
</defs>
</svg>
