<svg width="176" height="32" viewBox="0 0 176 32" fill="none" xmlns="http://www.w3.org/2000/svg">
<g filter="url(#filter0_d)">
<path d="M11.5 22.875V19.75H8.375V16.625H5.25V13.5H2.125V10.375H5.25V7.25H8.375V4.125H11.5V1H17.75V4.125H14.625V7.25H11.5V10.375H8.375V13.5H11.5V16.625H14.625V19.75H17.75V22.875H11.5ZM33.375 22.875V4.125H27.125V1H45.875V4.125H39.625V22.875H33.375ZM52.125 22.875V19.75H49V10.375H52.125V7.25H67.75V10.375H70.875V19.75H67.75V22.875H52.125ZM55.25 19.75H64.625V10.375H55.25V19.75ZM77.125 22.875V19.75H74V10.375H77.125V7.25H92.75V10.375H95.875V19.75H92.75V22.875H77.125ZM80.25 19.75H89.625V10.375H80.25V19.75ZM102.125 22.875V19.75H108.375V4.125H105.25V1H114.625V19.75H120.875V22.875H102.125ZM124 22.875V19.75H139.625V16.625H127.125V13.5H124V10.375H127.125V7.25H142.75V10.375H130.25V13.5H142.75V16.625H145.875V19.75H142.75V22.875H124ZM152.125 22.875V19.75H155.25V16.625H158.375V13.5H161.5V10.375H158.375V7.25H155.25V4.125H152.125V1H158.375V4.125H161.5V7.25H164.625V10.375H167.75V13.5H164.625V16.625H161.5V19.75H158.375V22.875H152.125Z" fill="black"/>
<path d="M11.5 22.875H11L11.5 23.375V22.875ZM11.5 19.75H12L11.5 19.25V19.75ZM8.375 19.75H7.875L8.375 20.25V19.75ZM8.375 16.625H8.875L8.375 16.125V16.625ZM5.25 16.625H4.75L5.25 17.125V16.625ZM5.25 13.5H5.75L5.25 13V13.5ZM2.125 13.5H1.625L2.125 14V13.5ZM2.125 10.375V9.875L1.625 10.375H2.125ZM5.25 10.375V10.875L5.75 10.375H5.25ZM5.25 7.25V6.75L4.75 7.25H5.25ZM8.375 7.25V7.75L8.875 7.25H8.375ZM8.375 4.125V3.625L7.875 4.125H8.375ZM11.5 4.125V4.625L12 4.125H11.5ZM11.5 1V0.5L11 1H11.5ZM17.75 1H18.25L17.75 0.5V1ZM17.75 4.125V4.625L18.25 4.125H17.75ZM14.625 4.125V3.625L14.125 4.125H14.625ZM14.625 7.25V7.75L15.125 7.25H14.625ZM11.5 7.25V6.75L11 7.25H11.5ZM11.5 10.375V10.875L12 10.375H11.5ZM8.375 10.375V9.875L7.875 10.375H8.375ZM8.375 13.5H7.875L8.375 14V13.5ZM11.5 13.5H12L11.5 13V13.5ZM11.5 16.625H11L11.5 17.125V16.625ZM14.625 16.625H15.125L14.625 16.125V16.625ZM14.625 19.75H14.125L14.625 20.25V19.75ZM17.75 19.75H18.25L17.75 19.25V19.75ZM17.75 22.875V23.375L18.25 22.875H17.75ZM12 22.875V19.75H11V22.875H12ZM11.5 19.25H8.375V20.25H11.5V19.25ZM8.875 19.75V16.625H7.875V19.75H8.875ZM8.375 16.125H5.25V17.125H8.375V16.125ZM5.75 16.625V13.5H4.75V16.625H5.75ZM5.25 13H2.125V14H5.25V13ZM2.625 13.5V10.375H1.625V13.5H2.625ZM2.125 10.875H5.25V9.875H2.125V10.875ZM5.75 10.375V7.25H4.75V10.375H5.75ZM5.25 7.75H8.375V6.75H5.25V7.75ZM8.875 7.25V4.125H7.875V7.25H8.875ZM8.375 4.625H11.5V3.625H8.375V4.625ZM12 4.125V1H11V4.125H12ZM11.5 1.5H17.75V0.5H11.5V1.5ZM17.25 1V4.125H18.25V1H17.25ZM17.75 3.625H14.625V4.625H17.75V3.625ZM14.125 4.125V7.25H15.125V4.125H14.125ZM14.625 6.75H11.5V7.75H14.625V6.75ZM11 7.25V10.375H12V7.25H11ZM11.5 9.875H8.375V10.875H11.5V9.875ZM7.875 10.375V13.5H8.875V10.375H7.875ZM8.375 14H11.5V13H8.375V14ZM11 13.5V16.625H12V13.5H11ZM11.5 17.125H14.625V16.125H11.5V17.125ZM14.125 16.625V19.75H15.125V16.625H14.125ZM14.625 20.25H17.75V19.25H14.625V20.25ZM17.25 19.75V22.875H18.25V19.75H17.25ZM17.75 22.375H11.5V23.375H17.75V22.375ZM33.375 22.875H32.875L33.375 23.375V22.875ZM33.375 4.125H33.875L33.375 3.625V4.125ZM27.125 4.125H26.625L27.125 4.625V4.125ZM27.125 1V0.5L26.625 1H27.125ZM45.875 1H46.375L45.875 0.5V1ZM45.875 4.125V4.625L46.375 4.125H45.875ZM39.625 4.125V3.625L39.125 4.125H39.625ZM39.625 22.875V23.375L40.125 22.875H39.625ZM33.875 22.875V4.125H32.875V22.875H33.875ZM33.375 3.625H27.125V4.625H33.375V3.625ZM27.625 4.125V1H26.625V4.125H27.625ZM27.125 1.5H45.875V0.5H27.125V1.5ZM45.375 1V4.125H46.375V1H45.375ZM45.875 3.625H39.625V4.625H45.875V3.625ZM39.125 4.125V22.875H40.125V4.125H39.125ZM39.625 22.375H33.375V23.375H39.625V22.375ZM52.125 22.875H51.625L52.125 23.375V22.875ZM52.125 19.75H52.625L52.125 19.25V19.75ZM49 19.75H48.5L49 20.25V19.75ZM49 10.375V9.875L48.5 10.375H49ZM52.125 10.375V10.875L52.625 10.375H52.125ZM52.125 7.25V6.75L51.625 7.25H52.125ZM67.75 7.25H68.25L67.75 6.75V7.25ZM67.75 10.375H67.25L67.75 10.875V10.375ZM70.875 10.375H71.375L70.875 9.875V10.375ZM70.875 19.75V20.25L71.375 19.75H70.875ZM67.75 19.75V19.25L67.25 19.75H67.75ZM67.75 22.875V23.375L68.25 22.875H67.75ZM55.25 19.75H54.75L55.25 20.25V19.75ZM64.625 19.75V20.25L65.125 19.75H64.625ZM64.625 10.375H65.125L64.625 9.875V10.375ZM55.25 10.375V9.875L54.75 10.375H55.25ZM52.625 22.875V19.75H51.625V22.875H52.625ZM52.125 19.25H49V20.25H52.125V19.25ZM49.5 19.75V10.375H48.5V19.75H49.5ZM49 10.875H52.125V9.875H49V10.875ZM52.625 10.375V7.25H51.625V10.375H52.625ZM52.125 7.75H67.75V6.75H52.125V7.75ZM67.25 7.25V10.375H68.25V7.25H67.25ZM67.75 10.875H70.875V9.875H67.75V10.875ZM70.375 10.375V19.75H71.375V10.375H70.375ZM70.875 19.25H67.75V20.25H70.875V19.25ZM67.25 19.75V22.875H68.25V19.75H67.25ZM67.75 22.375H52.125V23.375H67.75V22.375ZM55.25 20.25H64.625V19.25H55.25V20.25ZM65.125 19.75V10.375H64.125V19.75H65.125ZM64.625 9.875H55.25V10.875H64.625V9.875ZM54.75 10.375V19.75H55.75V10.375H54.75ZM77.125 22.875H76.625L77.125 23.375V22.875ZM77.125 19.75H77.625L77.125 19.25V19.75ZM74 19.75H73.5L74 20.25V19.75ZM74 10.375V9.875L73.5 10.375H74ZM77.125 10.375V10.875L77.625 10.375H77.125ZM77.125 7.25V6.75L76.625 7.25H77.125ZM92.75 7.25H93.25L92.75 6.75V7.25ZM92.75 10.375H92.25L92.75 10.875V10.375ZM95.875 10.375H96.375L95.875 9.875V10.375ZM95.875 19.75V20.25L96.375 19.75H95.875ZM92.75 19.75V19.25L92.25 19.75H92.75ZM92.75 22.875V23.375L93.25 22.875H92.75ZM80.25 19.75H79.75L80.25 20.25V19.75ZM89.625 19.75V20.25L90.125 19.75H89.625ZM89.625 10.375H90.125L89.625 9.875V10.375ZM80.25 10.375V9.875L79.75 10.375H80.25ZM77.625 22.875V19.75H76.625V22.875H77.625ZM77.125 19.25H74V20.25H77.125V19.25ZM74.5 19.75V10.375H73.5V19.75H74.5ZM74 10.875H77.125V9.875H74V10.875ZM77.625 10.375V7.25H76.625V10.375H77.625ZM77.125 7.75H92.75V6.75H77.125V7.75ZM92.25 7.25V10.375H93.25V7.25H92.25ZM92.75 10.875H95.875V9.875H92.75V10.875ZM95.375 10.375V19.75H96.375V10.375H95.375ZM95.875 19.25H92.75V20.25H95.875V19.25ZM92.25 19.75V22.875H93.25V19.75H92.25ZM92.75 22.375H77.125V23.375H92.75V22.375ZM80.25 20.25H89.625V19.25H80.25V20.25ZM90.125 19.75V10.375H89.125V19.75H90.125ZM89.625 9.875H80.25V10.875H89.625V9.875ZM79.75 10.375V19.75H80.75V10.375H79.75ZM102.125 22.875H101.625L102.125 23.375V22.875ZM102.125 19.75V19.25L101.625 19.75H102.125ZM108.375 19.75V20.25L108.875 19.75H108.375ZM108.375 4.125H108.875L108.375 3.625V4.125ZM105.25 4.125H104.75L105.25 4.625V4.125ZM105.25 1V0.5L104.75 1H105.25ZM114.625 1H115.125L114.625 0.5V1ZM114.625 19.75H114.125L114.625 20.25V19.75ZM120.875 19.75H121.375L120.875 19.25V19.75ZM120.875 22.875V23.375L121.375 22.875H120.875ZM102.625 22.875V19.75H101.625V22.875H102.625ZM102.125 20.25H108.375V19.25H102.125V20.25ZM108.875 19.75V4.125H107.875V19.75H108.875ZM108.375 3.625H105.25V4.625H108.375V3.625ZM105.75 4.125V1H104.75V4.125H105.75ZM105.25 1.5H114.625V0.5H105.25V1.5ZM114.125 1V19.75H115.125V1H114.125ZM114.625 20.25H120.875V19.25H114.625V20.25ZM120.375 19.75V22.875H121.375V19.75H120.375ZM120.875 22.375H102.125V23.375H120.875V22.375ZM124 22.875H123.5L124 23.375V22.875ZM124 19.75V19.25L123.5 19.75H124ZM139.625 19.75V20.25L140.125 19.75H139.625ZM139.625 16.625H140.125L139.625 16.125V16.625ZM127.125 16.625H126.625L127.125 17.125V16.625ZM127.125 13.5H127.625L127.125 13V13.5ZM124 13.5H123.5L124 14V13.5ZM124 10.375V9.875L123.5 10.375H124ZM127.125 10.375V10.875L127.625 10.375H127.125ZM127.125 7.25V6.75L126.625 7.25H127.125ZM142.75 7.25H143.25L142.75 6.75V7.25ZM142.75 10.375V10.875L143.25 10.375H142.75ZM130.25 10.375V9.875L129.75 10.375H130.25ZM130.25 13.5H129.75L130.25 14V13.5ZM142.75 13.5H143.25L142.75 13V13.5ZM142.75 16.625H142.25L142.75 17.125V16.625ZM145.875 16.625H146.375L145.875 16.125V16.625ZM145.875 19.75V20.25L146.375 19.75H145.875ZM142.75 19.75V19.25L142.25 19.75H142.75ZM142.75 22.875V23.375L143.25 22.875H142.75ZM124.5 22.875V19.75H123.5V22.875H124.5ZM124 20.25H139.625V19.25H124V20.25ZM140.125 19.75V16.625H139.125V19.75H140.125ZM139.625 16.125H127.125V17.125H139.625V16.125ZM127.625 16.625V13.5H126.625V16.625H127.625ZM127.125 13H124V14H127.125V13ZM124.5 13.5V10.375H123.5V13.5H124.5ZM124 10.875H127.125V9.875H124V10.875ZM127.625 10.375V7.25H126.625V10.375H127.625ZM127.125 7.75H142.75V6.75H127.125V7.75ZM142.25 7.25V10.375H143.25V7.25H142.25ZM142.75 9.875H130.25V10.875H142.75V9.875ZM129.75 10.375V13.5H130.75V10.375H129.75ZM130.25 14H142.75V13H130.25V14ZM142.25 13.5V16.625H143.25V13.5H142.25ZM142.75 17.125H145.875V16.125H142.75V17.125ZM145.375 16.625V19.75H146.375V16.625H145.375ZM145.875 19.25H142.75V20.25H145.875V19.25ZM142.25 19.75V22.875H143.25V19.75H142.25ZM142.75 22.375H124V23.375H142.75V22.375ZM152.125 22.875H151.625L152.125 23.375V22.875ZM152.125 19.75V19.25L151.625 19.75H152.125ZM155.25 19.75V20.25L155.75 19.75H155.25ZM155.25 16.625V16.125L154.75 16.625H155.25ZM158.375 16.625V17.125L158.875 16.625H158.375ZM158.375 13.5V13L157.875 13.5H158.375ZM161.5 13.5V14L162 13.5H161.5ZM161.5 10.375H162L161.5 9.875V10.375ZM158.375 10.375H157.875L158.375 10.875V10.375ZM158.375 7.25H158.875L158.375 6.75V7.25ZM155.25 7.25H154.75L155.25 7.75V7.25ZM155.25 4.125H155.75L155.25 3.625V4.125ZM152.125 4.125H151.625L152.125 4.625V4.125ZM152.125 1V0.5L151.625 1H152.125ZM158.375 1H158.875L158.375 0.5V1ZM158.375 4.125H157.875L158.375 4.625V4.125ZM161.5 4.125H162L161.5 3.625V4.125ZM161.5 7.25H161L161.5 7.75V7.25ZM164.625 7.25H165.125L164.625 6.75V7.25ZM164.625 10.375H164.125L164.625 10.875V10.375ZM167.75 10.375H168.25L167.75 9.875V10.375ZM167.75 13.5V14L168.25 13.5H167.75ZM164.625 13.5V13L164.125 13.5H164.625ZM164.625 16.625V17.125L165.125 16.625H164.625ZM161.5 16.625V16.125L161 16.625H161.5ZM161.5 19.75V20.25L162 19.75H161.5ZM158.375 19.75V19.25L157.875 19.75H158.375ZM158.375 22.875V23.375L158.875 22.875H158.375ZM152.625 22.875V19.75H151.625V22.875H152.625ZM152.125 20.25H155.25V19.25H152.125V20.25ZM155.75 19.75V16.625H154.75V19.75H155.75ZM155.25 17.125H158.375V16.125H155.25V17.125ZM158.875 16.625V13.5H157.875V16.625H158.875ZM158.375 14H161.5V13H158.375V14ZM162 13.5V10.375H161V13.5H162ZM161.5 9.875H158.375V10.875H161.5V9.875ZM158.875 10.375V7.25H157.875V10.375H158.875ZM158.375 6.75H155.25V7.75H158.375V6.75ZM155.75 7.25V4.125H154.75V7.25H155.75ZM155.25 3.625H152.125V4.625H155.25V3.625ZM152.625 4.125V1H151.625V4.125H152.625ZM152.125 1.5H158.375V0.5H152.125V1.5ZM157.875 1V4.125H158.875V1H157.875ZM158.375 4.625H161.5V3.625H158.375V4.625ZM161 4.125V7.25H162V4.125H161ZM161.5 7.75H164.625V6.75H161.5V7.75ZM164.125 7.25V10.375H165.125V7.25H164.125ZM164.625 10.875H167.75V9.875H164.625V10.875ZM167.25 10.375V13.5H168.25V10.375H167.25ZM167.75 13H164.625V14H167.75V13ZM164.125 13.5V16.625H165.125V13.5H164.125ZM164.625 16.125H161.5V17.125H164.625V16.125ZM161 16.625V19.75H162V16.625H161ZM161.5 19.25H158.375V20.25H161.5V19.25ZM157.875 19.75V22.875H158.875V19.75H157.875ZM158.375 22.375H152.125V23.375H158.375V22.375Z" fill="#00E676"/>
</g>
<defs>
<filter id="filter0_d" x="0.625" y="0.5" width="174.625" height="30.875" filterUnits="userSpaceOnUse" color-interpolation-filters="sRGB">
<feFlood flood-opacity="0" result="BackgroundImageFix"/>
<feColorMatrix in="SourceAlpha" type="matrix" values="0 0 0 0 0 0 0 0 0 0 0 0 0 0 0 0 0 0 127 0"/>
<feOffset dx="3" dy="4"/>
<feGaussianBlur stdDeviation="2"/>
<feColorMatrix type="matrix" values="0 0 0 0 0 0 0 0 0 0 0 0 0 0 0 0 0 0 0.25 0"/>
<feBlend mode="normal" in2="BackgroundImageFix" result="effect1_dropShadow"/>
<feBlend mode="normal" in="SourceGraphic" in2="effect1_dropShadow" result="shape"/>
</filter>
</defs>
</svg>
