<svg width="276" height="57" viewBox="0 0 276 57" fill="none" xmlns="http://www.w3.org/2000/svg">
<g filter="url(#filter0_d)">
<path d="M11.5 22.875V19.75H8.375V16.625H5.25V13.5H2.125V10.375H5.25V7.25H8.375V4.125H11.5V1H17.75V4.125H14.625V7.25H11.5V10.375H8.375V13.5H11.5V16.625H14.625V19.75H17.75V22.875H11.5ZM27.125 22.875V19.75H24V1H30.25V13.5H33.375V1H36.5V13.5H39.625V1H45.875V19.75H42.75V22.875H39.625V19.75H36.5V16.625H33.375V19.75H30.25V22.875H27.125ZM49 22.875V1H70.875V4.125H55.25V10.375H67.75V13.5H55.25V19.75H70.875V22.875H49ZM77.125 22.875V19.75H74V16.625H80.25V19.75H89.625V13.5H77.125V10.375H74V4.125H77.125V1H92.75V4.125H95.875V7.25H89.625V4.125H80.25V10.375H92.75V13.5H95.875V19.75H92.75V22.875H77.125ZM105.25 22.875V19.75H102.125V16.625H99V7.25H102.125V4.125H105.25V1H117.75V4.125H120.875V7.25H114.625V4.125H108.375V7.25H105.25V16.625H108.375V19.75H114.625V16.625H120.875V19.75H117.75V22.875H105.25ZM127.125 22.875V1H133.375V19.75H145.875V22.875H127.125ZM149 22.875V1H170.875V4.125H155.25V10.375H167.75V13.5H155.25V19.75H170.875V22.875H149ZM183.375 22.875V13.5H180.25V10.375H177.125V1H183.375V10.375H189.625V1H195.875V10.375H192.75V13.5H189.625V22.875H183.375ZM108.375 47.875V29.125H102.125V26H120.875V29.125H114.625V47.875H108.375ZM127.125 47.875V44.75H124V29.125H127.125V26H142.75V29.125H145.875V44.75H142.75V47.875H127.125ZM130.25 44.75H139.625V29.125H130.25V44.75ZM149 47.875V26H167.75V29.125H170.875V38.5H164.625V41.625H167.75V44.75H170.875V47.875H161.5V44.75H158.375V41.625H155.25V47.875H149ZM155.25 38.5H161.5V35.375H164.625V29.125H155.25V38.5ZM174 47.875V26H192.75V29.125H195.875V38.5H189.625V41.625H192.75V44.75H195.875V47.875H186.5V44.75H183.375V41.625H180.25V47.875H174ZM180.25 38.5H186.5V35.375H189.625V29.125H180.25V38.5ZM199 47.875V26H220.875V29.125H205.25V35.375H217.75V38.5H205.25V44.75H220.875V47.875H199ZM227.125 47.875V44.75H224V41.625H230.25V44.75H239.625V38.5H227.125V35.375H224V29.125H227.125V26H242.75V29.125H245.875V32.25H239.625V29.125H230.25V35.375H242.75V38.5H245.875V44.75H242.75V47.875H227.125ZM252.125 47.875V44.75H255.25V41.625H258.375V38.5H261.5V35.375H258.375V32.25H255.25V29.125H252.125V26H258.375V29.125H261.5V32.25H264.625V35.375H267.75V38.5H264.625V41.625H261.5V44.75H258.375V47.875H252.125Z" fill="black"/>
<path d="M11.5 22.875H11L11.5 23.375V22.875ZM11.5 19.75H12L11.5 19.25V19.75ZM8.375 19.75H7.875L8.375 20.25V19.75ZM8.375 16.625H8.875L8.375 16.125V16.625ZM5.25 16.625H4.75L5.25 17.125V16.625ZM5.25 13.5H5.75L5.25 13V13.5ZM2.125 13.5H1.625L2.125 14V13.5ZM2.125 10.375V9.875L1.625 10.375H2.125ZM5.25 10.375V10.875L5.75 10.375H5.25ZM5.25 7.25V6.75L4.75 7.25H5.25ZM8.375 7.25V7.75L8.875 7.25H8.375ZM8.375 4.125V3.625L7.875 4.125H8.375ZM11.5 4.125V4.625L12 4.125H11.5ZM11.5 1V0.5L11 1H11.5ZM17.75 1H18.25L17.75 0.5V1ZM17.75 4.125V4.625L18.25 4.125H17.75ZM14.625 4.125V3.625L14.125 4.125H14.625ZM14.625 7.25V7.75L15.125 7.25H14.625ZM11.5 7.25V6.75L11 7.25H11.5ZM11.5 10.375V10.875L12 10.375H11.5ZM8.375 10.375V9.875L7.875 10.375H8.375ZM8.375 13.5H7.875L8.375 14V13.5ZM11.5 13.5H12L11.5 13V13.5ZM11.5 16.625H11L11.5 17.125V16.625ZM14.625 16.625H15.125L14.625 16.125V16.625ZM14.625 19.75H14.125L14.625 20.25V19.75ZM17.75 19.75H18.25L17.75 19.25V19.75ZM17.75 22.875V23.375L18.25 22.875H17.75ZM12 22.875V19.75H11V22.875H12ZM11.5 19.25H8.375V20.25H11.5V19.25ZM8.875 19.75V16.625H7.875V19.75H8.875ZM8.375 16.125H5.25V17.125H8.375V16.125ZM5.75 16.625V13.5H4.75V16.625H5.75ZM5.25 13H2.125V14H5.25V13ZM2.625 13.5V10.375H1.625V13.5H2.625ZM2.125 10.875H5.25V9.875H2.125V10.875ZM5.75 10.375V7.25H4.75V10.375H5.75ZM5.25 7.75H8.375V6.75H5.25V7.75ZM8.875 7.25V4.125H7.875V7.25H8.875ZM8.375 4.625H11.5V3.625H8.375V4.625ZM12 4.125V1H11V4.125H12ZM11.5 1.5H17.75V0.5H11.5V1.5ZM17.25 1V4.125H18.25V1H17.25ZM17.75 3.625H14.625V4.625H17.75V3.625ZM14.125 4.125V7.25H15.125V4.125H14.125ZM14.625 6.75H11.5V7.75H14.625V6.75ZM11 7.25V10.375H12V7.25H11ZM11.5 9.875H8.375V10.875H11.5V9.875ZM7.875 10.375V13.5H8.875V10.375H7.875ZM8.375 14H11.5V13H8.375V14ZM11 13.5V16.625H12V13.5H11ZM11.5 17.125H14.625V16.125H11.5V17.125ZM14.125 16.625V19.75H15.125V16.625H14.125ZM14.625 20.25H17.75V19.25H14.625V20.25ZM17.25 19.75V22.875H18.25V19.75H17.25ZM17.75 22.375H11.5V23.375H17.75V22.375ZM27.125 22.875H26.625L27.125 23.375V22.875ZM27.125 19.75H27.625L27.125 19.25V19.75ZM24 19.75H23.5L24 20.25V19.75ZM24 1V0.5L23.5 1H24ZM30.25 1H30.75L30.25 0.5V1ZM30.25 13.5H29.75L30.25 14V13.5ZM33.375 13.5V14L33.875 13.5H33.375ZM33.375 1V0.5L32.875 1H33.375ZM36.5 1H37L36.5 0.5V1ZM36.5 13.5H36L36.5 14V13.5ZM39.625 13.5V14L40.125 13.5H39.625ZM39.625 1V0.5L39.125 1H39.625ZM45.875 1H46.375L45.875 0.5V1ZM45.875 19.75V20.25L46.375 19.75H45.875ZM42.75 19.75V19.25L42.25 19.75H42.75ZM42.75 22.875V23.375L43.25 22.875H42.75ZM39.625 22.875H39.125L39.625 23.375V22.875ZM39.625 19.75H40.125L39.625 19.25V19.75ZM36.5 19.75H36L36.5 20.25V19.75ZM36.5 16.625H37L36.5 16.125V16.625ZM33.375 16.625V16.125L32.875 16.625H33.375ZM33.375 19.75V20.25L33.875 19.75H33.375ZM30.25 19.75V19.25L29.75 19.75H30.25ZM30.25 22.875V23.375L30.75 22.875H30.25ZM27.625 22.875V19.75H26.625V22.875H27.625ZM27.125 19.25H24V20.25H27.125V19.25ZM24.5 19.75V1H23.5V19.75H24.5ZM24 1.5H30.25V0.5H24V1.5ZM29.75 1V13.5H30.75V1H29.75ZM30.25 14H33.375V13H30.25V14ZM33.875 13.5V1H32.875V13.5H33.875ZM33.375 1.5H36.5V0.5H33.375V1.5ZM36 1V13.5H37V1H36ZM36.5 14H39.625V13H36.5V14ZM40.125 13.5V1H39.125V13.5H40.125ZM39.625 1.5H45.875V0.5H39.625V1.5ZM45.375 1V19.75H46.375V1H45.375ZM45.875 19.25H42.75V20.25H45.875V19.25ZM42.25 19.75V22.875H43.25V19.75H42.25ZM42.75 22.375H39.625V23.375H42.75V22.375ZM40.125 22.875V19.75H39.125V22.875H40.125ZM39.625 19.25H36.5V20.25H39.625V19.25ZM37 19.75V16.625H36V19.75H37ZM36.5 16.125H33.375V17.125H36.5V16.125ZM32.875 16.625V19.75H33.875V16.625H32.875ZM33.375 19.25H30.25V20.25H33.375V19.25ZM29.75 19.75V22.875H30.75V19.75H29.75ZM30.25 22.375H27.125V23.375H30.25V22.375ZM49 22.875H48.5L49 23.375V22.875ZM49 1V0.5L48.5 1H49ZM70.875 1H71.375L70.875 0.5V1ZM70.875 4.125V4.625L71.375 4.125H70.875ZM55.25 4.125V3.625L54.75 4.125H55.25ZM55.25 10.375H54.75L55.25 10.875V10.375ZM67.75 10.375H68.25L67.75 9.875V10.375ZM67.75 13.5V14L68.25 13.5H67.75ZM55.25 13.5V13L54.75 13.5H55.25ZM55.25 19.75H54.75L55.25 20.25V19.75ZM70.875 19.75H71.375L70.875 19.25V19.75ZM70.875 22.875V23.375L71.375 22.875H70.875ZM49.5 22.875V1H48.5V22.875H49.5ZM49 1.5H70.875V0.5H49V1.5ZM70.375 1V4.125H71.375V1H70.375ZM70.875 3.625H55.25V4.625H70.875V3.625ZM54.75 4.125V10.375H55.75V4.125H54.75ZM55.25 10.875H67.75V9.875H55.25V10.875ZM67.25 10.375V13.5H68.25V10.375H67.25ZM67.75 13H55.25V14H67.75V13ZM54.75 13.5V19.75H55.75V13.5H54.75ZM55.25 20.25H70.875V19.25H55.25V20.25ZM70.375 19.75V22.875H71.375V19.75H70.375ZM70.875 22.375H49V23.375H70.875V22.375ZM77.125 22.875H76.625L77.125 23.375V22.875ZM77.125 19.75H77.625L77.125 19.25V19.75ZM74 19.75H73.5L74 20.25V19.75ZM74 16.625V16.125L73.5 16.625H74ZM80.25 16.625H80.75L80.25 16.125V16.625ZM80.25 19.75H79.75L80.25 20.25V19.75ZM89.625 19.75V20.25L90.125 19.75H89.625ZM89.625 13.5H90.125L89.625 13V13.5ZM77.125 13.5H76.625L77.125 14V13.5ZM77.125 10.375H77.625L77.125 9.875V10.375ZM74 10.375H73.5L74 10.875V10.375ZM74 4.125V3.625L73.5 4.125H74ZM77.125 4.125V4.625L77.625 4.125H77.125ZM77.125 1V0.5L76.625 1H77.125ZM92.75 1H93.25L92.75 0.5V1ZM92.75 4.125H92.25L92.75 4.625V4.125ZM95.875 4.125H96.375L95.875 3.625V4.125ZM95.875 7.25V7.75L96.375 7.25H95.875ZM89.625 7.25H89.125L89.625 7.75V7.25ZM89.625 4.125H90.125L89.625 3.625V4.125ZM80.25 4.125V3.625L79.75 4.125H80.25ZM80.25 10.375H79.75L80.25 10.875V10.375ZM92.75 10.375H93.25L92.75 9.875V10.375ZM92.75 13.5H92.25L92.75 14V13.5ZM95.875 13.5H96.375L95.875 13V13.5ZM95.875 19.75V20.25L96.375 19.75H95.875ZM92.75 19.75V19.25L92.25 19.75H92.75ZM92.75 22.875V23.375L93.25 22.875H92.75ZM77.625 22.875V19.75H76.625V22.875H77.625ZM77.125 19.25H74V20.25H77.125V19.25ZM74.5 19.75V16.625H73.5V19.75H74.5ZM74 17.125H80.25V16.125H74V17.125ZM79.75 16.625V19.75H80.75V16.625H79.75ZM80.25 20.25H89.625V19.25H80.25V20.25ZM90.125 19.75V13.5H89.125V19.75H90.125ZM89.625 13H77.125V14H89.625V13ZM77.625 13.5V10.375H76.625V13.5H77.625ZM77.125 9.875H74V10.875H77.125V9.875ZM74.5 10.375V4.125H73.5V10.375H74.5ZM74 4.625H77.125V3.625H74V4.625ZM77.625 4.125V1H76.625V4.125H77.625ZM77.125 1.5H92.75V0.5H77.125V1.5ZM92.25 1V4.125H93.25V1H92.25ZM92.75 4.625H95.875V3.625H92.75V4.625ZM95.375 4.125V7.25H96.375V4.125H95.375ZM95.875 6.75H89.625V7.75H95.875V6.75ZM90.125 7.25V4.125H89.125V7.25H90.125ZM89.625 3.625H80.25V4.625H89.625V3.625ZM79.75 4.125V10.375H80.75V4.125H79.75ZM80.25 10.875H92.75V9.875H80.25V10.875ZM92.25 10.375V13.5H93.25V10.375H92.25ZM92.75 14H95.875V13H92.75V14ZM95.375 13.5V19.75H96.375V13.5H95.375ZM95.875 19.25H92.75V20.25H95.875V19.25ZM92.25 19.75V22.875H93.25V19.75H92.25ZM92.75 22.375H77.125V23.375H92.75V22.375ZM105.25 22.875H104.75L105.25 23.375V22.875ZM105.25 19.75H105.75L105.25 19.25V19.75ZM102.125 19.75H101.625L102.125 20.25V19.75ZM102.125 16.625H102.625L102.125 16.125V16.625ZM99 16.625H98.5L99 17.125V16.625ZM99 7.25V6.75L98.5 7.25H99ZM102.125 7.25V7.75L102.625 7.25H102.125ZM102.125 4.125V3.625L101.625 4.125H102.125ZM105.25 4.125V4.625L105.75 4.125H105.25ZM105.25 1V0.5L104.75 1H105.25ZM117.75 1H118.25L117.75 0.5V1ZM117.75 4.125H117.25L117.75 4.625V4.125ZM120.875 4.125H121.375L120.875 3.625V4.125ZM120.875 7.25V7.75L121.375 7.25H120.875ZM114.625 7.25H114.125L114.625 7.75V7.25ZM114.625 4.125H115.125L114.625 3.625V4.125ZM108.375 4.125V3.625L107.875 4.125H108.375ZM108.375 7.25V7.75L108.875 7.25H108.375ZM105.25 7.25V6.75L104.75 7.25H105.25ZM105.25 16.625H104.75L105.25 17.125V16.625ZM108.375 16.625H108.875L108.375 16.125V16.625ZM108.375 19.75H107.875L108.375 20.25V19.75ZM114.625 19.75V20.25L115.125 19.75H114.625ZM114.625 16.625V16.125L114.125 16.625H114.625ZM120.875 16.625H121.375L120.875 16.125V16.625ZM120.875 19.75V20.25L121.375 19.75H120.875ZM117.75 19.75V19.25L117.25 19.75H117.75ZM117.75 22.875V23.375L118.25 22.875H117.75ZM105.75 22.875V19.75H104.75V22.875H105.75ZM105.25 19.25H102.125V20.25H105.25V19.25ZM102.625 19.75V16.625H101.625V19.75H102.625ZM102.125 16.125H99V17.125H102.125V16.125ZM99.5 16.625V7.25H98.5V16.625H99.5ZM99 7.75H102.125V6.75H99V7.75ZM102.625 7.25V4.125H101.625V7.25H102.625ZM102.125 4.625H105.25V3.625H102.125V4.625ZM105.75 4.125V1H104.75V4.125H105.75ZM105.25 1.5H117.75V0.5H105.25V1.5ZM117.25 1V4.125H118.25V1H117.25ZM117.75 4.625H120.875V3.625H117.75V4.625ZM120.375 4.125V7.25H121.375V4.125H120.375ZM120.875 6.75H114.625V7.75H120.875V6.75ZM115.125 7.25V4.125H114.125V7.25H115.125ZM114.625 3.625H108.375V4.625H114.625V3.625ZM107.875 4.125V7.25H108.875V4.125H107.875ZM108.375 6.75H105.25V7.75H108.375V6.75ZM104.75 7.25V16.625H105.75V7.25H104.75ZM105.25 17.125H108.375V16.125H105.25V17.125ZM107.875 16.625V19.75H108.875V16.625H107.875ZM108.375 20.25H114.625V19.25H108.375V20.25ZM115.125 19.75V16.625H114.125V19.75H115.125ZM114.625 17.125H120.875V16.125H114.625V17.125ZM120.375 16.625V19.75H121.375V16.625H120.375ZM120.875 19.25H117.75V20.25H120.875V19.25ZM117.25 19.75V22.875H118.25V19.75H117.25ZM117.75 22.375H105.25V23.375H117.75V22.375ZM127.125 22.875H126.625L127.125 23.375V22.875ZM127.125 1V0.5L126.625 1H127.125ZM133.375 1H133.875L133.375 0.5V1ZM133.375 19.75H132.875L133.375 20.25V19.75ZM145.875 19.75H146.375L145.875 19.25V19.75ZM145.875 22.875V23.375L146.375 22.875H145.875ZM127.625 22.875V1H126.625V22.875H127.625ZM127.125 1.5H133.375V0.5H127.125V1.5ZM132.875 1V19.75H133.875V1H132.875ZM133.375 20.25H145.875V19.25H133.375V20.25ZM145.375 19.75V22.875H146.375V19.75H145.375ZM145.875 22.375H127.125V23.375H145.875V22.375ZM149 22.875H148.5L149 23.375V22.875ZM149 1V0.5L148.5 1H149ZM170.875 1H171.375L170.875 0.5V1ZM170.875 4.125V4.625L171.375 4.125H170.875ZM155.25 4.125V3.625L154.75 4.125H155.25ZM155.25 10.375H154.75L155.25 10.875V10.375ZM167.75 10.375H168.25L167.75 9.875V10.375ZM167.75 13.5V14L168.25 13.5H167.75ZM155.25 13.5V13L154.75 13.5H155.25ZM155.25 19.75H154.75L155.25 20.25V19.75ZM170.875 19.75H171.375L170.875 19.25V19.75ZM170.875 22.875V23.375L171.375 22.875H170.875ZM149.5 22.875V1H148.5V22.875H149.5ZM149 1.5H170.875V0.5H149V1.5ZM170.375 1V4.125H171.375V1H170.375ZM170.875 3.625H155.25V4.625H170.875V3.625ZM154.75 4.125V10.375H155.75V4.125H154.75ZM155.25 10.875H167.75V9.875H155.25V10.875ZM167.25 10.375V13.5H168.25V10.375H167.25ZM167.75 13H155.25V14H167.75V13ZM154.75 13.5V19.75H155.75V13.5H154.75ZM155.25 20.25H170.875V19.25H155.25V20.25ZM170.375 19.75V22.875H171.375V19.75H170.375ZM170.875 22.375H149V23.375H170.875V22.375ZM183.375 22.875H182.875L183.375 23.375V22.875ZM183.375 13.5H183.875L183.375 13V13.5ZM180.25 13.5H179.75L180.25 14V13.5ZM180.25 10.375H180.75L180.25 9.875V10.375ZM177.125 10.375H176.625L177.125 10.875V10.375ZM177.125 1V0.5L176.625 1H177.125ZM183.375 1H183.875L183.375 0.5V1ZM183.375 10.375H182.875L183.375 10.875V10.375ZM189.625 10.375V10.875L190.125 10.375H189.625ZM189.625 1V0.5L189.125 1H189.625ZM195.875 1H196.375L195.875 0.5V1ZM195.875 10.375V10.875L196.375 10.375H195.875ZM192.75 10.375V9.875L192.25 10.375H192.75ZM192.75 13.5V14L193.25 13.5H192.75ZM189.625 13.5V13L189.125 13.5H189.625ZM189.625 22.875V23.375L190.125 22.875H189.625ZM183.875 22.875V13.5H182.875V22.875H183.875ZM183.375 13H180.25V14H183.375V13ZM180.75 13.5V10.375H179.75V13.5H180.75ZM180.25 9.875H177.125V10.875H180.25V9.875ZM177.625 10.375V1H176.625V10.375H177.625ZM177.125 1.5H183.375V0.5H177.125V1.5ZM182.875 1V10.375H183.875V1H182.875ZM183.375 10.875H189.625V9.875H183.375V10.875ZM190.125 10.375V1H189.125V10.375H190.125ZM189.625 1.5H195.875V0.5H189.625V1.5ZM195.375 1V10.375H196.375V1H195.375ZM195.875 9.875H192.75V10.875H195.875V9.875ZM192.25 10.375V13.5H193.25V10.375H192.25ZM192.75 13H189.625V14H192.75V13ZM189.125 13.5V22.875H190.125V13.5H189.125ZM189.625 22.375H183.375V23.375H189.625V22.375ZM108.375 47.875H107.875L108.375 48.375V47.875ZM108.375 29.125H108.875L108.375 28.625V29.125ZM102.125 29.125H101.625L102.125 29.625V29.125ZM102.125 26V25.5L101.625 26H102.125ZM120.875 26H121.375L120.875 25.5V26ZM120.875 29.125V29.625L121.375 29.125H120.875ZM114.625 29.125V28.625L114.125 29.125H114.625ZM114.625 47.875V48.375L115.125 47.875H114.625ZM108.875 47.875V29.125H107.875V47.875H108.875ZM108.375 28.625H102.125V29.625H108.375V28.625ZM102.625 29.125V26H101.625V29.125H102.625ZM102.125 26.5H120.875V25.5H102.125V26.5ZM120.375 26V29.125H121.375V26H120.375ZM120.875 28.625H114.625V29.625H120.875V28.625ZM114.125 29.125V47.875H115.125V29.125H114.125ZM114.625 47.375H108.375V48.375H114.625V47.375ZM127.125 47.875H126.625L127.125 48.375V47.875ZM127.125 44.75H127.625L127.125 44.25V44.75ZM124 44.75H123.5L124 45.25V44.75ZM124 29.125V28.625L123.5 29.125H124ZM127.125 29.125V29.625L127.625 29.125H127.125ZM127.125 26V25.5L126.625 26H127.125ZM142.75 26H143.25L142.75 25.5V26ZM142.75 29.125H142.25L142.75 29.625V29.125ZM145.875 29.125H146.375L145.875 28.625V29.125ZM145.875 44.75V45.25L146.375 44.75H145.875ZM142.75 44.75V44.25L142.25 44.75H142.75ZM142.75 47.875V48.375L143.25 47.875H142.75ZM130.25 44.75H129.75L130.25 45.25V44.75ZM139.625 44.75V45.25L140.125 44.75H139.625ZM139.625 29.125H140.125L139.625 28.625V29.125ZM130.25 29.125V28.625L129.75 29.125H130.25ZM127.625 47.875V44.75H126.625V47.875H127.625ZM127.125 44.25H124V45.25H127.125V44.25ZM124.5 44.75V29.125H123.5V44.75H124.5ZM124 29.625H127.125V28.625H124V29.625ZM127.625 29.125V26H126.625V29.125H127.625ZM127.125 26.5H142.75V25.5H127.125V26.5ZM142.25 26V29.125H143.25V26H142.25ZM142.75 29.625H145.875V28.625H142.75V29.625ZM145.375 29.125V44.75H146.375V29.125H145.375ZM145.875 44.25H142.75V45.25H145.875V44.25ZM142.25 44.75V47.875H143.25V44.75H142.25ZM142.75 47.375H127.125V48.375H142.75V47.375ZM130.25 45.25H139.625V44.25H130.25V45.25ZM140.125 44.75V29.125H139.125V44.75H140.125ZM139.625 28.625H130.25V29.625H139.625V28.625ZM129.75 29.125V44.75H130.75V29.125H129.75ZM149 47.875H148.5L149 48.375V47.875ZM149 26V25.5L148.5 26H149ZM167.75 26H168.25L167.75 25.5V26ZM167.75 29.125H167.25L167.75 29.625V29.125ZM170.875 29.125H171.375L170.875 28.625V29.125ZM170.875 38.5V39L171.375 38.5H170.875ZM164.625 38.5V38L164.125 38.5H164.625ZM164.625 41.625H164.125L164.625 42.125V41.625ZM167.75 41.625H168.25L167.75 41.125V41.625ZM167.75 44.75H167.25L167.75 45.25V44.75ZM170.875 44.75H171.375L170.875 44.25V44.75ZM170.875 47.875V48.375L171.375 47.875H170.875ZM161.5 47.875H161L161.5 48.375V47.875ZM161.5 44.75H162L161.5 44.25V44.75ZM158.375 44.75H157.875L158.375 45.25V44.75ZM158.375 41.625H158.875L158.375 41.125V41.625ZM155.25 41.625V41.125L154.75 41.625H155.25ZM155.25 47.875V48.375L155.75 47.875H155.25ZM155.25 38.5H154.75L155.25 39V38.5ZM161.5 38.5V39L162 38.5H161.5ZM161.5 35.375V34.875L161 35.375H161.5ZM164.625 35.375V35.875L165.125 35.375H164.625ZM164.625 29.125H165.125L164.625 28.625V29.125ZM155.25 29.125V28.625L154.75 29.125H155.25ZM149.5 47.875V26H148.5V47.875H149.5ZM149 26.5H167.75V25.5H149V26.5ZM167.25 26V29.125H168.25V26H167.25ZM167.75 29.625H170.875V28.625H167.75V29.625ZM170.375 29.125V38.5H171.375V29.125H170.375ZM170.875 38H164.625V39H170.875V38ZM164.125 38.5V41.625H165.125V38.5H164.125ZM164.625 42.125H167.75V41.125H164.625V42.125ZM167.25 41.625V44.75H168.25V41.625H167.25ZM167.75 45.25H170.875V44.25H167.75V45.25ZM170.375 44.75V47.875H171.375V44.75H170.375ZM170.875 47.375H161.5V48.375H170.875V47.375ZM162 47.875V44.75H161V47.875H162ZM161.5 44.25H158.375V45.25H161.5V44.25ZM158.875 44.75V41.625H157.875V44.75H158.875ZM158.375 41.125H155.25V42.125H158.375V41.125ZM154.75 41.625V47.875H155.75V41.625H154.75ZM155.25 47.375H149V48.375H155.25V47.375ZM155.25 39H161.5V38H155.25V39ZM162 38.5V35.375H161V38.5H162ZM161.5 35.875H164.625V34.875H161.5V35.875ZM165.125 35.375V29.125H164.125V35.375H165.125ZM164.625 28.625H155.25V29.625H164.625V28.625ZM154.75 29.125V38.5H155.75V29.125H154.75ZM174 47.875H173.5L174 48.375V47.875ZM174 26V25.5L173.5 26H174ZM192.75 26H193.25L192.75 25.5V26ZM192.75 29.125H192.25L192.75 29.625V29.125ZM195.875 29.125H196.375L195.875 28.625V29.125ZM195.875 38.5V39L196.375 38.5H195.875ZM189.625 38.5V38L189.125 38.5H189.625ZM189.625 41.625H189.125L189.625 42.125V41.625ZM192.75 41.625H193.25L192.75 41.125V41.625ZM192.75 44.75H192.25L192.75 45.25V44.75ZM195.875 44.75H196.375L195.875 44.25V44.75ZM195.875 47.875V48.375L196.375 47.875H195.875ZM186.5 47.875H186L186.5 48.375V47.875ZM186.5 44.75H187L186.5 44.25V44.75ZM183.375 44.75H182.875L183.375 45.25V44.75ZM183.375 41.625H183.875L183.375 41.125V41.625ZM180.25 41.625V41.125L179.75 41.625H180.25ZM180.25 47.875V48.375L180.75 47.875H180.25ZM180.25 38.5H179.75L180.25 39V38.5ZM186.5 38.5V39L187 38.5H186.5ZM186.5 35.375V34.875L186 35.375H186.5ZM189.625 35.375V35.875L190.125 35.375H189.625ZM189.625 29.125H190.125L189.625 28.625V29.125ZM180.25 29.125V28.625L179.75 29.125H180.25ZM174.5 47.875V26H173.5V47.875H174.5ZM174 26.5H192.75V25.5H174V26.5ZM192.25 26V29.125H193.25V26H192.25ZM192.75 29.625H195.875V28.625H192.75V29.625ZM195.375 29.125V38.5H196.375V29.125H195.375ZM195.875 38H189.625V39H195.875V38ZM189.125 38.5V41.625H190.125V38.5H189.125ZM189.625 42.125H192.75V41.125H189.625V42.125ZM192.25 41.625V44.75H193.25V41.625H192.25ZM192.75 45.25H195.875V44.25H192.75V45.25ZM195.375 44.75V47.875H196.375V44.75H195.375ZM195.875 47.375H186.5V48.375H195.875V47.375ZM187 47.875V44.75H186V47.875H187ZM186.5 44.25H183.375V45.25H186.5V44.25ZM183.875 44.75V41.625H182.875V44.75H183.875ZM183.375 41.125H180.25V42.125H183.375V41.125ZM179.75 41.625V47.875H180.75V41.625H179.75ZM180.25 47.375H174V48.375H180.25V47.375ZM180.25 39H186.5V38H180.25V39ZM187 38.5V35.375H186V38.5H187ZM186.5 35.875H189.625V34.875H186.5V35.875ZM190.125 35.375V29.125H189.125V35.375H190.125ZM189.625 28.625H180.25V29.625H189.625V28.625ZM179.75 29.125V38.5H180.75V29.125H179.75ZM199 47.875H198.5L199 48.375V47.875ZM199 26V25.5L198.5 26H199ZM220.875 26H221.375L220.875 25.5V26ZM220.875 29.125V29.625L221.375 29.125H220.875ZM205.25 29.125V28.625L204.75 29.125H205.25ZM205.25 35.375H204.75L205.25 35.875V35.375ZM217.75 35.375H218.25L217.75 34.875V35.375ZM217.75 38.5V39L218.25 38.5H217.75ZM205.25 38.5V38L204.75 38.5H205.25ZM205.25 44.75H204.75L205.25 45.25V44.75ZM220.875 44.75H221.375L220.875 44.25V44.75ZM220.875 47.875V48.375L221.375 47.875H220.875ZM199.5 47.875V26H198.5V47.875H199.5ZM199 26.5H220.875V25.5H199V26.5ZM220.375 26V29.125H221.375V26H220.375ZM220.875 28.625H205.25V29.625H220.875V28.625ZM204.75 29.125V35.375H205.75V29.125H204.75ZM205.25 35.875H217.75V34.875H205.25V35.875ZM217.25 35.375V38.5H218.25V35.375H217.25ZM217.75 38H205.25V39H217.75V38ZM204.75 38.5V44.75H205.75V38.5H204.75ZM205.25 45.25H220.875V44.25H205.25V45.25ZM220.375 44.75V47.875H221.375V44.75H220.375ZM220.875 47.375H199V48.375H220.875V47.375ZM227.125 47.875H226.625L227.125 48.375V47.875ZM227.125 44.75H227.625L227.125 44.25V44.75ZM224 44.75H223.5L224 45.25V44.75ZM224 41.625V41.125L223.5 41.625H224ZM230.25 41.625H230.75L230.25 41.125V41.625ZM230.25 44.75H229.75L230.25 45.25V44.75ZM239.625 44.75V45.25L240.125 44.75H239.625ZM239.625 38.5H240.125L239.625 38V38.5ZM227.125 38.5H226.625L227.125 39V38.5ZM227.125 35.375H227.625L227.125 34.875V35.375ZM224 35.375H223.5L224 35.875V35.375ZM224 29.125V28.625L223.5 29.125H224ZM227.125 29.125V29.625L227.625 29.125H227.125ZM227.125 26V25.5L226.625 26H227.125ZM242.75 26H243.25L242.75 25.5V26ZM242.75 29.125H242.25L242.75 29.625V29.125ZM245.875 29.125H246.375L245.875 28.625V29.125ZM245.875 32.25V32.75L246.375 32.25H245.875ZM239.625 32.25H239.125L239.625 32.75V32.25ZM239.625 29.125H240.125L239.625 28.625V29.125ZM230.25 29.125V28.625L229.75 29.125H230.25ZM230.25 35.375H229.75L230.25 35.875V35.375ZM242.75 35.375H243.25L242.75 34.875V35.375ZM242.75 38.5H242.25L242.75 39V38.5ZM245.875 38.5H246.375L245.875 38V38.5ZM245.875 44.75V45.25L246.375 44.75H245.875ZM242.75 44.75V44.25L242.25 44.75H242.75ZM242.75 47.875V48.375L243.25 47.875H242.75ZM227.625 47.875V44.75H226.625V47.875H227.625ZM227.125 44.25H224V45.25H227.125V44.25ZM224.5 44.75V41.625H223.5V44.75H224.5ZM224 42.125H230.25V41.125H224V42.125ZM229.75 41.625V44.75H230.75V41.625H229.75ZM230.25 45.25H239.625V44.25H230.25V45.25ZM240.125 44.75V38.5H239.125V44.75H240.125ZM239.625 38H227.125V39H239.625V38ZM227.625 38.5V35.375H226.625V38.5H227.625ZM227.125 34.875H224V35.875H227.125V34.875ZM224.5 35.375V29.125H223.5V35.375H224.5ZM224 29.625H227.125V28.625H224V29.625ZM227.625 29.125V26H226.625V29.125H227.625ZM227.125 26.5H242.75V25.5H227.125V26.5ZM242.25 26V29.125H243.25V26H242.25ZM242.75 29.625H245.875V28.625H242.75V29.625ZM245.375 29.125V32.25H246.375V29.125H245.375ZM245.875 31.75H239.625V32.75H245.875V31.75ZM240.125 32.25V29.125H239.125V32.25H240.125ZM239.625 28.625H230.25V29.625H239.625V28.625ZM229.75 29.125V35.375H230.75V29.125H229.75ZM230.25 35.875H242.75V34.875H230.25V35.875ZM242.25 35.375V38.5H243.25V35.375H242.25ZM242.75 39H245.875V38H242.75V39ZM245.375 38.5V44.75H246.375V38.5H245.375ZM245.875 44.25H242.75V45.25H245.875V44.25ZM242.25 44.75V47.875H243.25V44.75H242.25ZM242.75 47.375H227.125V48.375H242.75V47.375ZM252.125 47.875H251.625L252.125 48.375V47.875ZM252.125 44.75V44.25L251.625 44.75H252.125ZM255.25 44.75V45.25L255.75 44.75H255.25ZM255.25 41.625V41.125L254.75 41.625H255.25ZM258.375 41.625V42.125L258.875 41.625H258.375ZM258.375 38.5V38L257.875 38.5H258.375ZM261.5 38.5V39L262 38.5H261.5ZM261.5 35.375H262L261.5 34.875V35.375ZM258.375 35.375H257.875L258.375 35.875V35.375ZM258.375 32.25H258.875L258.375 31.75V32.25ZM255.25 32.25H254.75L255.25 32.75V32.25ZM255.25 29.125H255.75L255.25 28.625V29.125ZM252.125 29.125H251.625L252.125 29.625V29.125ZM252.125 26V25.5L251.625 26H252.125ZM258.375 26H258.875L258.375 25.5V26ZM258.375 29.125H257.875L258.375 29.625V29.125ZM261.5 29.125H262L261.5 28.625V29.125ZM261.5 32.25H261L261.5 32.75V32.25ZM264.625 32.25H265.125L264.625 31.75V32.25ZM264.625 35.375H264.125L264.625 35.875V35.375ZM267.75 35.375H268.25L267.75 34.875V35.375ZM267.75 38.5V39L268.25 38.5H267.75ZM264.625 38.5V38L264.125 38.5H264.625ZM264.625 41.625V42.125L265.125 41.625H264.625ZM261.5 41.625V41.125L261 41.625H261.5ZM261.5 44.75V45.25L262 44.75H261.5ZM258.375 44.75V44.25L257.875 44.75H258.375ZM258.375 47.875V48.375L258.875 47.875H258.375ZM252.625 47.875V44.75H251.625V47.875H252.625ZM252.125 45.25H255.25V44.25H252.125V45.25ZM255.75 44.75V41.625H254.75V44.75H255.75ZM255.25 42.125H258.375V41.125H255.25V42.125ZM258.875 41.625V38.5H257.875V41.625H258.875ZM258.375 39H261.5V38H258.375V39ZM262 38.5V35.375H261V38.5H262ZM261.5 34.875H258.375V35.875H261.5V34.875ZM258.875 35.375V32.25H257.875V35.375H258.875ZM258.375 31.75H255.25V32.75H258.375V31.75ZM255.75 32.25V29.125H254.75V32.25H255.75ZM255.25 28.625H252.125V29.625H255.25V28.625ZM252.625 29.125V26H251.625V29.125H252.625ZM252.125 26.5H258.375V25.5H252.125V26.5ZM257.875 26V29.125H258.875V26H257.875ZM258.375 29.625H261.5V28.625H258.375V29.625ZM261 29.125V32.25H262V29.125H261ZM261.5 32.75H264.625V31.75H261.5V32.75ZM264.125 32.25V35.375H265.125V32.25H264.125ZM264.625 35.875H267.75V34.875H264.625V35.875ZM267.25 35.375V38.5H268.25V35.375H267.25ZM267.75 38H264.625V39H267.75V38ZM264.125 38.5V41.625H265.125V38.5H264.125ZM264.625 41.125H261.5V42.125H264.625V41.125ZM261 41.625V44.75H262V41.625H261ZM261.5 44.25H258.375V45.25H261.5V44.25ZM257.875 44.75V47.875H258.875V44.75H257.875ZM258.375 47.375H252.125V48.375H258.375V47.375Z" fill="#00E676"/>
</g>
<defs>
<filter id="filter0_d" x="0.625" y="0.5" width="274.625" height="55.875" filterUnits="userSpaceOnUse" color-interpolation-filters="sRGB">
<feFlood flood-opacity="0" result="BackgroundImageFix"/>
<feColorMatrix in="SourceAlpha" type="matrix" values="0 0 0 0 0 0 0 0 0 0 0 0 0 0 0 0 0 0 127 0"/>
<feOffset dx="3" dy="4"/>
<feGaussianBlur stdDeviation="2"/>
<feColorMatrix type="matrix" values="0 0 0 0 0 0 0 0 0 0 0 0 0 0 0 0 0 0 0.25 0"/>
<feBlend mode="normal" in2="BackgroundImageFix" result="effect1_dropShadow"/>
<feBlend mode="normal" in="SourceGraphic" in2="effect1_dropShadow" result="shape"/>
</filter>
</defs>
</svg>
