<svg width="131" height="71" viewBox="0 0 131 71" fill="none" xmlns="http://www.w3.org/2000/svg">
<g filter="url(#filter0_d)">
<path d="M11.4432 54.5568V47.1136H4V2.45454H18.8864V32.2273H26.3295V2.45454H33.7727V32.2273H41.2159V2.45454H56.1023V47.1136H48.6591V54.5568H41.2159V47.1136H33.7727V39.6705H26.3295V47.1136H18.8864V54.5568H11.4432ZM85.875 54.5568V9.89772H70.9886V2.45454H115.648V9.89772H100.761V54.5568H85.875Z" fill="#00E676"/>
<path d="M11.4432 54.5568H9.625L11.4432 56.375V54.5568ZM11.4432 47.1136H13.2614L11.4432 45.2955V47.1136ZM4 47.1136H2.18182L4 48.9318V47.1136ZM4 2.45454V0.636362L2.18182 2.45454H4ZM18.8864 2.45454H20.7045L18.8864 0.636362V2.45454ZM18.8864 32.2273H17.0682L18.8864 34.0455V32.2273ZM26.3295 32.2273V34.0455L28.1477 32.2273H26.3295ZM26.3295 2.45454V0.636362L24.5114 2.45454H26.3295ZM33.7727 2.45454H35.5909L33.7727 0.636362V2.45454ZM33.7727 32.2273H31.9545L33.7727 34.0455V32.2273ZM41.2159 32.2273V34.0455L43.0341 32.2273H41.2159ZM41.2159 2.45454V0.636362L39.3977 2.45454H41.2159ZM56.1023 2.45454H57.9205L56.1023 0.636362V2.45454ZM56.1023 47.1136V48.9318L57.9205 47.1136H56.1023ZM48.6591 47.1136V45.2955L46.8409 47.1136H48.6591ZM48.6591 54.5568V56.375L50.4773 54.5568H48.6591ZM41.2159 54.5568H39.3977L41.2159 56.375V54.5568ZM41.2159 47.1136H43.0341L41.2159 45.2955V47.1136ZM33.7727 47.1136H31.9545L33.7727 48.9318V47.1136ZM33.7727 39.6705H35.5909L33.7727 37.8523V39.6705ZM26.3295 39.6705V37.8523L24.5114 39.6705H26.3295ZM26.3295 47.1136V48.9318L28.1477 47.1136H26.3295ZM18.8864 47.1136V45.2955L17.0682 47.1136H18.8864ZM18.8864 54.5568V56.375L20.7045 54.5568H18.8864ZM13.2614 54.5568V47.1136H9.625V54.5568H13.2614ZM11.4432 45.2955H4V48.9318H11.4432V45.2955ZM5.81818 47.1136V2.45454H2.18182V47.1136H5.81818ZM4 4.27273H18.8864V0.636362H4V4.27273ZM17.0682 2.45454V32.2273H20.7045V2.45454H17.0682ZM18.8864 34.0455H26.3295V30.4091H18.8864V34.0455ZM28.1477 32.2273V2.45454H24.5114V32.2273H28.1477ZM26.3295 4.27273H33.7727V0.636362H26.3295V4.27273ZM31.9545 2.45454V32.2273H35.5909V2.45454H31.9545ZM33.7727 34.0455H41.2159V30.4091H33.7727V34.0455ZM43.0341 32.2273V2.45454H39.3977V32.2273H43.0341ZM41.2159 4.27273H56.1023V0.636362H41.2159V4.27273ZM54.2841 2.45454V47.1136H57.9205V2.45454H54.2841ZM56.1023 45.2955H48.6591V48.9318H56.1023V45.2955ZM46.8409 47.1136V54.5568H50.4773V47.1136H46.8409ZM48.6591 52.7386H41.2159V56.375H48.6591V52.7386ZM43.0341 54.5568V47.1136H39.3977V54.5568H43.0341ZM41.2159 45.2955H33.7727V48.9318H41.2159V45.2955ZM35.5909 47.1136V39.6705H31.9545V47.1136H35.5909ZM33.7727 37.8523H26.3295V41.4886H33.7727V37.8523ZM24.5114 39.6705V47.1136H28.1477V39.6705H24.5114ZM26.3295 45.2955H18.8864V48.9318H26.3295V45.2955ZM17.0682 47.1136V54.5568H20.7045V47.1136H17.0682ZM18.8864 52.7386H11.4432V56.375H18.8864V52.7386ZM85.875 54.5568H84.0568L85.875 56.375V54.5568ZM85.875 9.89772H87.6932L85.875 8.07954V9.89772ZM70.9886 9.89772H69.1705L70.9886 11.7159V9.89772ZM70.9886 2.45454V0.636362L69.1705 2.45454H70.9886ZM115.648 2.45454H117.466L115.648 0.636362V2.45454ZM115.648 9.89772V11.7159L117.466 9.89772H115.648ZM100.761 9.89772V8.07954L98.9432 9.89772H100.761ZM100.761 54.5568V56.375L102.58 54.5568H100.761ZM87.6932 54.5568V9.89772H84.0568V54.5568H87.6932ZM85.875 8.07954H70.9886V11.7159H85.875V8.07954ZM72.8068 9.89772V2.45454H69.1705V9.89772H72.8068ZM70.9886 4.27273H115.648V0.636362H70.9886V4.27273ZM113.83 2.45454V9.89772H117.466V2.45454H113.83ZM115.648 8.07954H100.761V11.7159H115.648V8.07954ZM98.9432 9.89772V54.5568H102.58V9.89772H98.9432ZM100.761 52.7386H85.875V56.375H100.761V52.7386Z" fill="#FDF5D8"/>
</g>
<defs>
<filter id="filter0_d" x="0.363703" y="0.636353" width="129.83" height="70.2841" filterUnits="userSpaceOnUse" color-interpolation-filters="sRGB">
<feFlood flood-opacity="0" result="BackgroundImageFix"/>
<feColorMatrix in="SourceAlpha" type="matrix" values="0 0 0 0 0 0 0 0 0 0 0 0 0 0 0 0 0 0 127 0"/>
<feOffset dx="5.45455" dy="7.27273"/>
<feGaussianBlur stdDeviation="3.63636"/>
<feColorMatrix type="matrix" values="0 0 0 0 0 0 0 0 0 0 0 0 0 0 0 0 0 0 0.25 0"/>
<feBlend mode="normal" in2="BackgroundImageFix" result="effect1_dropShadow"/>
<feBlend mode="normal" in="SourceGraphic" in2="effect1_dropShadow" result="shape"/>
</filter>
</defs>
</svg>
