<svg width="30" height="30" viewBox="0 0 30 30" fill="none" xmlns="http://www.w3.org/2000/svg">
<path d="M0 15C0 6.71575 6.71575 0 15 0C23.2843 0 30 6.71575 30 15C30 23.2843 23.2843 30 15 30C6.71575 30 0 23.2843 0 15Z" fill="#333333"/>
<path d="M12 23.9999C13.6569 23.9999 15 22.6568 15 20.9999V17.9999H12C10.3431 17.9999 9 19.3431 9 20.9999C9 22.6568 10.3431 23.9999 12 23.9999Z" fill="#0ACF83"/>
<path d="M9 15C9 13.3431 10.3431 12 12 12H15V18H12C10.3431 18 9 16.6568 9 15Z" fill="#A259FF"/>
<path d="M9 9.00001C9 7.34314 10.3431 6 12 6H15V12H12C10.3431 12 9 10.6568 9 9.00001Z" fill="#F24E1E"/>
<path d="M15 6H18C19.6569 6 21 7.34314 21 9.00001C21 10.6568 19.6569 12 18 12H15V6Z" fill="#FF7262"/>
<path d="M21 15C21 16.6568 19.6569 18 18 18C16.3431 18 15 16.6568 15 15C15 13.3431 16.3431 12 18 12C19.6569 12 21 13.3431 21 15Z" fill="#1ABCFE"/>
</svg>
