<svg width="30" height="30" viewBox="0 0 30 30" fill="none" xmlns="http://www.w3.org/2000/svg">
<path d="M4.46187 26.6897L2.11694 0.389282H27.8832L25.5357 26.6857L14.9844 29.6107L4.46187 26.6897Z" fill="#E44D26"/>
<path d="M15 27.375L23.5261 25.0111L25.5321 2.53967H15V27.375Z" fill="#F16529"/>
<path d="M15 12.2941H10.7316L10.4367 8.99085H15V5.76538H6.9115L6.98884 6.63069L7.7815 15.5198H15V12.2941ZM15 20.6714L14.9857 20.6754L11.3935 19.7051L11.164 17.1328H7.92564L8.37751 22.1974L14.9852 24.0316L15 24.0276V20.6714Z" fill="#EBEBEB"/>
<path d="M14.9888 12.2941V15.5198H18.9607L18.5864 19.7032L14.9888 20.6742V24.0302L21.6017 22.1974L21.6502 21.6525L22.4081 13.1604L22.4867 12.2941H21.6176H14.9888ZM14.9888 5.76538V8.99085H22.7803L22.845 8.26616L22.9922 6.63069L23.0693 5.76538H14.9888Z" fill="white"/>
</svg>
