<svg width="45" height="30" viewBox="0 0 45 30" fill="none" xmlns="http://www.w3.org/2000/svg">
<g clip-path="url(#clip0)">
<path d="M10.5923 27.3856H8.89248C8.83266 24.5684 8.66694 21.9194 8.3961 19.438H8.38112L5.79309 27.3856H4.49863L1.92615 19.438H1.91094C1.72013 21.8211 1.59992 24.4701 1.54998 27.3856H0C0.100116 23.8399 0.350746 20.5161 0.752003 17.4135H2.85886L5.31136 24.7407H5.32634L7.79393 17.4135H9.80987C10.2513 21.0472 10.5119 24.372 10.592 27.3856H10.5923ZM17.9661 20.0283C17.2738 23.7161 16.3608 26.396 15.2275 28.0678C14.3444 29.356 13.377 30 12.3237 30C12.0428 30 11.6965 29.917 11.2856 29.752V28.863C11.4864 28.8919 11.7219 28.9073 11.9928 28.9073C12.4843 28.9073 12.8803 28.7739 13.1816 28.5078C13.5425 28.1834 13.723 27.8189 13.723 27.4149C13.723 27.1391 13.5823 26.5728 13.3018 25.7164L11.4361 20.0283H13.1061L14.4451 24.2824C14.7459 25.2483 14.8714 25.9226 14.8211 26.307C15.5535 24.3864 16.0651 22.2934 16.3561 20.0283H17.966" fill="#00758F"/>
<path d="M25.4123 24.6215C25.4123 25.4672 25.0959 26.1614 24.465 26.7046C23.8336 27.2455 22.9854 27.5166 21.9233 27.5166C20.9298 27.5166 19.967 27.2046 19.0344 26.5855L19.4706 25.7289C20.2732 26.1229 20.9996 26.3195 21.6516 26.3195C22.2633 26.3195 22.7421 26.1859 23.0884 25.9218C23.4341 25.6558 23.6412 25.2849 23.6412 24.8144C23.6412 24.2222 23.2206 23.7162 22.4489 23.2915C21.7365 22.9076 20.3129 22.1063 20.3129 22.1063C19.5415 21.5539 19.1547 20.961 19.1547 19.9843C19.1547 19.1764 19.4431 18.5235 20.0192 18.0268C20.5965 17.5289 21.3414 17.28 22.2536 17.28C23.1965 17.28 24.0538 17.5271 24.826 18.0194L24.4338 18.8753C23.7731 18.6002 23.1216 18.4621 22.4791 18.4621C21.9579 18.4621 21.5563 18.585 21.2761 18.8323C20.9946 19.0773 20.8205 19.3926 20.8205 19.777C20.8205 20.3675 21.2503 20.8798 22.0436 21.3127C22.7649 21.6967 24.2235 22.5136 24.2235 22.5136C25.017 23.065 25.4123 23.653 25.4123 24.6215Z" fill="#F29111"/>
<path fill-rule="evenodd" clip-rule="evenodd" d="M28.4512 25.3907C28.0397 24.7407 27.8337 23.6975 27.8337 22.2592C27.8337 19.7482 28.6112 18.4919 30.1658 18.4919C30.9786 18.4919 31.5752 18.7924 31.9567 19.3928C32.3676 20.043 32.5736 21.0772 32.5736 22.4954C32.5736 25.0265 31.796 26.2926 30.2414 26.2926C29.4288 26.2926 28.8321 25.9924 28.4512 25.3908V25.3907ZM34.4994 27.6261L32.6326 26.7222C32.7988 26.5884 32.9567 26.444 33.0996 26.2768C33.8923 25.362 34.2889 24.0079 34.2889 22.2151C34.2889 18.916 32.9699 17.2655 30.3319 17.2655C29.0379 17.2655 28.0295 17.6839 27.3074 18.5218C26.5146 19.4377 26.1187 20.7868 26.1187 22.5694C26.1187 24.3223 26.4694 25.6082 27.1716 26.4251C27.8113 27.1634 28.7789 27.5331 30.074 27.5331C30.5573 27.5331 31.0007 27.4746 31.4037 27.3578L33.8348 28.7469L34.4977 27.626" fill="#F29111"/>
<path d="M40.5933 27.3856H35.7639V17.4135H37.389V26.1589H40.5933V27.3856ZM41.7522 27.3846H42.0215V26.37H42.3738V26.1628H41.3862V26.37H41.7522V27.3846ZM43.8012 27.3846H44.055V26.1628H43.6733L43.3626 26.9955L43.0243 26.1628H42.6566V27.3846H42.8966V26.4547H42.9103L43.2645 27.3846H43.4475L43.8012 26.4547V27.3846Z" fill="#F29111"/>
<path fill-rule="evenodd" clip-rule="evenodd" d="M42.6336 14.0733C41.6514 14.0492 40.8908 14.1453 40.2529 14.4106C40.0688 14.4829 39.7747 14.4829 39.7495 14.7119C39.8482 14.808 39.8601 14.9645 39.9466 15.0976C40.0935 15.3387 40.3507 15.6633 40.5843 15.8325C40.842 16.0255 41.0998 16.2175 41.37 16.3861C41.8484 16.6766 42.3885 16.8446 42.8542 17.1338C43.125 17.3023 43.394 17.5189 43.6649 17.7002C43.7994 17.7965 43.8845 17.9534 44.0571 18.013V17.9765C43.9706 17.8684 43.9465 17.7118 43.861 17.5906C43.7384 17.471 43.6155 17.3619 43.4926 17.2419C43.1365 16.7721 42.6941 16.3628 42.2167 16.0255C41.8237 15.7597 40.9642 15.3981 40.8053 14.9536L40.7804 14.9291C41.0505 14.9046 41.37 14.808 41.6276 14.735C42.0442 14.6268 42.4247 14.6513 42.8542 14.5431C43.0508 14.4946 43.2472 14.434 43.4444 14.3747V14.2655C43.2223 14.0492 43.0634 13.7595 42.8304 13.5549C42.2049 13.0249 41.5169 12.5071 40.8053 12.0727C40.4244 11.8318 39.9336 11.6759 39.5283 11.4705C39.3819 11.398 39.1367 11.3624 39.0505 11.2412C38.8295 10.9762 38.7062 10.6273 38.5471 10.3135C38.1915 9.65159 37.8473 8.91687 37.541 8.21693C37.3202 7.74731 37.1852 7.27769 36.9151 6.84374C35.6506 4.79496 34.2767 3.55471 32.1659 2.33758C31.7118 2.08415 31.172 1.97578 30.5957 1.84328C30.2884 1.83061 29.9818 1.80716 29.6751 1.79537C29.4784 1.71067 29.2818 1.48159 29.1103 1.3731C28.4105 0.939602 26.6074 2.12789e-05 26.0916 1.24083C25.7602 2.02446 26.5825 2.7952 26.8648 3.19302C27.0734 3.46979 27.3436 3.78358 27.4903 4.09636C27.5762 4.30122 27.6008 4.51852 27.6871 4.73505C27.8832 5.26514 28.067 5.8557 28.3253 6.34989C28.4598 6.60299 28.6069 6.86842 28.7786 7.09628C28.8777 7.22967 29.049 7.28903 29.0859 7.50666C28.9147 7.74731 28.9013 8.10878 28.8032 8.41023C28.3617 9.77186 28.5332 11.4585 29.1593 12.4584C29.3552 12.7597 29.8222 13.4225 30.448 13.1688C31.0002 12.9524 30.8775 12.2656 31.0369 11.6635C31.0737 11.5179 31.049 11.4223 31.1224 11.3261V11.3505C31.2941 11.6873 31.4664 12.0118 31.6258 12.3503C32.0068 12.9401 32.6689 13.5547 33.2215 13.964C33.5153 14.1818 33.7485 14.5547 34.1166 14.6876V14.6512H34.0926C34.0187 14.543 33.9085 14.4944 33.8102 14.4105C33.5894 14.1935 33.3446 13.9283 33.172 13.6875C32.6568 13.013 32.2022 12.2656 31.7981 11.4945C31.6012 11.1202 31.4298 10.7109 31.27 10.3376C31.1966 10.1937 31.1966 9.97616 31.0737 9.90413C30.8891 10.1688 30.6197 10.3981 30.485 10.7224C30.2516 11.2411 30.2273 11.8796 30.1407 12.5426C30.0919 12.5551 30.1167 12.5426 30.0919 12.5665C29.6997 12.4702 29.5647 12.0726 29.4171 11.7364C29.049 10.8798 28.9871 9.50632 29.3067 8.51816C29.3921 8.26562 29.7614 7.47043 29.6135 7.22945C29.5392 6.99958 29.2942 6.8682 29.1594 6.6868C29.0002 6.45782 28.8274 6.16926 28.7181 5.91572C28.4233 5.24124 28.2752 4.49385 27.9571 3.81937C27.8098 3.50558 27.5516 3.18023 27.3436 2.89157C27.11 2.56622 26.8526 2.33736 26.6682 1.95221C26.6074 1.81938 26.5214 1.6023 26.6192 1.45824C26.6433 1.36165 26.6931 1.3253 26.7915 1.30118C26.9501 1.16858 27.4047 1.33698 27.5639 1.40923C28.0183 1.58952 28.3987 1.75914 28.7786 2.01168C28.9507 2.13239 29.1347 2.36126 29.3552 2.42206H29.6135C30.006 2.50576 30.448 2.4454 30.8165 2.55433C31.4664 2.75907 32.0553 3.06019 32.5834 3.38565C34.1904 4.38581 35.5158 5.8079 36.4111 7.50644C36.5587 7.78321 36.6207 8.03653 36.7554 8.32509C37.0131 8.91665 37.3325 9.5191 37.5897 10.0969C37.8473 10.6632 38.0931 11.2411 38.4618 11.7117C38.6454 11.9643 39.3818 12.0969 39.7133 12.2295C39.9582 12.3375 40.3391 12.4341 40.5602 12.5665C40.9773 12.819 41.3937 13.1087 41.787 13.3862C41.9829 13.5307 42.5966 13.8317 42.6336 14.0731" fill="#00758F"/>
<path fill-rule="evenodd" clip-rule="evenodd" d="M30.1164 3.60143C29.9467 3.60022 29.7776 3.62058 29.6133 3.66201V3.68613H29.6371C29.7362 3.87843 29.9082 4.01203 30.0299 4.18043C30.1286 4.37328 30.2148 4.56535 30.3127 4.75843C30.3249 4.74653 30.3366 4.73397 30.3366 4.73397C30.5097 4.61393 30.5954 4.42141 30.5954 4.13174C30.5213 4.04682 30.5097 3.96312 30.4478 3.87843C30.3744 3.75827 30.2148 3.69802 30.1164 3.60143Z" fill="#00758F"/>
</g>
<defs>
<clipPath id="clip0">
<rect width="45" height="30" fill="white"/>
</clipPath>
</defs>
</svg>
