<svg width="30" height="30" viewBox="0 0 30 30" fill="none" xmlns="http://www.w3.org/2000/svg">
<path d="M0.0883789 14.9675C0.0883789 17.4738 2.28707 19.8134 5.75333 21.1322C5.06113 25.011 5.62935 28.1373 7.527 29.3555C9.4775 30.6076 12.3834 29.7409 15.1415 27.0572C17.83 29.6325 20.5471 30.646 22.4431 29.4243C24.3919 28.1686 24.9845 24.8303 24.2732 20.8304C27.8836 19.5018 29.9031 17.5068 29.9031 14.9675C29.9031 12.5193 27.7004 10.4015 24.2808 9.09113C25.0466 4.92595 24.3977 1.87547 22.4215 0.606995C20.5162 -0.615961 17.7674 0.449952 15.0394 3.09256C12.2013 0.287691 9.47973 -0.568613 7.50555 0.703387C5.60204 1.92986 5.0589 5.11313 5.75333 9.0636C2.40402 10.3634 0.0883789 12.5293 0.0883789 14.9675Z" fill="white"/>
<path d="M23.5568 10.3922C23.275 10.2846 22.9907 10.1849 22.7044 10.0932C22.7519 9.87847 22.7958 9.66273 22.8361 9.44615C23.4813 5.95989 23.0595 3.15137 21.6188 2.22685C20.2376 1.34015 17.9785 2.26467 15.697 4.47463C15.4721 4.69289 15.2523 4.91744 15.0377 5.14807C14.894 4.99472 14.7477 4.84434 14.599 4.69702C12.2078 2.3338 9.81108 1.33807 8.37195 2.26533C6.992 3.1545 6.58327 5.79489 7.16414 9.09881C7.22194 9.42599 7.28719 9.75148 7.35984 10.075C7.02071 10.1822 6.69318 10.2965 6.37984 10.418C3.57658 11.5058 1.78625 13.2109 1.78625 14.9793C1.78625 16.8059 3.70806 18.638 6.62803 19.7488C6.8648 19.8385 7.10353 19.9215 7.34402 19.9979C7.26589 20.3464 7.19653 20.6973 7.13602 21.0501C6.58221 24.2967 7.01474 26.8745 8.39105 27.7582C9.8126 28.6705 12.1985 27.7327 14.5217 25.4723C14.7054 25.2936 14.8897 25.1041 15.0742 24.9054C15.3067 25.1551 15.5454 25.3975 15.79 25.6323C18.0404 27.7878 20.2629 28.6582 21.638 27.7721C23.0583 26.857 23.5198 24.0877 22.9205 20.7185C22.8748 20.4611 22.8215 20.1983 22.7617 19.9306C22.9293 19.8756 23.0937 19.8187 23.2541 19.7595C26.2896 18.6401 28.2645 16.8303 28.2645 14.9793C28.2645 13.2045 26.4165 11.488 23.5568 10.3922Z" fill="#53C1DE"/>
<path d="M22.8981 18.5646C22.7533 18.6179 22.6048 18.6694 22.4534 18.7194C22.1182 17.5386 21.6659 16.2829 21.1126 14.9857C21.6407 13.7192 22.0754 12.4797 22.4012 11.3064C22.672 11.3938 22.935 11.4858 23.1883 11.5829C25.6386 12.5217 27.1331 13.9099 27.1331 14.9795C27.1331 16.1188 25.519 17.5979 22.8982 18.5646H22.8981ZM21.8106 20.9631C22.0756 22.453 22.1134 23.8 21.9379 24.853C21.7801 25.7991 21.463 26.4299 21.071 26.6826C20.2365 27.2202 18.4519 26.5214 16.5276 24.6781C16.3069 24.4668 16.0846 24.2411 15.8617 24.0024C16.6078 23.0941 17.3535 22.0381 18.0812 20.8654C19.3613 20.7391 20.5706 20.5323 21.6673 20.2502C21.7212 20.4928 21.7692 20.7306 21.8106 20.9631ZM10.8131 26.5897C9.99784 26.9102 9.34854 26.9193 8.95609 26.6674C8.12082 26.1314 7.77373 24.0614 8.24726 21.2851C8.30357 20.957 8.36805 20.6307 8.44061 20.3065C9.52513 20.5735 10.7257 20.7657 12.0088 20.8815C12.7413 22.0289 13.5085 23.0836 14.2817 24.0072C14.1173 24.1842 13.9491 24.3566 13.7772 24.5243C12.7499 25.5239 11.7204 26.233 10.8132 26.5897H10.8131ZM6.99376 18.5575C5.70265 18.0663 4.63641 17.428 3.90555 16.7315C3.24886 16.1054 2.91724 15.4838 2.91724 14.9795C2.91724 13.9064 4.35471 12.5374 6.75214 11.6071C7.05305 11.4908 7.35695 11.3844 7.66346 11.2879C7.99485 12.4875 8.42948 13.7418 8.95399 15.0101C8.42268 16.2974 7.98184 17.5716 7.64741 18.7853C7.42788 18.7153 7.20994 18.6394 6.99376 18.5575ZM8.2741 8.8571C7.77642 6.02628 8.10688 3.89093 8.93852 3.3551C9.82441 2.78432 11.7831 3.59823 13.8476 5.63862C13.9796 5.76906 14.1121 5.90562 14.2449 6.04688C13.4757 6.96632 12.7155 8.01306 11.9894 9.15384C10.7441 9.28232 9.55197 9.48867 8.45608 9.76506C8.38857 9.46411 8.32789 9.16132 8.2741 8.85697V8.8571ZM19.6955 11.9963C19.4366 11.4986 19.1682 11.0072 18.8903 10.5224C19.7352 10.6411 20.5446 10.7989 21.3046 10.9921C21.0765 11.8061 20.7921 12.6573 20.4572 13.5299C20.2125 13.0131 19.9585 12.5018 19.6955 11.9963ZM15.0378 6.94662C15.5595 7.57571 16.0821 8.27823 16.596 9.04036C15.5534 8.98553 14.5091 8.98526 13.4665 9.03958C13.981 8.28449 14.5079 7.58301 15.0378 6.94662ZM10.3503 12.0049C10.0906 12.5064 9.84138 13.0146 9.60294 13.529C9.27354 12.6594 8.99172 11.8044 8.76157 10.9788C9.51704 10.7905 10.3227 10.6368 11.162 10.52C10.8811 11.0078 10.6104 11.5029 10.3503 12.0049ZM11.1862 19.5288C10.319 19.421 9.50123 19.2751 8.74599 19.0921C8.97977 18.2518 9.2678 17.3784 9.60423 16.4901C9.84368 17.005 10.094 17.5135 10.3549 18.0152C10.6211 18.527 10.8983 19.0317 11.1862 19.5288ZM15.0691 23.1012C14.533 22.4573 13.9983 21.7451 13.476 20.9791C13.983 21.0012 14.4999 21.0124 15.0252 21.0124C15.5649 21.0124 16.0985 20.999 16.6235 20.9729C16.1079 21.7529 15.5873 22.4661 15.0691 23.1012ZM20.4679 16.4449C20.8218 17.3428 21.1202 18.2115 21.3571 19.0375C20.5893 19.2325 19.7605 19.3896 18.8872 19.5062C19.167 19.0123 19.438 18.5123 19.7 18.0064C19.9664 17.4923 20.2224 16.9717 20.4679 16.4449ZM18.7202 17.3775C18.3191 18.1531 17.8954 18.9139 17.4499 19.6588C16.6643 19.7213 15.8525 19.7535 15.0252 19.7535C14.2013 19.7535 13.3998 19.7249 12.6279 19.6692C12.1708 18.9261 11.7391 18.1639 11.3338 17.3844C10.9304 16.609 10.5536 15.8169 10.2042 15.0097C10.5527 14.2023 10.9284 13.4097 11.3304 12.6337V12.634C11.7324 11.8578 12.1606 11.0989 12.6143 10.3589C13.4017 10.2927 14.2091 10.258 15.0253 10.258C15.8451 10.258 16.6535 10.2929 17.4408 10.3597C17.8899 11.0986 18.3154 11.8548 18.7165 12.6271C19.12 13.4013 19.5007 14.19 19.858 14.9918C19.5043 15.8018 19.1248 16.5976 18.7203 17.3775H18.7202ZM21.0536 3.31767C21.9402 3.88688 22.2851 6.18215 21.728 9.19219C21.6915 9.38828 21.6518 9.58361 21.6089 9.7781C20.5105 9.49597 19.3176 9.28597 18.0686 9.15554C17.3411 8.00236 16.5872 6.9538 15.8305 6.04623C16.0288 5.83343 16.2318 5.62615 16.4393 5.42458C18.3942 3.53093 20.2212 2.78328 21.0536 3.31767Z" fill="white"/>
<path d="M15.0253 12.3477C16.3312 12.3477 17.3897 13.526 17.3897 14.9794C17.3897 16.433 16.3312 17.6113 15.0253 17.6113C13.7195 17.6113 12.6609 16.433 12.6609 14.9794C12.6609 13.526 13.7195 12.3477 15.0253 12.3477Z" fill="#53C1DE"/>
</svg>
