<svg width="70" height="30" viewBox="0 0 70 30" fill="none" xmlns="http://www.w3.org/2000/svg">
<g clip-path="url(#clip0)">
<path fill-rule="evenodd" clip-rule="evenodd" d="M65.1756 12.4243C65.1127 12.4432 65.0495 12.6518 65.0495 12.7654C65.0369 13.5239 65.0243 15.5336 65.0243 16.8986C65.0243 16.9366 65.0621 17.0124 65.0999 17.0124C65.2892 17.0313 65.7433 17.0502 66.1345 17.0502C66.677 17.0502 66.9924 16.9366 67.1692 16.823C67.6232 16.4815 67.8377 15.7421 67.8377 14.9267C67.8377 13.0879 66.9798 12.3863 65.7055 12.3863C65.6172 12.3674 65.365 12.3674 65.1756 12.4243ZM68.4308 20.8991C68.4308 19.0221 67.5097 17.9792 65.8444 17.9792C65.7686 17.9792 65.2387 17.9603 65.1125 17.9981C65.0747 18.0172 65.0243 18.0552 65.0243 18.1122C65.0243 19.458 65.0116 21.6007 65.0495 22.4348C65.0747 22.7949 65.2514 23.3069 65.4659 23.4585C65.6929 23.6482 66.2102 23.686 66.5635 23.686C67.5602 23.686 68.4308 22.8518 68.4308 20.8991ZM62.602 11.3817C62.728 11.3817 63.1065 11.4384 64.078 11.4384C64.999 11.4384 65.7308 11.4006 66.6265 11.4006C67.7241 11.4006 69.2381 11.9882 69.2381 14.4529C69.2381 15.6663 68.6703 16.6333 67.9261 17.1073C67.8883 17.1262 67.8883 17.164 67.9261 17.1829C68.9858 17.5813 69.9195 18.567 69.9195 20.4249C69.9195 22.2452 69.1625 23.4016 68.0648 24.1221C67.3961 24.5581 66.5635 24.7097 65.7182 24.7097C65.0747 24.7097 63.3463 24.5961 62.3875 24.6341C62.2866 24.577 62.4758 23.8945 62.564 23.7809C62.7912 23.7618 62.9677 23.7429 63.2075 23.629C63.5482 23.4965 63.5859 23.3447 63.6364 22.5675C63.6617 21.9039 63.6617 19.5528 63.6617 17.8845C63.6617 15.5905 63.6744 14.0359 63.6617 13.2775C63.6491 12.69 63.5103 12.5001 63.2328 12.3863C63.0181 12.3296 62.665 12.2536 62.3747 12.1969C62.3116 12.102 62.5261 11.4573 62.602 11.3817ZM55.322 23.1742C55.6249 23.5341 56.2179 23.6858 56.7478 23.6858C57.4291 23.6858 58.1103 23.4965 58.7665 22.6051C59.4352 21.6954 59.9019 20.2924 59.9019 18.0552C59.9019 15.9126 59.3594 14.1684 58.2491 13.1448C57.6183 12.5568 56.8108 12.3107 55.8772 12.3107C55.5997 12.3107 55.3347 12.3296 55.1708 12.4432C55.1328 12.4812 55.0446 12.6518 55.0446 12.7465C55.0193 13.1257 55.0193 16.0453 55.0193 17.7518C55.0193 19.515 55.0193 21.9797 55.0446 22.2641C55.0446 22.5486 55.1328 22.9846 55.3221 23.1742H55.322ZM52.458 11.3815C52.6978 11.3815 53.6187 11.4384 54.0603 11.4384C54.8554 11.4384 55.423 11.3817 56.9243 11.3817C58.186 11.3817 59.2458 11.8934 60.0028 12.8603C60.9237 14.0548 61.4034 15.7043 61.4034 17.7138C61.4034 20.5767 60.5327 22.2262 59.6621 23.1742C58.7918 24.141 57.6562 24.7097 56.0413 24.7097C55.1833 24.7097 53.7072 24.6719 52.4833 24.6528H52.4707C52.4077 24.4823 52.5716 23.8187 52.6725 23.7998C53.0006 23.7429 53.089 23.7238 53.253 23.6293C53.5178 23.4774 53.5684 23.2689 53.6063 22.5675C53.644 21.2592 53.6315 19.6857 53.6315 17.9034C53.6315 16.6333 53.644 14.1495 53.6187 13.3532C53.581 12.6898 53.3918 12.519 53.0132 12.4052C52.824 12.3485 52.5716 12.2725 52.2185 12.2158C52.1679 12.0829 52.395 11.4953 52.458 11.3817V11.3815Z" fill="#8E714E"/>
<path fill-rule="evenodd" clip-rule="evenodd" d="M37.192 23.9134C36.8766 23.8565 36.6495 23.7809 36.3719 23.5912C36.3341 23.5532 36.2709 23.3638 36.2709 23.2878C36.2457 22.6242 36.2457 20.7283 36.2457 19.4582C36.2457 18.4343 36.1323 17.5432 35.842 16.9177C35.5013 16.1969 35.0094 15.7801 34.3784 15.7801C33.8234 15.7801 33.0789 16.3488 32.4607 17.1451C32.4481 17.164 32.3472 17.2969 32.3598 17.0882C32.3598 16.8796 32.3851 16.4626 32.3977 16.178C32.4104 15.9126 32.3093 15.7801 32.3093 15.7801C31.9056 16.0833 30.7702 16.4815 30.3537 16.5382C30.051 16.6333 29.9753 17.0693 30.2908 17.2209H30.3034C30.6438 17.3725 30.8711 17.5432 31.0476 17.714C31.1737 17.8656 31.1612 18.0741 31.1612 18.2449C31.1737 19.6666 31.1737 21.847 31.136 23.0414C31.1234 23.5154 31.0351 23.6859 30.8079 23.7617L30.8332 23.7428C30.6565 23.7998 30.5178 23.8565 30.3033 23.8945C30.2275 24.0083 30.2275 24.615 30.3033 24.7477C30.442 24.7477 31.1737 24.6908 31.7795 24.6908C32.6122 24.6908 33.0412 24.7477 33.2556 24.7477C33.3439 24.5961 33.3692 24.0272 33.3187 23.8945C33.0789 23.8756 32.9023 23.8378 32.7384 23.7617C32.5113 23.6857 32.4481 23.5154 32.4354 23.1173C32.4104 22.1122 32.4104 19.9889 32.4104 18.5481C32.4104 18.1499 32.486 17.9603 32.5616 17.8465C32.8518 17.4674 33.3187 17.202 33.735 17.202C34.1388 17.202 34.4036 17.3916 34.6055 17.6382C34.8831 17.9792 34.9714 18.4723 35.0093 18.8324C35.0723 19.6476 35.0471 21.2592 35.0471 22.6622C35.0471 23.4205 35.0093 23.6101 34.8202 23.7048C34.7317 23.7617 34.5046 23.8378 34.2397 23.8754C34.1513 24.0083 34.1766 24.5961 34.2397 24.7288C34.6055 24.7288 35.0345 24.6719 35.6654 24.6719C36.4475 24.6719 36.9523 24.7288 37.1542 24.7288C37.2171 24.615 37.2424 24.0652 37.192 23.9134ZM40.6868 16.6713C40.0182 16.6713 39.6018 17.4485 39.6018 18.6617C39.6018 19.8942 39.9676 21.3161 41.0022 21.3161C41.1788 21.3161 41.507 21.2023 41.6582 20.9368C41.898 20.5958 42.062 19.9131 42.062 19.1926C42.062 17.6191 41.5447 16.6711 40.6868 16.6711V16.6713ZM40.5985 25.0509C40.3462 25.0509 40.1694 25.1648 40.056 25.2597C39.526 25.7712 39.2864 26.2643 39.2864 26.8523C39.2864 27.4019 39.4251 27.8378 39.728 28.2171C40.0938 28.6911 40.5985 28.9187 41.2419 28.9187C42.5288 28.9187 43.0966 27.8758 43.0966 26.8523C43.0966 26.1316 42.8568 25.6576 42.3649 25.3924C42.0116 25.1648 41.3682 25.0509 40.5985 25.0509ZM40.6868 29.9805C39.9172 29.9805 39.362 29.7339 38.8826 29.1841C38.4157 28.6533 38.2139 27.8569 38.2139 27.3072C38.2139 27.1555 38.2392 26.7383 38.4663 26.3592C38.605 26.1316 38.9079 25.6956 39.6271 24.9562C39.6522 24.9373 39.6648 24.9184 39.6648 24.8802C39.6648 24.8424 39.6395 24.8044 39.6144 24.7857C39.0214 24.4444 38.8448 23.8945 38.7942 23.5912V23.5532C38.7817 23.4394 38.7564 23.3258 38.8701 23.212C38.9584 23.1173 39.0846 23.0034 39.2232 22.8709C39.4377 22.6811 39.6648 22.4726 39.8036 22.3018C39.8289 22.264 39.8289 22.2262 39.8289 22.1882C39.8289 22.1502 39.8036 22.1122 39.7783 22.0935C38.8953 21.6573 38.4537 20.6714 38.4537 19.1926C38.4537 18.2257 38.7439 17.3536 39.2611 16.8038C39.6144 16.3868 40.4976 15.8748 41.0779 15.8748H41.1158C41.7087 15.8937 42.0367 16.0833 42.5035 16.3299C42.7559 16.4626 42.9957 16.5193 43.3238 16.5193C43.8157 16.5193 44.0302 16.2919 44.2067 16.0266C44.2195 16.0644 44.2447 16.1593 44.2573 16.4057C44.2699 16.6522 44.2194 17.0124 44.0933 17.2778C43.9924 17.4863 43.7653 17.6382 43.5382 17.6382H43.475C43.2479 17.6002 43.1469 17.5621 43.1469 17.5621L43.0966 17.6002C43.084 17.6382 43.0966 17.676 43.1092 17.7329L43.1219 17.7709C43.147 17.9414 43.1975 18.4532 43.1975 18.5861C43.1975 20.1407 42.7812 20.823 42.3396 21.335C41.9105 21.809 41.4186 22.1122 40.8634 22.1882C40.8508 22.1882 40.8005 22.1882 40.6868 22.2071C40.6237 22.2071 40.5354 22.2262 40.5227 22.2262H40.5101C40.4092 22.264 40.157 22.4537 40.157 22.7758C40.157 23.0601 40.2705 23.4016 40.813 23.4585C40.9264 23.4774 41.0399 23.4774 41.1662 23.4965C41.8854 23.5721 42.7812 23.667 43.1975 23.8756C43.7779 24.1977 44.1437 24.9751 44.1437 25.9042C44.1437 27.3074 43.4752 28.6155 42.3649 29.4305C41.8224 29.7908 41.2797 29.9805 40.6868 29.9805ZM47.8782 16.766C47.6134 16.766 47.3736 16.8605 47.1969 17.0502C46.705 17.5052 46.4526 18.4154 46.4526 19.7424C46.4526 22.2262 47.2852 23.9705 48.4713 23.9705C48.8245 23.9705 49.1021 23.8187 49.3418 23.5154C49.7076 23.0601 49.897 22.1502 49.897 20.8799C49.897 18.4154 49.0768 16.7658 47.8783 16.7658L47.8782 16.766ZM48.1054 24.8804C45.9606 24.8804 45.191 22.5106 45.191 20.2923C45.191 18.7377 45.6073 17.5432 46.4399 16.69C47.033 16.1402 47.7395 15.837 48.3704 15.837C50.0104 15.837 51.1586 17.6002 51.1586 20.1407C51.1586 21.8659 50.7044 23.2309 49.8338 24.0652C49.4175 24.4823 48.6984 24.8804 48.1053 24.8804H48.1054ZM25.6226 16.7658C25.3576 16.7658 25.1179 16.8605 24.9411 17.0502C24.4492 17.5052 24.1969 18.4154 24.1969 19.7424C24.1969 22.2262 25.0295 23.9705 26.2155 23.9705C26.5688 23.9705 26.8463 23.8187 27.0861 23.5154C27.4519 23.0601 27.6412 22.1502 27.6412 20.8799C27.6412 18.4154 26.8337 16.7658 25.6226 16.7658ZM25.8496 24.8804C23.7048 24.8804 22.9352 22.5106 22.9352 20.2923C22.9352 18.7377 23.3515 17.5432 24.1841 16.69C24.7772 16.1402 25.4838 15.837 26.1146 15.837C27.7548 15.837 28.9028 17.6002 28.9028 20.1407C28.9028 21.8659 28.4487 23.2309 27.578 24.0652C27.1743 24.4823 26.4552 24.8804 25.8496 24.8804ZM11.4288 24.6908C11.4035 24.6341 11.3782 24.4634 11.391 24.2548C11.391 24.103 11.4162 24.0083 11.4288 23.9705C11.6938 23.9134 11.8326 23.8565 11.9839 23.7998C12.2363 23.7048 12.3372 23.4965 12.3498 23.0225C12.3878 21.885 12.3878 19.7235 12.3751 18.2257V18.1877C12.3751 18.0172 12.3751 17.8085 12.2363 17.6569C12.0344 17.4674 11.7947 17.2969 11.4793 17.1638C11.3658 17.1073 11.2901 17.0124 11.3026 16.8988C11.3026 16.7849 11.3784 16.6522 11.5424 16.6142C11.9587 16.5573 13.0436 16.1593 13.4726 15.8748C13.4979 15.9126 13.5358 16.0266 13.5358 16.1782L13.5232 16.3866C13.5105 16.5953 13.4979 16.8418 13.4979 17.0882C13.4979 17.164 13.5485 17.2209 13.5988 17.2209C13.6241 17.2209 13.6494 17.202 13.6746 17.1829C14.482 16.235 15.2137 15.8937 15.5922 15.8937C16.2106 15.8937 16.69 16.3299 17.0559 17.2398C17.081 17.2969 17.1063 17.3158 17.1442 17.3158C17.1694 17.3158 17.2071 17.2969 17.2198 17.2589C17.9643 16.4057 18.7087 15.8937 19.2006 15.8937C20.3739 15.8937 21.0679 17.202 21.0679 19.4202C21.0679 20.0458 21.0679 20.861 21.0553 21.6006C21.0553 22.264 21.0427 22.8707 21.0427 23.3069C21.0427 23.4014 21.1309 23.7048 21.2697 23.7617C21.4463 23.8945 21.6861 23.9514 22.0016 24.0272H22.0141C22.0394 24.1599 21.989 24.6528 21.9385 24.7477C21.8628 24.7477 21.7492 24.7477 21.6231 24.7288C21.3037 24.7037 20.984 24.6911 20.6642 24.6908C19.882 24.6908 19.4783 24.7097 19.087 24.7477C19.062 24.5961 19.0493 24.141 19.087 24.0272C19.3142 23.9705 19.4277 23.9134 19.5666 23.8567C19.819 23.7428 19.882 23.5721 19.8947 23.0792C19.8947 22.7191 19.945 19.6477 19.8693 18.9082C19.7937 18.1499 19.4151 17.2589 18.5824 17.2589C18.2669 17.2589 17.775 17.4485 17.2956 17.9981C17.2704 18.0361 17.245 18.1308 17.245 18.1877V18.2068C17.2956 18.6048 17.2956 19.0601 17.2956 19.7615V20.9937C17.2956 21.847 17.2828 22.6433 17.2956 23.2498C17.2956 23.667 17.4596 23.7617 17.5984 23.8378C17.6741 23.8565 17.7244 23.8756 17.7876 23.8945C17.9011 23.9325 18.0147 23.9705 18.1913 24.0272C18.2166 24.1032 18.2166 24.3495 18.1788 24.5581C18.166 24.6719 18.1408 24.7286 18.1282 24.7477C17.6993 24.7288 17.2577 24.7097 16.6143 24.7097C16.4251 24.7097 16.0969 24.7288 15.8194 24.7288C15.5922 24.7288 15.3778 24.7477 15.2518 24.7477C15.239 24.7097 15.2137 24.5772 15.2137 24.3684C15.2137 24.1979 15.239 24.0652 15.2643 24.0272C15.3274 24.0083 15.3778 23.9894 15.441 23.9894C15.5922 23.9514 15.7185 23.9134 15.8446 23.8756C16.0592 23.7809 16.1348 23.6101 16.1474 23.1931C16.1853 22.2451 16.2231 19.534 16.1348 18.8513C15.9835 17.7518 15.5672 17.202 14.8983 17.202C14.5073 17.202 14.0151 17.4863 13.6115 17.9416C13.5484 18.0172 13.4979 18.2066 13.4979 18.3774V19.496C13.4979 20.861 13.4979 22.5675 13.5105 23.3069C13.5232 23.5341 13.5735 23.7998 13.8638 23.8945C13.9269 23.9134 14.0278 23.9514 14.154 23.9705L14.381 24.0272C14.4064 24.141 14.3937 24.5961 14.3433 24.7477C14.2171 24.7477 14.0657 24.7288 13.8889 24.7288C13.6241 24.7097 13.2834 24.6908 12.905 24.6908C12.4634 24.6908 12.148 24.7097 11.8956 24.7288C11.7189 24.6908 11.5802 24.6908 11.4288 24.6908Z" fill="#7E5542"/>
<path fill-rule="evenodd" clip-rule="evenodd" d="M4.7925 29.241L4.2753 28.9754C4.2753 28.9754 4.33846 25.0131 3.3921 24.7288C2.76142 23.629 3.49327 -21.9106 5.76416 24.577C5.76416 24.577 4.98186 25.1645 4.84309 26.1696C4.6916 27.1555 4.7925 29.241 4.7925 29.241Z" fill="white"/>
<path fill-rule="evenodd" clip-rule="evenodd" d="M4.7925 29.241L4.2753 28.9754C4.2753 28.9754 4.33846 25.0131 3.3921 24.7288C2.76142 23.629 3.49327 -21.9106 5.76416 24.577C5.76416 24.577 4.98186 25.1645 4.84309 26.1696C4.6916 27.1555 4.7925 29.241 4.7925 29.241Z" fill="#A6A385"/>
<path fill-rule="evenodd" clip-rule="evenodd" d="M5.07003 25.4113C5.07003 25.4113 9.59951 20.9369 8.53953 11.6278C7.5177 4.85974 5.1079 2.64152 4.84294 1.78829C4.55282 1.18161 4.27515 0.120056 4.27515 0.120056L4.4645 18.9461C4.4645 18.9652 4.07335 24.7097 5.07016 25.4115" fill="white"/>
<path fill-rule="evenodd" clip-rule="evenodd" d="M5.07003 25.4113C5.07003 25.4113 9.59951 20.9369 8.53953 11.6278C7.5177 4.85974 5.1079 2.64152 4.84294 1.78829C4.55282 1.18161 4.27515 0.120056 4.27515 0.120056L4.4645 18.9461C4.4645 18.9652 4.07335 24.7097 5.07016 25.4115" fill="#499D4A"/>
<path fill-rule="evenodd" clip-rule="evenodd" d="M4.01012 25.6576C4.01012 25.6576 -0.24182 21.297 0.0105627 13.6188C0.25023 5.94036 3.25298 2.16752 3.83335 1.48502C4.21192 0.87833 4.2245 0.650694 4.24979 0.0440063C4.51475 0.897232 4.4643 12.8036 4.50204 14.2064C4.61551 19.6096 4.30024 24.6341 4.01012 25.6576Z" fill="white"/>
<path fill-rule="evenodd" clip-rule="evenodd" d="M4.01012 25.6576C4.01012 25.6576 -0.24182 21.297 0.0105627 13.6188C0.25023 5.94036 3.25298 2.16752 3.83335 1.48502C4.21192 0.87833 4.2245 0.650694 4.24979 0.0440063C4.51475 0.897232 4.4643 12.8036 4.50204 14.2064C4.61551 19.6096 4.30024 24.6341 4.01012 25.6576Z" fill="#58AA50"/>
</g>
<defs>
<clipPath id="clip0">
<rect width="70" height="30" fill="white"/>
</clipPath>
</defs>
</svg>
