<svg width="45" height="30" viewBox="0 0 45 30" fill="none" xmlns="http://www.w3.org/2000/svg">
<g clip-path="url(#clip0)">
<path d="M22.2459 29.9134C22.0936 29.9134 21.9514 29.8693 21.8193 29.792L20.4686 28.9197C20.2654 28.7982 20.367 28.754 20.428 28.732C20.7021 28.6326 20.7529 28.6104 21.0373 28.4339C21.0678 28.4117 21.1085 28.4228 21.1389 28.4449L22.1749 29.1184C22.2155 29.1405 22.2663 29.1405 22.2967 29.1184L26.3492 26.5677C26.3898 26.5456 26.4102 26.5014 26.4102 26.4462V21.3558C26.4102 21.3005 26.3898 21.2564 26.3492 21.2343L22.2967 18.6946C22.2561 18.6724 22.2053 18.6724 22.1749 18.6946L18.1224 21.2343C18.0818 21.2563 18.0614 21.3115 18.0614 21.3557V26.4461C18.0614 26.4904 18.0818 26.5455 18.1224 26.5677L19.2295 27.2633C19.8287 27.5945 20.2045 27.2081 20.2045 26.8216V21.7974C20.2045 21.7312 20.2553 21.6649 20.3264 21.6649H20.8443C20.9053 21.6649 20.9662 21.7201 20.9662 21.7974V26.8216C20.9662 27.6939 20.5295 28.2019 19.7677 28.2019C19.5341 28.2019 19.3514 28.2019 18.8333 27.9258L17.7669 27.2633C17.5028 27.0977 17.3403 26.7885 17.3403 26.4572V21.3668C17.3403 21.0355 17.5028 20.7263 17.7669 20.5607L21.8193 18.0099C22.0733 17.8553 22.4187 17.8553 22.6726 18.0099L26.725 20.5607C26.9891 20.7263 27.1517 21.0355 27.1517 21.3668V26.4572C27.1517 26.7885 26.9891 27.0977 26.725 27.2633L22.6726 29.8141C22.5405 29.8804 22.3882 29.9134 22.246 29.9134H22.2459ZM23.4952 26.4131C21.7178 26.4131 21.3522 25.5297 21.3522 24.7788C21.3522 24.7125 21.403 24.6463 21.4741 24.6463H22.0022C22.0631 24.6463 22.1139 24.6905 22.1139 24.7568C22.1952 25.342 22.4288 25.6291 23.5054 25.6291C24.3585 25.6291 24.7243 25.4193 24.7243 24.9223C24.7243 24.6352 24.6226 24.4255 23.2921 24.2819C22.185 24.1604 21.4944 23.8955 21.4944 22.9348C21.4944 22.0403 22.1851 21.5103 23.3429 21.5103C24.6429 21.5103 25.2828 21.9962 25.3641 23.0561C25.3641 23.0894 25.3539 23.1224 25.3336 23.1556C25.3132 23.1777 25.2828 23.1997 25.2523 23.1997H24.7242C24.6734 23.1997 24.6226 23.1556 24.6125 23.1004C24.4906 22.4931 24.1757 22.2943 23.3429 22.2943C22.4085 22.2943 22.2967 22.6477 22.2967 22.9126C22.2967 23.2329 22.4288 23.3322 23.6882 23.5089C24.9375 23.6857 25.5266 23.9396 25.5266 24.8892C25.5164 25.8609 24.7852 26.4131 23.4952 26.4131Z" fill="#539E43"/>
<path d="M9.67204 10.0043C9.67204 9.80557 9.57045 9.61773 9.40796 9.51837L5.10154 6.8241C5.03036 6.77987 4.94916 6.7578 4.86796 6.74671H4.82727C4.74607 6.74671 4.66478 6.77987 4.59369 6.8241L0.28727 9.51837C0.124694 9.61773 0.0231934 9.80547 0.0231934 10.0043L0.0333873 17.248C0.0333873 17.3473 0.0841814 17.4467 0.165382 17.4909C0.24667 17.5461 0.34817 17.5461 0.419352 17.4909L2.97883 15.9008C3.14131 15.8015 3.2429 15.6137 3.2429 15.415V12.025C3.2429 11.8263 3.3444 11.6385 3.50698 11.5392L4.59369 10.8545C4.67498 10.7993 4.76637 10.7771 4.85777 10.7771C4.94916 10.7771 5.04055 10.7993 5.11174 10.8545L6.19845 11.5392C6.36102 11.6385 6.46252 11.8262 6.46252 12.025V15.415C6.46252 15.6137 6.56411 15.8015 6.7266 15.9008L9.28607 17.4909C9.36736 17.5461 9.46886 17.5461 9.55015 17.4909C9.63144 17.4467 9.68223 17.3473 9.68223 17.248L9.67204 10.0043ZM30.3713 0.0331157C30.2901 -0.01112 30.1885 -0.01112 30.1173 0.0331157C30.0361 0.0883387 29.9853 0.176619 29.9853 0.275982V7.45353C29.9853 7.51974 29.9549 7.58595 29.894 7.63019C29.8331 7.66324 29.7721 7.66324 29.7112 7.63019L28.6346 6.95662C28.5556 6.90776 28.4664 6.88207 28.3755 6.88207C28.2847 6.88207 28.1954 6.90776 28.1165 6.95662L23.8101 9.66197C23.6476 9.76133 23.546 9.94907 23.546 10.1478V15.5474C23.546 15.7461 23.6476 15.934 23.8101 16.0333L28.1165 18.7387C28.1954 18.7875 28.2847 18.8132 28.3755 18.8132C28.4664 18.8132 28.5556 18.7875 28.6346 18.7387L32.941 16.0333C33.1035 15.934 33.2051 15.7462 33.2051 15.5474V2.08697C33.2051 1.87716 33.1035 1.68952 32.941 1.59006L30.3714 0.0331157H30.3713ZM29.9752 13.7697C29.9752 13.8249 29.9549 13.869 29.9143 13.8911L28.4416 14.8186C28.421 14.8295 28.3984 14.8352 28.3755 14.8352C28.3527 14.8352 28.3301 14.8295 28.3095 14.8186L26.8368 13.8911C26.7961 13.869 26.7758 13.8138 26.7758 13.7697V11.9145C26.7758 11.8593 26.7961 11.8152 26.8368 11.7931L28.3095 10.8655C28.3301 10.8546 28.3527 10.8489 28.3755 10.8489C28.3984 10.8489 28.421 10.8546 28.4416 10.8655L29.9143 11.7931C29.9549 11.8151 29.9752 11.8704 29.9752 11.9145V13.7697ZM44.7024 11.8704C44.8649 11.771 44.9563 11.5833 44.9563 11.3845V10.0705C44.9563 9.87178 44.8547 9.68404 44.7024 9.58468L40.4264 6.89041C40.3475 6.84157 40.2583 6.81588 40.1674 6.81588C40.0766 6.81588 39.9874 6.84157 39.9085 6.89041L35.602 9.59566C35.4395 9.69503 35.338 9.88277 35.338 10.0816V15.4812C35.338 15.6799 35.4395 15.8677 35.602 15.967L39.878 18.6172C40.0405 18.7165 40.2334 18.7165 40.3858 18.6172L42.9757 17.0493C43.057 17.0051 43.1078 16.9057 43.1078 16.8064C43.1078 16.707 43.057 16.6076 42.9757 16.5634L38.649 13.8581C38.5678 13.8029 38.517 13.7145 38.517 13.6152V11.9257C38.517 11.8264 38.5678 11.727 38.649 11.6828L39.9999 10.8435C40.0394 10.8165 40.0852 10.8021 40.1319 10.8021C40.1786 10.8021 40.2244 10.8165 40.2639 10.8435L41.6147 11.6828C41.696 11.738 41.7468 11.8263 41.7468 11.9257V13.2508C41.7468 13.3502 41.7976 13.4495 41.8788 13.4937C41.9601 13.5489 42.0616 13.5489 42.1429 13.4937L44.7024 11.8704Z" fill="#575757"/>
<path d="M40.1016 11.6165C40.1166 11.6057 40.1343 11.6 40.1523 11.6C40.1704 11.6 40.188 11.6057 40.2031 11.6165L41.0258 12.1355C41.0563 12.1575 41.0766 12.1906 41.0766 12.2349V13.2728C41.0766 13.317 41.0563 13.3501 41.0258 13.3722L40.2031 13.8912C40.188 13.9019 40.1704 13.9077 40.1523 13.9077C40.1343 13.9077 40.1166 13.9019 40.1016 13.8912L39.2788 13.3722C39.2483 13.3501 39.228 13.317 39.228 13.2728V12.2349C39.228 12.1906 39.2483 12.1575 39.2788 12.1355L40.1016 11.6165Z" fill="#539E43"/>
<mask id="mask0" mask-type="alpha" maskUnits="userSpaceOnUse" x="11" y="6" width="11" height="13">
<path d="M16.8731 6.91254C16.7941 6.8637 16.7049 6.83801 16.6141 6.83801C16.5233 6.83801 16.434 6.8637 16.3551 6.91254L12.0792 9.59563C11.9166 9.69499 11.8252 9.88273 11.8252 10.0815V15.4591C11.8252 15.6578 11.9268 15.8456 12.0792 15.9449L16.3551 18.6282C16.434 18.677 16.5233 18.7027 16.6141 18.7027C16.7049 18.7027 16.7941 18.677 16.8731 18.6282L21.1491 15.9449C21.3116 15.8456 21.403 15.6578 21.403 15.4591V10.0815C21.403 9.88282 21.3014 9.69509 21.1491 9.59572L16.8731 6.91254Z" fill="white"/>
</mask>
<g mask="url(#mask0)">
<path d="M16.8731 6.91254C16.7941 6.8637 16.7049 6.83801 16.6141 6.83801C16.5233 6.83801 16.434 6.8637 16.3551 6.91254L12.0792 9.59563C11.9166 9.69499 11.8252 9.88273 11.8252 10.0815V15.4591C11.8252 15.6578 11.9268 15.8456 12.0792 15.9449L16.3551 18.6282C16.434 18.677 16.5233 18.7027 16.6141 18.7027C16.7049 18.7027 16.7941 18.677 16.8731 18.6282L21.1491 15.9449C21.3116 15.8456 21.403 15.6578 21.403 15.4591V10.0815C21.403 9.88282 21.3014 9.69509 21.1491 9.59572L16.8731 6.91254Z" fill="url(#paint0_linear)"/>
<path d="M21.1591 9.59577L16.8628 6.91258C16.8206 6.88941 16.7764 6.87091 16.7308 6.85736L11.9165 15.8237C11.9564 15.8767 12.0045 15.9215 12.0588 15.9563L16.355 18.6395C16.4769 18.7168 16.6191 18.7389 16.7511 18.6947L21.2708 9.70631C21.2403 9.66217 21.1997 9.62893 21.1591 9.59587V9.59577Z" fill="url(#paint1_linear)"/>
<path fill-rule="evenodd" clip-rule="evenodd" d="M21.1691 15.945C21.291 15.8677 21.3824 15.7352 21.4231 15.5917L16.7103 6.84623C16.5884 6.82416 16.4563 6.83515 16.3447 6.91244L12.0789 9.58474L16.6798 18.7056C16.7467 18.6937 16.8117 18.6714 16.8727 18.6394L21.1691 15.9451L21.1691 15.945Z" fill="url(#paint2_linear)"/>
<path fill-rule="evenodd" clip-rule="evenodd" d="M21.1693 15.945L16.8832 18.6283C16.8227 18.6618 16.7574 18.6842 16.6902 18.6945L16.7715 18.8602L21.5247 15.8678V15.8015L21.4028 15.5806C21.3825 15.7352 21.2911 15.8677 21.1693 15.945Z" fill="url(#paint3_linear)"/>
<path fill-rule="evenodd" clip-rule="evenodd" d="M21.1693 15.945L16.8832 18.6283C16.8227 18.6618 16.7574 18.6842 16.6902 18.6945L16.7715 18.8602L21.5247 15.8678V15.8015L21.4028 15.5806C21.3825 15.7352 21.2911 15.8677 21.1693 15.945Z" fill="url(#paint4_linear)"/>
</g>
</g>
<defs>
<linearGradient id="paint0_linear" x1="18.3561" y1="8.9128" x2="13.0925" y2="16.5202" gradientUnits="userSpaceOnUse">
<stop stop-color="#41873F"/>
<stop offset="0.3288" stop-color="#418B3D"/>
<stop offset="0.6352" stop-color="#419637"/>
<stop offset="0.9319" stop-color="#3FA92D"/>
<stop offset="1" stop-color="#3FAE2A"/>
</linearGradient>
<linearGradient id="paint1_linear" x1="15.9648" y1="13.4003" x2="28.1296" y2="7.32123" gradientUnits="userSpaceOnUse">
<stop offset="0.1376" stop-color="#41873F"/>
<stop offset="0.4032" stop-color="#54A044"/>
<stop offset="0.7136" stop-color="#66B848"/>
<stop offset="0.9081" stop-color="#6CC04A"/>
</linearGradient>
<linearGradient id="paint2_linear" x1="11.6687" y1="12.7705" x2="21.5632" y2="12.7705" gradientUnits="userSpaceOnUse">
<stop offset="0.09192" stop-color="#6CC04A"/>
<stop offset="0.2864" stop-color="#66B848"/>
<stop offset="0.5968" stop-color="#54A044"/>
<stop offset="0.8624" stop-color="#41873F"/>
</linearGradient>
<linearGradient id="paint3_linear" x1="11.669" y1="17.2294" x2="21.5633" y2="17.2294" gradientUnits="userSpaceOnUse">
<stop offset="0.09192" stop-color="#6CC04A"/>
<stop offset="0.2864" stop-color="#66B848"/>
<stop offset="0.5968" stop-color="#54A044"/>
<stop offset="0.8624" stop-color="#41873F"/>
</linearGradient>
<linearGradient id="paint4_linear" x1="23.0047" y1="8.65852" x2="20.0607" y2="22.8476" gradientUnits="userSpaceOnUse">
<stop stop-color="#41873F"/>
<stop offset="0.3288" stop-color="#418B3D"/>
<stop offset="0.6352" stop-color="#419637"/>
<stop offset="0.9319" stop-color="#3FA92D"/>
<stop offset="1" stop-color="#3FAE2A"/>
</linearGradient>
<clipPath id="clip0">
<rect width="45" height="30" fill="white"/>
</clipPath>
</defs>
</svg>
