<svg width="30" height="30" viewBox="0 0 30 30" fill="none" xmlns="http://www.w3.org/2000/svg">
<path d="M29.8838 17.9626C29.7039 17.4343 29.2327 17.0664 28.6234 16.9781C28.336 16.9365 28.007 16.9542 27.6175 17.0321C26.9388 17.1679 26.4352 17.2196 26.0677 17.2296C27.4549 14.9588 28.5828 12.3692 29.2321 9.93165C30.2821 5.99011 29.7211 4.1945 29.0654 3.38231C27.3302 1.23252 24.7986 0.0776358 21.7445 0.0422984C20.1152 0.0229822 18.6849 0.334883 17.9388 0.559179C17.2441 0.440327 16.4971 0.37397 15.7134 0.361698C14.2442 0.338973 12.9461 0.64951 11.837 1.28774C11.2229 1.0864 10.2373 0.802563 9.09922 0.621445C6.42242 0.195351 4.265 0.527364 2.68695 1.60828C0.776094 2.91701 -0.109727 5.19087 0.0541014 8.36669C0.106133 9.375 0.687851 12.4429 1.60379 15.3524C2.1302 17.0247 2.69152 18.4134 3.27219 19.4804C4.09566 20.9933 4.9768 21.8842 5.96598 22.2042C6.52039 22.3832 7.52773 22.5087 8.58723 21.6531C8.72152 21.8108 8.9007 21.9675 9.13848 22.113C9.44047 22.2977 9.80973 22.4486 10.1785 22.538C11.5075 22.8601 12.7524 22.7796 13.8145 22.328C13.8211 22.5112 13.8261 22.6862 13.8303 22.8373C13.8373 23.0824 13.8444 23.3227 13.8536 23.5474C13.9166 25.0671 14.0232 26.2487 14.3391 27.0754C14.3565 27.1208 14.3798 27.1902 14.4044 27.2637C14.562 27.7316 14.8256 28.5149 15.4961 29.1284C16.1905 29.7639 17.0303 29.9587 17.7996 29.9587C18.1854 29.9587 18.5534 29.9097 18.8763 29.8426C20.0271 29.6034 21.3341 29.2391 22.2795 27.9338C23.1734 26.6999 23.608 24.8413 23.6866 21.9128C23.6968 21.83 23.7062 21.7509 23.7152 21.6756L23.7339 21.5208L23.9445 21.5388L23.9988 21.5423C25.1709 21.5941 26.6041 21.3531 27.4843 20.9567C28.1798 20.6438 30.4086 19.5029 29.8838 17.9626Z" fill="black"/>
<path d="M27.8795 18.262C24.3943 18.9591 24.1547 17.815 24.1547 17.815C27.8344 12.5209 29.3727 5.80077 28.0453 4.15604C24.4238 -0.330439 18.1548 1.79139 18.0502 1.84639L18.0165 1.8523C17.3279 1.71367 16.5574 1.63118 15.6913 1.61743C14.1144 1.59244 12.9182 2.0183 12.0104 2.68574C12.0104 2.68574 0.82724 -1.78132 1.34744 8.30381C1.45806 10.4493 4.519 24.5378 8.16986 20.2824C9.50427 18.7263 10.7937 17.4106 10.7937 17.4106C11.434 17.8231 12.2006 18.0335 13.0043 17.958L13.0668 17.9066C13.0473 18.0998 13.0562 18.2887 13.0917 18.5124C12.1512 19.5313 12.4276 19.7102 10.5475 20.0855C8.64493 20.4657 9.76255 21.1424 10.4923 21.3194C11.3769 21.5339 13.4235 21.8377 14.8063 19.9607L14.7512 20.1749C15.1197 20.4611 15.3784 22.0364 15.3351 23.4646C15.2917 24.8926 15.2627 25.8731 15.553 26.6389C15.8435 27.4047 16.1329 29.1279 18.6046 28.6144C20.6698 28.1852 21.7401 27.0732 21.889 25.2181C21.9946 23.8994 22.2338 24.0944 22.2488 22.9153L22.4406 22.3572C22.6617 20.5695 22.4758 19.9928 23.7481 20.261L24.0574 20.2874C24.9938 20.3286 26.2195 20.1413 26.939 19.8171C28.4879 19.1201 29.4067 17.9563 27.8793 18.262H27.8795Z" fill="#336791"/>
<path d="M12.6651 9.26325C12.351 9.22087 12.0666 9.26007 11.9227 9.36574C11.8418 9.42517 11.8167 9.49402 11.81 9.54141C11.7919 9.66696 11.8826 9.80581 11.9384 9.8774C12.0961 10.0801 12.3265 10.2194 12.5546 10.2501C12.5876 10.2546 12.6205 10.2567 12.6532 10.2567C13.0335 10.2567 13.3793 9.96955 13.4098 9.75763C13.4479 9.49221 13.0505 9.31529 12.6651 9.26337V9.26325ZM23.0694 9.27166C23.0394 9.06361 22.6576 9.0043 22.2953 9.05316C21.9334 9.10202 21.5826 9.26041 21.6119 9.46891C21.6353 9.63106 21.9373 9.90785 22.2947 9.90785C22.3249 9.90785 22.3554 9.90592 22.3861 9.90171C22.6247 9.86967 22.7998 9.72275 22.883 9.6381C23.0096 9.50902 23.0829 9.36517 23.0694 9.27166Z" fill="white"/>
<path d="M29.0392 18.1828C28.9063 17.7932 28.4785 17.6679 27.7679 17.8102C25.658 18.2324 24.9023 17.9399 24.6542 17.7628C26.2943 15.3403 27.6435 12.4119 28.3713 9.67983C28.7161 8.38565 28.9065 7.18372 28.9221 6.20405C28.9393 5.12881 28.7504 4.33866 28.3609 3.85599C26.7903 1.91016 24.4853 0.866398 21.695 0.837765C19.7768 0.816858 18.1561 1.29283 17.8419 1.42668C17.1803 1.26715 16.459 1.16921 15.6737 1.15671C14.2337 1.1341 12.9889 1.46838 11.9584 2.14979C11.5107 1.98822 10.3539 1.60314 8.93905 1.38214C6.49311 1.00036 4.54944 1.28965 3.16241 2.2424C1.50737 3.37933 0.743308 5.41162 0.891316 8.2827C0.941121 9.24863 1.50878 12.2201 2.40456 15.0659C3.5837 18.8114 4.8655 20.9318 6.21409 21.368C6.37194 21.419 6.55393 21.4547 6.75468 21.4547C7.24663 21.4547 7.84979 21.2397 8.47733 20.5082C9.24275 19.6179 10.0345 18.7492 10.8517 17.9032C11.3818 18.1791 11.9642 18.3332 12.5599 18.3486C12.5611 18.3637 12.5626 18.3789 12.564 18.3938C12.4615 18.5124 12.3611 18.6327 12.2628 18.7546C11.8501 19.2626 11.7642 19.3684 10.4357 19.6336C10.0577 19.7093 9.05401 19.9098 9.03925 20.592C9.02331 21.3374 10.2258 21.6505 10.3628 21.6836C10.8402 21.7995 11.3001 21.8567 11.7388 21.8567C12.8055 21.8567 13.7443 21.5167 14.4946 20.8589C14.4715 23.5162 14.5857 26.1346 14.9148 26.9323C15.1843 27.5854 15.8427 29.1815 17.9223 29.1814C18.2274 29.1814 18.5633 29.147 18.9328 29.0702C21.1032 28.6191 22.0458 27.6889 22.4103 25.6383C22.6055 24.5424 22.9403 21.9255 23.0978 20.5218C23.4301 20.6224 23.858 20.6684 24.3205 20.6683C25.2852 20.6683 26.3983 20.4695 27.0964 20.1554C27.8807 19.8022 29.2958 18.9357 29.0392 18.1828ZM23.8705 8.69743C23.8633 9.11182 23.8045 9.48804 23.7422 9.88072C23.675 10.3031 23.6057 10.7397 23.5882 11.2698C23.571 11.7856 23.6374 12.322 23.7016 12.8407C23.8315 13.8883 23.9647 14.9668 23.449 16.031C23.3633 15.8838 23.287 15.7317 23.2205 15.5755C23.1564 15.4248 23.0171 15.1828 22.8244 14.8478C22.0745 13.5439 20.3184 10.4903 21.2174 9.24431C21.4851 8.87344 22.1647 8.49211 23.8705 8.69743ZM21.8028 1.67689C24.3029 1.7304 26.2806 2.63724 27.6807 4.37207C28.7546 5.70273 27.5721 11.7575 24.1487 16.9809C24.1143 16.9385 24.0797 16.8962 24.0449 16.854L24.0015 16.8015C24.8862 15.3849 24.7132 13.9834 24.5592 12.7408C24.4959 12.2308 24.4362 11.7492 24.4514 11.2967C24.4671 10.8172 24.5325 10.4059 24.5958 10.0082C24.6735 9.51815 24.7526 9.01104 24.7308 8.41326C24.7471 8.35053 24.7536 8.27645 24.7451 8.18851C24.6894 7.61527 24.0144 5.89964 22.6386 4.34685C21.886 3.4975 20.7886 2.54703 19.2901 1.90595C19.9346 1.77642 20.816 1.65564 21.8028 1.67689ZM7.81323 19.9728C7.12182 20.7788 6.6444 20.6243 6.48737 20.5736C5.46432 20.2428 4.27721 18.1461 3.23061 14.8215C2.32499 11.9447 1.79577 9.05194 1.75382 8.24077C1.62163 5.67535 2.263 3.88746 3.66022 2.92665C5.93413 1.36317 9.67264 2.29898 11.1749 2.77359C11.1533 2.79427 11.1308 2.81359 11.1095 2.83461C8.64432 5.24846 8.7028 9.37259 8.70889 9.62473C8.70866 9.72199 8.7171 9.8597 8.72858 10.0491C8.771 10.7428 8.84999 12.0338 8.63905 13.4958C8.44311 14.8544 8.87507 16.1842 9.82393 17.1442C9.92131 17.2425 10.0237 17.3361 10.1306 17.4246C9.70827 17.8632 8.79034 18.8331 7.81323 19.9728ZM10.4475 16.5648C9.68272 15.791 9.33538 14.7148 9.4944 13.6117C9.71706 12.0673 9.63491 10.7222 9.59073 9.99957C9.58452 9.89845 9.57901 9.80982 9.57585 9.73994C9.93596 9.43031 11.6048 8.56335 12.795 8.82776C13.338 8.94832 13.669 9.30692 13.8066 9.92367C14.5186 13.1169 13.9008 14.4478 13.4044 15.5173C13.3021 15.7376 13.2054 15.9459 13.1229 16.1613L13.0589 16.3279C12.8969 16.749 12.7462 17.1406 12.6528 17.5123C11.8398 17.5101 11.0489 17.1733 10.4475 16.5647V16.5648ZM10.5723 20.8712C10.3349 20.8137 10.1214 20.7138 9.99608 20.631C10.1007 20.5833 10.2869 20.5183 10.6099 20.4538C12.1728 20.1419 12.4142 19.9216 12.9414 19.2727C13.0622 19.1239 13.1992 18.9553 13.3889 18.7498L13.3891 18.7496C13.6717 18.4428 13.8009 18.4949 14.0353 18.5892C14.2253 18.6653 14.4103 18.8962 14.4853 19.1502C14.5208 19.2702 14.5607 19.4979 14.4302 19.6752C13.3291 21.17 11.7246 21.1508 10.5723 20.8712ZM18.7519 28.2514C16.8398 28.6486 16.1628 27.7027 15.7167 26.6213C15.4288 25.9232 15.2872 22.7751 15.3876 19.2985C15.3889 19.2523 15.3821 19.2076 15.369 19.1656C15.3573 19.0826 15.3394 19.0005 15.3156 18.9199C15.1663 18.4141 14.8024 17.9909 14.3659 17.8155C14.1924 17.7458 13.8742 17.618 13.4917 17.7129C13.5732 17.387 13.7147 17.019 13.8681 16.6205L13.9324 16.4529C14.0048 16.2639 14.0958 16.0682 14.1919 15.8609C14.7114 14.7419 15.4228 13.2093 14.6507 9.74676C14.3614 8.44984 13.3956 7.8165 11.9314 7.96364C11.0537 8.0517 10.2506 8.39508 9.85007 8.59199C9.76393 8.63426 9.68518 8.67516 9.61159 8.71493C9.72339 7.40824 10.1457 4.96622 11.7257 3.42114C12.7205 2.44851 14.0453 1.96811 15.6594 1.99401C18.8399 2.04446 20.8794 3.62703 22.0304 4.94588C23.0223 6.08224 23.5594 7.22701 23.7737 7.84445C22.1618 7.68549 21.0655 7.99398 20.5098 8.76436C19.3008 10.4401 21.1712 13.6925 22.0701 15.2556C22.235 15.5421 22.3773 15.7897 22.4221 15.8949C22.7148 16.5828 23.0938 17.0421 23.3705 17.3772C23.4553 17.48 23.5376 17.5796 23.6001 17.6666C23.1119 17.8031 22.235 18.1184 22.3149 19.6945C22.2505 20.4853 21.7922 24.1879 21.5593 25.4961C21.2519 27.2243 20.596 27.868 18.7519 28.2515V28.2514ZM26.7328 19.3959C26.2336 19.6205 25.3982 19.789 24.6046 19.8253C23.728 19.8651 23.2817 19.7301 23.1767 19.647C23.1275 18.6648 23.5045 18.5622 23.9035 18.4536C23.9662 18.4366 24.0274 18.4199 24.0865 18.3999C24.1232 18.4288 24.1633 18.4576 24.2074 18.4858C24.9119 18.9366 26.1685 18.9853 27.9426 18.6302L27.9621 18.6264C27.7228 18.8433 27.3133 19.1345 26.7328 19.3959Z" fill="white"/>
</svg>
