<svg width="30" height="30" viewBox="0 0 30 30" fill="none" xmlns="http://www.w3.org/2000/svg">
<path d="M14.8714 0.00848389C7.27464 0.00848389 7.74897 3.31613 7.74897 3.31613L7.75741 6.74295H15.0069V7.77178H4.87803C4.87803 7.77178 0.0168457 7.21825 0.0168457 14.9141C0.0168457 22.6102 4.2598 22.3373 4.2598 22.3373H6.79199V18.766C6.79199 18.766 6.65548 14.506 10.9672 14.506H18.1574C18.1574 14.506 22.1971 14.5715 22.1971 10.5861V3.99648C22.1971 3.99648 22.8106 0.00848389 14.8714 0.00848389ZM10.8741 2.31295C11.0454 2.3128 11.215 2.34656 11.3733 2.41231C11.5316 2.47806 11.6755 2.57451 11.7966 2.69613C11.9177 2.81775 12.0138 2.96216 12.0793 3.12109C12.1448 3.28003 12.1784 3.45037 12.1782 3.62237C12.1784 3.79436 12.1448 3.9647 12.0793 4.12364C12.0138 4.28257 11.9177 4.42698 11.7966 4.54861C11.6755 4.67023 11.5316 4.76667 11.3733 4.83242C11.215 4.89817 11.0454 4.93193 10.8741 4.93178C10.7028 4.93193 10.5331 4.89817 10.3748 4.83242C10.2165 4.76667 10.0727 4.67023 9.95153 4.54861C9.8304 4.42698 9.73434 4.28257 9.66885 4.12364C9.60336 3.9647 9.56974 3.79436 9.56989 3.62237C9.56974 3.45037 9.60336 3.28003 9.66885 3.12109C9.73434 2.96216 9.8304 2.81775 9.95153 2.69613C10.0727 2.57451 10.2165 2.47806 10.3748 2.41231C10.5331 2.34656 10.7028 2.3128 10.8741 2.31295Z" fill="url(#paint0_linear)"/>
<path d="M15.0875 29.8972C22.6843 29.8972 22.2099 26.5895 22.2099 26.5895L22.2015 23.1628H14.9519V22.134H25.0808C25.0808 22.134 29.9419 22.6875 29.9419 14.9914C29.9419 7.29539 25.699 7.56834 25.699 7.56834H23.1668V11.1395C23.1668 11.1395 23.3033 15.3995 18.9916 15.3995H11.8014C11.8014 15.3995 7.76172 15.334 7.76172 19.3195V25.9093C7.76172 25.9093 7.1483 29.8972 15.0874 29.8972H15.0875ZM19.0848 27.5929C18.9135 27.5931 18.7439 27.5593 18.5856 27.4936C18.4273 27.4278 18.2834 27.3314 18.1623 27.2098C18.0412 27.0881 17.9451 26.9437 17.8796 26.7848C17.8141 26.6259 17.7805 26.4555 17.7807 26.2835C17.7805 26.1115 17.8141 25.9412 17.8796 25.7822C17.9451 25.6233 18.0411 25.4788 18.1623 25.3572C18.2834 25.2356 18.4272 25.1391 18.5855 25.0734C18.7438 25.0076 18.9135 24.9738 19.0848 24.974C19.2561 24.9738 19.4258 25.0076 19.5841 25.0733C19.7424 25.1391 19.8862 25.2355 20.0074 25.3572C20.1285 25.4788 20.2246 25.6232 20.29 25.7821C20.3555 25.9411 20.3892 26.1114 20.389 26.2834C20.3892 26.4554 20.3555 26.6257 20.29 26.7847C20.2246 26.9436 20.1285 27.088 20.0074 27.2096C19.8862 27.3313 19.7424 27.4277 19.5841 27.4934C19.4258 27.5592 19.2561 27.593 19.0848 27.5928V27.5929Z" fill="url(#paint1_linear)"/>
<defs>
<linearGradient id="paint0_linear" x1="2.8926" y1="2.69679" x2="17.7812" y2="17.3779" gradientUnits="userSpaceOnUse">
<stop stop-color="#387EB8"/>
<stop offset="1" stop-color="#366994"/>
</linearGradient>
<linearGradient id="paint1_linear" x1="11.9955" y1="12.1624" x2="27.9812" y2="27.2138" gradientUnits="userSpaceOnUse">
<stop stop-color="#FFE052"/>
<stop offset="1" stop-color="#FFC331"/>
</linearGradient>
</defs>
</svg>
