<svg width="30" height="30" viewBox="0 0 30 30" fill="none" xmlns="http://www.w3.org/2000/svg">
<g clip-path="url(#clip0)">
<path d="M29.4342 13.6634L16.3359 0.565813C15.5821 -0.188523 14.3586 -0.188523 13.6038 0.565813L10.8839 3.28573L14.3343 6.73609C15.1361 6.46515 16.0555 6.64691 16.6946 7.28605C17.3368 7.92929 17.5173 8.85659 17.2398 9.66097L20.565 12.9863C21.3695 12.7091 22.2977 12.8884 22.9403 13.532C23.8383 14.4297 23.8383 15.8846 22.9403 16.7828C22.042 17.6812 20.5871 17.6812 19.6884 16.7828C19.013 16.1066 18.8461 15.1146 19.188 14.2825L16.087 11.1815L16.0867 19.3421C16.3115 19.4532 16.5168 19.6 16.6946 19.7768C17.5927 20.6745 17.5927 22.1295 16.6946 23.0284C15.7964 23.9263 14.3408 23.9263 13.4439 23.0284C12.5459 22.1295 12.5459 20.6746 13.4439 19.7769C13.6591 19.5616 13.9148 19.3911 14.1963 19.2753V11.0386C13.9144 10.9235 13.6585 10.7529 13.4439 10.5369C12.7635 9.85749 12.5999 8.85917 12.9485 8.02374L9.54727 4.62214L0.566016 13.6028C-0.188672 14.3578 -0.188672 15.5814 0.566016 16.3359L13.6645 29.4337C14.4186 30.1881 15.6418 30.1881 16.3969 29.4337L29.4341 16.3967C30.1886 15.642 30.1886 14.4177 29.4341 13.6634" fill="#DE4C36"/>
</g>
<defs>
<clipPath id="clip0">
<rect width="30" height="30" fill="white"/>
</clipPath>
</defs>
</svg>
