<svg width="30" height="30" viewBox="0 0 30 30" fill="none" xmlns="http://www.w3.org/2000/svg">
<path d="M0.857363 10.7243C0.857363 10.7243 0.147202 10.203 0.999395 9.5069L2.98489 7.69895C2.98489 7.69895 3.55301 7.09027 4.15369 7.6206L22.4758 21.7468V28.5206C22.4758 28.5206 22.467 29.5842 21.1265 29.4667L0.857363 10.7243Z" fill="#2489CA"/>
<path d="M5.58 15.0905L0.857403 19.4627C0.857403 19.4627 0.372124 19.8303 0.857403 20.4872L3.05004 22.5181C3.05004 22.5181 3.57082 23.0876 4.34017 22.4397L9.34683 18.5738L5.58 15.0905Z" fill="#1070B3"/>
<path d="M13.8711 15.1266L22.5322 8.39196L22.476 1.65432C22.476 1.65432 22.1061 0.183845 20.8722 0.949213L9.3468 11.6312L13.8711 15.1266Z" fill="#0877B9"/>
<path d="M21.1267 29.4757C21.6297 30.0001 22.2393 29.8283 22.2393 29.8283L28.9887 26.4414C29.8528 25.8418 29.7314 25.0975 29.7314 25.0975V4.87249C29.7314 3.98358 28.8378 3.67623 28.8378 3.67623L22.9879 0.804594C21.7096 5.43296e-05 20.8722 0.949231 20.8722 0.949231C20.8722 0.949231 21.9493 0.159757 22.476 1.65433V28.397C22.476 28.5808 22.4375 28.7616 22.3606 28.9243C22.2067 29.2407 21.8723 29.536 21.0704 29.4125L21.1267 29.4757Z" fill="#3C99D4"/>
</svg>
