<svg width="30" height="30" viewBox="0 0 30 30" fill="none" xmlns="http://www.w3.org/2000/svg">
<path d="M4.40951 26.7476L2.0531 0.316895H27.9468L25.5881 26.7436L14.9843 29.6834L4.40951 26.7476Z" fill="#1572B6"/>
<path d="M15.0002 27.4364L23.5688 25.0608L25.5846 2.47784H15.0002V27.4364Z" fill="#33A9DC"/>
<path d="M15.0002 12.0536H19.2898L19.586 8.73419H15.0002V5.49255H23.1288L23.051 6.36232L22.2541 15.2953H15.0002V12.0536Z" fill="white"/>
<path d="M15.0195 20.4724L15.0052 20.4767L11.3951 19.5019L11.1642 16.9165H7.91064L8.36463 22.0064L15.0047 23.8493L15.0195 23.8451V20.4724Z" fill="#EBEBEB"/>
<path d="M19.0141 15.1582L18.6236 19.4993L15.0082 20.4752V23.8479L21.6536 22.0062L21.7024 21.4584L22.2663 15.1582H19.0141Z" fill="white"/>
<path d="M15.0113 5.49255V8.73419H7.18127L7.11635 8.00576L6.96869 6.36232L6.89111 5.49255H15.0113ZM15.0003 12.0541V15.2958H11.4356L11.3707 14.5673L11.2228 12.9239L11.1455 12.0541H15.0003Z" fill="#EBEBEB"/>
</svg>
