<svg width="30" height="30" viewBox="0 0 30 30" fill="none" xmlns="http://www.w3.org/2000/svg">
<path d="M14.0187 0.0234465C13.9542 0.0293053 13.7491 0.0498111 13.5646 0.0644581C9.30818 0.44821 5.32126 2.74486 2.79612 6.27479C1.39 8.23749 0.490676 10.4638 0.150866 12.822C0.0307603 13.6452 0.0161133 13.8883 0.0161133 15.0044C0.0161133 16.1205 0.0307603 16.3636 0.150866 17.1868C0.965239 22.8142 4.96973 27.5422 10.4008 29.294C11.3734 29.6075 12.3987 29.8213 13.5646 29.9502C14.0187 30 15.9814 30 16.4354 29.9502C18.4479 29.7276 20.1528 29.2296 21.8343 28.3713C22.0921 28.2394 22.1419 28.2043 22.1067 28.175C22.0833 28.1574 20.9848 26.6839 19.6665 24.9029L17.2703 21.6659L14.2677 17.222C12.6155 14.7788 11.2562 12.781 11.2445 12.781C11.2328 12.7781 11.2211 14.7525 11.2152 17.1634C11.2064 21.3846 11.2035 21.5545 11.1508 21.6541C11.0746 21.7977 11.016 21.8563 10.893 21.9207C10.7992 21.9676 10.7172 21.9764 10.2749 21.9764H9.76809L9.63334 21.8914C9.54546 21.8358 9.48101 21.7625 9.43707 21.6776L9.37555 21.5458L9.38141 15.6723L9.3902 9.79593L9.48101 9.68168C9.52788 9.62016 9.62748 9.54107 9.69779 9.50299C9.81789 9.4444 9.86476 9.43854 10.3715 9.43854C10.9691 9.43854 11.0687 9.46198 11.224 9.63188C11.2679 9.67875 12.8938 12.1277 14.8389 15.0776C16.784 18.0275 19.4439 22.0555 20.7504 24.0328L23.1232 27.6272L23.2433 27.5481C24.3067 26.8568 25.4316 25.8725 26.3221 24.8472C28.2175 22.6706 29.439 20.0166 29.8491 17.1868C29.9692 16.3636 29.9839 16.1205 29.9839 15.0044C29.9839 13.8883 29.9692 13.6452 29.8491 12.822C29.0348 7.19462 25.0303 2.46657 19.5992 0.714785C18.6413 0.404269 17.6218 0.190422 16.4794 0.0615287C16.1981 0.0322347 14.2618 1.1269e-05 14.0187 0.0234465ZM20.1528 9.08701C20.2934 9.15732 20.4077 9.29207 20.4487 9.43268C20.4721 9.50885 20.478 11.1376 20.4721 14.8081L20.4633 20.0752L19.5347 18.6515L18.6032 17.2278V13.3991C18.6032 10.9237 18.6149 9.53228 18.6325 9.46491C18.6793 9.30086 18.7819 9.17197 18.9225 9.0958C19.0426 9.03428 19.0865 9.02843 19.5464 9.02843C19.98 9.02843 20.0562 9.03428 20.1528 9.08701Z" fill="url(#paint0_linear)"/>
<path d="M22.9767 27.6916C22.8741 27.7561 22.8419 27.8 22.9327 27.7502C22.9972 27.7121 23.1026 27.6331 23.0851 27.6301C23.0763 27.6301 23.0265 27.6594 22.9767 27.6916ZM22.7745 27.8235C22.7218 27.8645 22.7218 27.8674 22.7863 27.8352C22.8214 27.8176 22.8507 27.7971 22.8507 27.7912C22.8507 27.7678 22.8361 27.7737 22.7745 27.8235ZM22.6281 27.9113C22.5753 27.9524 22.5753 27.9553 22.6398 27.9231C22.6749 27.9055 22.7042 27.885 22.7042 27.8791C22.7042 27.8557 22.6896 27.8615 22.6281 27.9113ZM22.4816 27.9992C22.4289 28.0402 22.4289 28.0432 22.4933 28.0109C22.5285 27.9934 22.5578 27.9729 22.5578 27.967C22.5578 27.9436 22.5431 27.9494 22.4816 27.9992ZM22.259 28.1164C22.1476 28.175 22.1535 28.1984 22.2648 28.1428C22.3146 28.1164 22.3527 28.09 22.3527 28.0842C22.3527 28.0637 22.3498 28.0666 22.259 28.1164Z" fill="url(#paint1_linear)"/>
<defs>
<linearGradient id="paint0_linear" x1="15" y1="0.0153809" x2="15" y2="29.9876" gradientUnits="userSpaceOnUse">
<stop offset="0.296875" stop-color="#00BB60"/>
<stop offset="1" stop-color="#5A6560"/>
</linearGradient>
<linearGradient id="paint1_linear" x1="22.6327" y1="27.6301" x2="22.6327" y2="28.1744" gradientUnits="userSpaceOnUse">
<stop offset="0.296875" stop-color="#00BB60"/>
<stop offset="1" stop-color="#5A6560"/>
</linearGradient>
</defs>
</svg>
